<svg xmlns="http://www.w3.org/2000/svg" width="77.5" height="81.35"><path d="M73.67 42.18v-3h-3.52l7.35-12.73h-3.44L66.7 39.18h-3.44l7.35-12.73h-3.45l-7.35 12.73h-3.44l7.35-12.73h-.32l.16-.28h-14.7l1.72-3h14.7l1.73-3h-14.7l1.72-3h14.7l1.72-3h-14.7l1.76-3.05-2.6-1.5-1.76 3.05L45.8 0l-1.72 3 7.35 12.74-1.72 3L42.36 6l-1.73 3L48 21.68l-1.72 3-7.37-12.74-.16.27-.16-.28-7.35 12.73-1.72-3L36.87 9l-1.73-3-7.34 12.7-1.73-3L33.42 3 31.7 0l-7.35 12.73-1.76-3.05-2.59 1.5 1.76 3.05H7.05l1.72 3h14.71l1.72 3H10.5l1.72 3h14.7l1.72 3h-14.7l.16.29h-.32l7.35 12.73h-3.44l-7.35-12.8H6.89l7.35 12.73H10.8L3.44 26.45H0l7.35 12.73H3.83v3h3.52L0 54.91h3.44l7.36-12.73h3.44L6.89 54.91h3.45l7.35-12.73h3.44l-7.35 12.73h.32l-.16.27h14.7l-1.72 3h-14.7l-1.72 3h14.7l-1.72 3H8.77l-1.72 3h14.7l-1.76 3 2.6 1.5 1.76-3 7.35 12.67 1.72-3-7.35-12.72 1.73-3 7.34 12.73 1.73-3-7.35-12.69 1.72-3 7.35 12.73.16-.28.16.27 7.35-12.73 1.72 3-7.35 12.74 1.73 3 7.35-12.73 1.72 3-7.35 12.69 1.72 3 7.35-12.73 1.76 3 2.6-1.5-1.76-3.06h14.7l-1.72-3H54l-1.72-3H67l-1.73-3H50.58l-1.72-3h14.7l-.16-.27h.32l-7.35-12.62h3.44l7.35 12.73h3.45l-7.35-12.73h3.44l7.36 12.73h3.44l-7.35-12.73zM44.53 27.63l-5.78 10-5.75-10 5.78-10zm-25.75 1.52h11.57l5.78 10H24.56zm0 23.05l5.78-10h11.57l-5.78 10zm20-8.5l5.78 10-5.78 10L33 53.71zm20 8.5H47.15l-5.78-10h11.56zm-5.77-13H41.37l5.78-10h11.57z" fill="#598d9a"/></svg>