<svg xmlns="http://www.w3.org/2000/svg" width="63.03" height="59.8" viewBox="0 0 63.03 59.8"><path d="M60.53,31.94H40.82l-1.17-2,1.17-2H60.53a2.5,2.5,0,0,0,0-5H43.71L52.12,8.29a2.5,2.5,0,0,0-4.33-2.5L37.94,22.86H35.58l-1.18-2L44.25,3.75a2.5,2.5,0,0,0-4.33-2.5L31.51,15.82,23.11,1.25a2.5,2.5,0,0,0-4.33,2.5l9.85,17.07-1.18,2H25.09L15.24,5.79a2.5,2.5,0,0,0-4.33,2.5l8.41,14.57H2.5a2.5,2.5,0,0,0,0,5H22.21l1.17,2-1.17,2H2.5a2.5,2.5,0,0,0,0,5H19.32L10.91,51.51A2.5,2.5,0,1,0,15.24,54l9.85-17.07h2.36l1.18,2L18.78,56.05a2.49,2.49,0,0,0,.91,3.41,2.45,2.45,0,0,0,1.25.34,2.52,2.52,0,0,0,2.17-1.25L31.51,44l8.41,14.57a2.52,2.52,0,0,0,2.17,1.25,2.45,2.45,0,0,0,1.25-.34,2.5,2.5,0,0,0,.91-3.41L34.4,39l1.18-2h2.36L47.79,54a2.5,2.5,0,0,0,4.33-2.5L43.71,36.94H60.53a2.5,2.5,0,1,0,0-5Zm-30.19,0-1.18-2,1.18-2h2.35l1.18,2-1.18,2Z" fill="#598d9a"/></svg>