<svg xmlns="http://www.w3.org/2000/svg" width="71" height="62.45"><path d="M59.25 24.87c-3.12-.52-6.74-.92-10.66-1.2 1.72-3.54 3.18-6.87 4.29-9.83C55.81 6 55.92 2 53.25.48s-6.07.56-11.38 7c-2 2.43-4.17 5.37-6.37 8.63-2.2-3.26-4.36-6.2-6.37-8.63-5.31-6.48-8.71-8.54-11.38-7s-2.56 5.52.37 13.36c1.11 3 2.57 6.29 4.29 9.83-3.92.28-7.54.68-10.66 1.2C3.52 26.25 0 28.15 0 31.23s3.52 5 11.75 6.35c3.12.52 6.74.93 10.66 1.2-1.72 3.54-3.18 6.88-4.29 9.83-2.93 7.83-3 11.82-.37 13.36a3.46 3.46 0 001.77.48c2.39 0 5.4-2.37 9.61-7.48 2-2.44 4.17-5.37 6.37-8.63 2.2 3.26 4.36 6.19 6.37 8.63 4.21 5.11 7.22 7.48 9.61 7.48a3.46 3.46 0 001.77-.45c2.67-1.54 2.56-5.53-.37-13.36-1.11-3-2.57-6.29-4.29-9.83 3.92-.27 7.54-.68 10.66-1.2 8.23-1.4 11.75-3.3 11.75-6.38s-3.52-4.98-11.75-6.36zM50 6.06c-.57 3-2.64 8.93-6.87 17.32-1 0-2-.07-3.08-.09a96.47 96.47 0 00-1.62-2.62C43.61 12.81 47.73 8.05 50 6.06zM38.1 32.73l-.88 1.49h-3.44l-.88-1.49-.85-1.5.85-1.5c.3-.51.58-1 .88-1.49h3.44c.3.49.58 1 .88 1.49l.85 1.5zM21 6.06c2.3 2 6.42 6.75 11.57 14.61-.55.86-1.09 1.73-1.62 2.62-1 0-2.07.05-3.08.09C23.61 15 21.54 9.05 21 6.06zM6.44 31.23c2.87-1 9.05-2.18 18.43-2.72.48.9 1 1.81 1.46 2.72-.5.91-1 1.81-1.46 2.71-9.38-.53-15.56-1.71-18.43-2.71zM21 56.4c.57-3 2.64-8.94 6.87-17.33 1 0 2 .08 3.08.1.53.89 1.07 1.76 1.62 2.62-5.18 7.85-9.3 12.62-11.57 14.61zm29 0c-2.3-2-6.42-6.76-11.57-14.61.55-.86 1.09-1.73 1.62-2.62 1 0 2.07-.06 3.08-.1 4.26 8.39 6.33 14.34 6.87 17.33zm-3.9-22.46c-.48-.9-1-1.8-1.46-2.71.5-.91 1-1.82 1.46-2.72 9.38.54 15.56 1.71 18.43 2.72-2.84 1-9.02 2.18-18.4 2.71z" fill="#598d9a"/></svg>