<svg xmlns="http://www.w3.org/2000/svg" xmlns:xlink="http://www.w3.org/1999/xlink" width="149.12" height="52.58" viewBox="0 0 149.12 52.58"><defs><style>.cls-1{fill:url(#名称未設定グラデーション_190);}.cls-2{fill:url(#名称未設定グラデーション_223);}.cls-3{fill:url(#名称未設定グラデーション_223-2);}.cls-4{fill:url(#名称未設定グラデーション_2916);}</style><linearGradient id="名称未設定グラデーション_190" x1="70.3" y1="-8.61" x2="74.7" y2="36.24" gradientUnits="userSpaceOnUse"><stop offset="0" stop-color="#72a5c4"/><stop offset="0.34" stop-color="#85baca"/><stop offset="0.74" stop-color="#a1d7d2"/><stop offset="1" stop-color="#c6e6e2"/></linearGradient><linearGradient id="名称未設定グラデーション_223" x1="21.71" y1="25.99" x2="3.7" y2="24.79" gradientUnits="userSpaceOnUse"><stop offset="0" stop-color="#8ec2cf"/><stop offset="0.23" stop-color="#a8d1d9"/><stop offset="0.54" stop-color="#c5e2e5"/><stop offset="0.81" stop-color="#d7ecec"/><stop offset="1" stop-color="#ddf0ee"/></linearGradient><linearGradient id="名称未設定グラデーション_223-2" x1="111.28" y1="39.7" x2="93.7" y2="38.53" xlink:href="#名称未設定グラデーション_223"/><linearGradient id="名称未設定グラデーション_2916" x1="595.71" y1="-85.85" x2="586.81" y2="-86.45" gradientTransform="translate(-355.88 -336.59) rotate(45)" gradientUnits="userSpaceOnUse"><stop offset="0" stop-color="#688494"/><stop offset="0.57" stop-color="#75989e"/><stop offset="1" stop-color="#81aba8"/></linearGradient></defs><g id="レイヤー_2" data-name="レイヤー 2"><g id="レイヤー_1-2" data-name="レイヤー 1"><path class="cls-1" d="M142.09,31.91c0-2.21,2.21-4,4.94-4h0a1.76,1.76,0,0,0,1.67-1.12,6.09,6.09,0,0,0,.41-2.13c0-10.55-32.3-25.35-58.19-24.64C54,1,30.6,18.25,22.2,17.15,16,16.33-7.38-17.94,2.33,16.9c1.1,4,2.72,5.89,2.72,7.76s-1.62,3.81-2.72,7.76C-7.38,67.26,16,33,22.2,32.17,30.6,31.07,54,48.29,90.93,49.3c18.2.5,39.56-6.66,50.65-14.63a1.68,1.68,0,0,0,.65-1.83A3.22,3.22,0,0,1,142.09,31.91Z"/><path class="cls-2" d="M22.2,17.15C16,16.33-7.38-17.94,2.33,16.9c1.1,4,2.72,5.88,2.72,7.76s-1.62,3.81-2.72,7.76c-9.58,34.37,13,1.49,19.61-.19a18.39,18.39,0,0,1-1-5.79,19.11,19.11,0,0,1,2.48-9.27A6.65,6.65,0,0,1,22.2,17.15Z"/><path class="cls-3" d="M112.45,32.69a1.42,1.42,0,0,0-.63-.85c-10.06-6.23-20.2-15.95-23.16,9.1-3,25.42,19.14,1.77,22-1.41A6.84,6.84,0,0,0,112.45,32.69Z"/><path class="cls-4" d="M126.84,23.07l-2.76-2.76a.65.65,0,0,1,0-.91l2.76-2.75a.66.66,0,0,0,0-.92l-.22-.22a.66.66,0,0,0-.92,0L123,18.26a.64.64,0,0,1-.92,0l-2.75-2.75a.66.66,0,0,0-.92,0l-.21.22a.63.63,0,0,0,0,.91l2.75,2.76a.65.65,0,0,1,0,.91l-2.76,2.76a.66.66,0,0,0,0,.92l.22.21a.64.64,0,0,0,.92,0L122,21.45a.64.64,0,0,1,.92,0l2.75,2.75a.66.66,0,0,0,.92,0l.22-.22A.65.65,0,0,0,126.84,23.07Z"/></g></g></svg>