<svg xmlns="http://www.w3.org/2000/svg" width="73.63" height="27.91" viewBox="0 0 73.63 27.91"><path d="M45.36,27.91a3.17,3.17,0,0,1-2.8-1.65c-10.45-.63-18.56-3.88-24-6.05-2.84-1.14-5.3-2.12-6.36-2L12,17.69l-.44-.81.58,1.38-1,.69-.76.67c-.57.52-1.18,1.12-1.8,1.72-.44.43-.89.87-1.34,1.29L3.78,25.39l-1.26.35H2.29l-.18,0a.85.85,0,0,1-.23,0l-.15,0-.23-.08-.18-.09a1.46,1.46,0,0,1-.24-.15l-.15-.12A1.84,1.84,0,0,1,.73,25l-.11-.12L.48,24.7l-.11-.19L.3,24.35l-.06-.14A1,1,0,0,1,.18,24l-.13-.58s0-.09,0-.15l0-.6,0-.56,1.5,0L0,22l.15-1.31,1.51.11L.2,20.56l.08-.44,1.5.15L.31,20l.63-2.74.22-.8A16.14,16.14,0,0,1,2,14.14a4.46,4.46,0,0,0,.36-1A4.43,4.43,0,0,0,2,12.23a16.61,16.61,0,0,1-.87-2.32A24.57,24.57,0,0,1,0,3.63C0,1.78.83,1.06,1.5.78,3.36,0,5.33,1.8,8.65,5a22.51,22.51,0,0,0,3.59,3.11h.3c1.22-.06,3.34-.91,6-2C24.37,3.83,33.13.33,44.53,0h0C54.86-.27,66.75,4.33,71.35,8.8a6.31,6.31,0,0,1,2.28,4.38,4.39,4.39,0,0,1-.28,1.53,2.34,2.34,0,0,1-2.2,1.51h0c-.54,0-.84.3-.84.4a2.32,2.32,0,0,1-.87,2.52c-4.72,3.39-12.6,6.17-19.74,7A8,8,0,0,1,45.36,27.91ZM12.41,15.22c1.76,0,4,.9,7.28,2.2,5.4,2.16,13.56,5.43,24,5.89l1.08.05L45,24.41c.11.37.22.48.24.48s.75.23,3-1.43l.33-.25.41,0C55.58,22.49,62.87,20,67.33,17a1.94,1.94,0,0,1,0-.34,3.57,3.57,0,0,1,3.32-3.37v-.07A3.84,3.84,0,0,0,69.26,11C65.19,7,54.08,2.74,44.61,3c-10.87.3-19.33,3.68-24.92,5.92-3.07,1.23-5.28,2.12-7,2.2h-.38a2.85,2.85,0,0,1-.44,0C10.47,10.93,9,9.57,6.56,7.18A37.52,37.52,0,0,0,3,4a25.41,25.41,0,0,0,1,5.11A12.76,12.76,0,0,0,4.77,11a5.3,5.3,0,0,1,.62,2.18,5.26,5.26,0,0,1-.62,2.18,13.2,13.2,0,0,0-.72,1.9L3,22.11l-1.5,0,1.5.09v.12l.09-.06,1,1.15-.82-1.26,1,1.16-.88-1.22,1.89-1.65,1.34-1.29c.61-.6,1.22-1.19,1.78-1.71l.23-.2,1.95-1.52a.76.76,0,0,1,.16-.1l.27-.14.28-.11.29-.1.3-.06A5.68,5.68,0,0,1,12.41,15.22ZM2.64,23.34l.38.74-.33-.77Zm.09-.07.4.76-.35-.8ZM3,22.54l.84,1.07L3,22.38Zm-.35.69h0Zm0,0h0l.05-.05v0ZM2.45,23l0,.07,0-.12,0-.09h0l0,.06,0-.06H2.6l0-.09H2.34l0,.07h.08Zm-.12-.21-.82.08h.83Zm68.82-9.53h0Z" fill="#073e51"/></svg>