<svg xmlns="http://www.w3.org/2000/svg" xmlns:xlink="http://www.w3.org/1999/xlink" width="113.86" height="101.52" viewBox="0 0 113.86 101.52"><defs><style>.cls-1{fill:url(#名称未設定グラデーション_4);}.cls-2{fill:#534741;}</style><linearGradient id="名称未設定グラデーション_4" x1="53.73" y1="-3.9" x2="57.72" y2="113.82" gradientUnits="userSpaceOnUse"><stop offset="0" stop-color="#f4dd8c"/><stop offset="0.07" stop-color="#f4dd83"/><stop offset="0.18" stop-color="#f5dc69"/><stop offset="0.33" stop-color="#f6da40"/><stop offset="0.39" stop-color="#f7d92d"/><stop offset="1" stop-color="#f5a028"/></linearGradient></defs><g id="レイヤー_2" data-name="レイヤー 2"><g id="レイヤー_1-2" data-name="レイヤー 1"><path class="cls-1" d="M47.43,5.49,1.49,85.06A11,11,0,0,0,11,101.52h91.88a11,11,0,0,0,9.51-16.46L66.44,5.49A11,11,0,0,0,47.43,5.49Z"/><path class="cls-2" d="M61.64,23.16H52.23a3.15,3.15,0,0,0-3.15,3.39l3.17,42.78a2.66,2.66,0,0,0,2.66,2.47H59a2.66,2.66,0,0,0,2.66-2.47l3.17-42.78A3.16,3.16,0,0,0,61.64,23.16Z"/><path class="cls-2" d="M58.69,81.71H55.17a2.75,2.75,0,0,0-2.74,2.75V88a4.51,4.51,0,0,0,9,0V84.46A2.75,2.75,0,0,0,58.69,81.71Z"/></g></g></svg>