<svg xmlns="http://www.w3.org/2000/svg" width="63.67" height="64.9" viewBox="0 0 63.67 64.9"><path d="M36.58,64.9A3.05,3.05,0,0,1,34.44,64L21.62,51.46a1.07,1.07,0,0,0-.71-.31L3,50.54A3,3,0,0,1,.44,49,3.07,3.07,0,0,1,.32,46.1L8.31,30a1.08,1.08,0,0,0,.07-.77L3.42,12a3.08,3.08,0,0,1,3.4-3.89l17.75,2.63a1.07,1.07,0,0,0,.76-.18L40.2.53a3.07,3.07,0,0,1,4.75,2l3,17.7a1.14,1.14,0,0,0,.4.67L62.49,32A3.07,3.07,0,0,1,62,37.11l-15.9,8.31a1.08,1.08,0,0,0-.52.59L39.48,62.87a3.07,3.07,0,0,1-2.21,1.95A3.25,3.25,0,0,1,36.58,64.9Zm-.74-2.31a1.07,1.07,0,0,0,1.76-.4l6.12-16.87a3.09,3.09,0,0,1,1.47-1.67l15.9-8.31a1.07,1.07,0,0,0,.17-1.8l-14.15-11A3,3,0,0,1,46,20.59L43,2.9a1.07,1.07,0,0,0-1.66-.71l-14.87,10a3.09,3.09,0,0,1-2.17.5L6.53,10.1a1.06,1.06,0,0,0-1,.35,1.09,1.09,0,0,0-.22,1l5,17.24a3.1,3.1,0,0,1-.2,2.22L2.11,47a1.08,1.08,0,0,0,0,1,1.06,1.06,0,0,0,.89.52L21,49.16A3,3,0,0,1,23,50Z" fill="#eddcb9"/></svg>