<svg xmlns="http://www.w3.org/2000/svg" width="63.67" height="64.9"><path d="M36.58 64.9a3.05 3.05 0 01-2.14-.9L21.62 51.46a1.07 1.07 0 00-.71-.31L3 50.54A3 3 0 01.44 49a3.07 3.07 0 01-.12-2.9L8.31 30a1.08 1.08 0 00.07-.77L3.42 12a3.08 3.08 0 013.4-3.89l17.75 2.63a1.07 1.07 0 00.76-.18L40.2.53a3.07 3.07 0 014.75 2l3 17.7a1.14 1.14 0 00.4.67L62.49 32a3.07 3.07 0 01-.49 5.11l-15.9 8.31a1.08 1.08 0 00-.52.59l-6.1 16.86a3.07 3.07 0 01-2.21 1.95 3.25 3.25 0 01-.69.08zm-.74-2.31a1.07 1.07 0 001.76-.4l6.12-16.87a3.09 3.09 0 011.47-1.67l15.9-8.31a1.07 1.07 0 00.17-1.8l-14.15-11A3 3 0 0146 20.59L43 2.9a1.07 1.07 0 00-1.66-.71l-14.87 10a3.09 3.09 0 01-2.17.5L6.53 10.1a1.06 1.06 0 00-1 .35 1.09 1.09 0 00-.22 1l5 17.24a3.1 3.1 0 01-.2 2.22L2.11 47a1.08 1.08 0 000 1 1.06 1.06 0 00.89.52l18 .64a3 3 0 012 .84z" fill="#eddcb9"/></svg>