<svg xmlns="http://www.w3.org/2000/svg" width="40.01" height="40.01" viewBox="0 0 40.01 40.01"><path d="M34,33l-5.19-1a2.21,2.21,0,0,0-2.53,1.5l-1.6,5a2.2,2.2,0,0,1-3.92.56l-2.94-4.41a2.21,2.21,0,0,0-2.85-.73l-4.7,2.44A2.2,2.2,0,0,1,7.05,34l1-5.19a2.21,2.21,0,0,0-1.5-2.53l-5-1.6A2.19,2.19,0,0,1,1,20.71l4.41-2.94a2.21,2.21,0,0,0,.73-2.85l-2.45-4.7A2.2,2.2,0,0,1,6.06,7.05l5.19,1a2.21,2.21,0,0,0,2.53-1.5l1.59-5A2.2,2.2,0,0,1,19.3,1l2.94,4.41a2.21,2.21,0,0,0,2.85.73l4.7-2.45A2.2,2.2,0,0,1,33,6.06l-1,5.19a2.21,2.21,0,0,0,1.5,2.53l5,1.59A2.2,2.2,0,0,1,39,19.3l-4.41,2.94a2.21,2.21,0,0,0-.73,2.85l2.44,4.7A2.2,2.2,0,0,1,34,33Z" fill="#eddcb9"/></svg>