<svg xmlns="http://www.w3.org/2000/svg" width="542.24" height="312.35"><g data-name="レイヤー 2"><path d="M540 190.55c-3.58 59.85-54 113.5-113.51 120.78-44.49 5.45-88.08-12.23-132.09-20.69-43.58-8.38-88.33-7.71-132.71-7.16-33.17.41-67.88.39-97.31-14.9-31.95-16.58-53.29-49.8-60.81-85s-2.44-72.15 8.61-106.4c9-28 23.87-56.69 50.32-69.62C95-8.32 133.37 4.3 168.3 13.75 232.1 31 299.21 36.84 364.77 28.48c22-2.8 43.8-7.18 65.93-7.76s45.05 2.93 63.79 14.73C518.61 50.65 533 78 538.81 105.91s2.86 56.69 1.19 84.64z" fill="#696761" data-name="Layer 2"/></g></svg>