<svg xmlns="http://www.w3.org/2000/svg" width="349.68" height="405.87" viewBox="0 0 349.68 405.87"><defs><style>.cls-1{fill:#696761;}.cls-2{fill:#f0c5c6;}.cls-3{fill:#cccac2;}.cls-4{fill:#363532;}.cls-5{fill:#33322d;}</style></defs><g id="レイヤー_2" data-name="レイヤー 2"><g id="Layer_2" data-name="Layer 2"><path class="cls-1" d="M121.12,122.94A180.65,180.65,0,0,1,142,19.88C147.84,9.2,157.87-2.27,169.73.39c5.55,1.24,14.92,6.41,19,10.41,15,14.82,25.2,28.81,36.51,46.64s18.57,39,16.13,60c-.47,4-1.51,8.41-4.7,10.94-3.49,2.76-8.61,2.47-12.67.66s-7.4-4.88-11-7.55c-21.11-15.81-52.3-16.54-74.13-1.75-3.39,2.3-6.78,5-10.85,5.48S119.18,122.53,121.12,122.94Z"/><path class="cls-2" d="M164.24,4.11c1.81,0,3.14,1.11,4.59,2.18a13.38,13.38,0,0,1,3.37,4.19A162.42,162.42,0,0,1,194.79,82.8c.39,5.85.27,12.29-3.51,16.77-4.12,4.89-11.35,5.85-17.69,5s-12.43-3.24-18.82-3.62c-4.66-.28-9.33.5-14,.21s-9.6-1.92-12.2-5.79-2.25-9-1.59-13.7c4.06-28.45,9.14-42.38,20.73-62.45C152.73,10.52,159.12,4.11,164.24,4.11Z"/><path class="cls-1" d="M316.65,222.46c3.4,17.4,4.7,35-.22,52-8.7,30.11-23.18,58.83-44.27,82s-49,40.6-79.72,46.8C139.66,413.91,85.1,390.76,42.91,357.31,31.12,348,19.85,337.64,11.67,325S-1.44,297.2.38,282.27c2-16.58,11.86-30.95,19.29-45.91,18-36.2,22.88-79,47.42-111.1,21.72-28.44,57.28-44.88,93-46.3s71.33,11.35,100.19,32.51C293.9,136.09,307.4,175.14,316.65,222.46Z"/><path class="cls-1" d="M209.79,79.24l-9.17,3.81a280.36,280.36,0,0,1,55,88.64c2.9,7.52,5.67,15.48,11.5,21,8,7.62,20.48,9.5,27.61,17.94,3.3,3.9,5.33,9.09,9.74,11.67,6,3.48,13.54.74,19.61-2.54s12.65-7.18,19.41-5.77A13.54,13.54,0,0,0,327,210.37l22.72-39.78a47.64,47.64,0,0,0-28.16,12.63A274.27,274.27,0,0,0,292.16,44.87c-2.72-5.35-6.13-11-11.84-12.92-7.83-2.56-15.72,3.2-21.95,8.59C243.24,53.63,230.28,70.73,209.79,79.24Z"/><path class="cls-2" d="M276.28,38.06c2.4-.73,5.05.65,6.53,2.68a16.37,16.37,0,0,1,2.44,7c2.13,12.6,1.91,25.48,1.28,38.24a611.65,611.65,0,0,1-6.41,63.22c-1.62,10.48-3.54,21-7.69,30.77-1.13,2.64-2.87,5.56-5.72,5.9-3.43.41-5.92-3.07-7.55-6.11-13.44-25-25-51.52-43.83-72.8-4.28-4.83-9.26-10.67-7.55-16.89,1.6-5.85,8.16-8.46,13.53-11.29C241.59,68.15,253.93,44.9,276.28,38.06Z"/><path class="cls-3" d="M150.17,214.08c4.06.31,7.65,3.06,9.87,6.48s3.26,7.47,4,11.47a101.57,101.57,0,0,1,.85,33c-.72,5.14-1.86,10.32-4.4,14.85s-6.64,8.38-11.68,9.67c-8,2-16.59-3.06-20.63-10.26s-4.31-15.95-3.14-24.13a76.49,76.49,0,0,1,14.36-34.73C142.15,216.75,146.22,213.77,150.17,214.08Z"/><path class="cls-4" d="M143.71,223c3,.28,5.73,2.7,7.39,5.72a31.69,31.69,0,0,1,3,10.13,105.31,105.31,0,0,1,.63,29.08A42.24,42.24,0,0,1,151.46,281c-1.9,4-5,7.4-8.74,8.53-6,1.8-12.42-2.7-15.45-9.05s-3.23-14.08-2.35-21.3a74.48,74.48,0,0,1,10.75-30.66C137.7,225.34,140.75,222.71,143.71,223Z"/><path class="cls-5" d="M20.17,335.11c4,7.05,12.18,10.83,20.23,11.75s16.14-.54,24.18-1.55,16.41-1.51,24,1.21c4.14,1.48,8,3.9,12.38,4.44s9.59-1.71,10-6.24c-14,4.5-28.69-6.09-43.28-4.5-6.56.71-13,3.89-19.48,2.94-4.39-.65-8.27-3.09-12.41-4.67s-9.21-2.16-12.68.6C24.6,340.2,26.1,341.31,20.17,335.11Z"/></g></g></svg>