<svg xmlns="http://www.w3.org/2000/svg" xmlns:xlink="http://www.w3.org/1999/xlink" width="428.7" height="439.98"><defs><linearGradient id="名称未設定グラデーション_190" x1="65.78" y1="274.17" x2="72.56" y2="343.21" gradientTransform="rotate(48.06 56.653 372.566)" gradientUnits="userSpaceOnUse"><stop offset="0" stop-color="#72a5c4"/><stop offset=".34" stop-color="#85baca"/><stop offset=".74" stop-color="#a1d7d2"/><stop offset="1" stop-color="#c6e6e2"/></linearGradient><linearGradient id="名称未設定グラデーション_223" x1="-9.02" y1="327.43" x2="-36.76" y2="325.58" gradientTransform="rotate(48.06 56.653 372.566)" gradientUnits="userSpaceOnUse"><stop offset="0" stop-color="#8ec2cf"/><stop offset=".23" stop-color="#a8d1d9"/><stop offset=".54" stop-color="#c5e2e5"/><stop offset=".81" stop-color="#d7ecec"/><stop offset="1" stop-color="#ddf0ee"/></linearGradient><linearGradient id="名称未設定グラデーション_223-2" x1="128.87" y1="348.55" x2="101.81" y2="346.74" xlink:href="#名称未設定グラデーション_223"/><linearGradient id="名称未設定グラデーション_2916" x1="684.89" y1="377.4" x2="671.2" y2="376.48" gradientTransform="rotate(93.06 404.578 143.53)" gradientUnits="userSpaceOnUse"><stop offset="0" stop-color="#688494"/><stop offset=".57" stop-color="#75989e"/><stop offset="1" stop-color="#81aba8"/></linearGradient><style>.cls-1{fill:#696761}.cls-2{fill:#f0c5c6}.cls-3{fill:#33322d}.cls-8{fill:#d99c8d}</style></defs><g id="レイヤー_2" data-name="レイヤー 2"><g id="Layer_2" data-name="Layer 2"><path class="cls-1" d="M200.13 122.94a180.65 180.65 0 0120.92-103.06c5.8-10.68 15.83-22.15 27.7-19.49 5.55 1.24 14.91 6.41 19 10.41 15 14.82 25.2 28.81 36.5 46.64s18.58 39 16.13 60c-.47 4-1.5 8.41-4.7 10.94-3.48 2.76-8.6 2.47-12.66.66s-7.4-4.88-11-7.55c-21.11-15.81-52.3-16.54-74.14-1.75-3.39 2.3-6.78 5-10.85 5.48s-8.83-2.69-6.9-2.28z"/><path class="cls-2" d="M243.26 4.11c1.81 0 3.13 1.11 4.59 2.18a13.66 13.66 0 013.37 4.19 162.42 162.42 0 0122.59 72.32c.39 5.85.26 12.29-3.51 16.77-4.12 4.89-11.35 5.85-17.69 5s-12.44-3.24-18.82-3.62c-4.66-.28-9.33.5-14 .21s-9.59-1.92-12.19-5.79-2.25-9-1.59-13.7c4.06-28.45 9.14-42.38 20.73-62.45 5.01-8.7 11.4-15.11 16.52-15.11z"/><path class="cls-1" d="M395.67 222.46c3.4 17.4 4.69 35-.23 52-8.7 30.11-23.17 58.83-44.26 82s-49 40.6-79.72 46.8c-52.78 10.66-107.34-12.49-149.54-45.94-11.78-9.34-23-19.67-31.23-32.29s-13.12-27.82-11.3-42.75c2-16.58 11.87-30.95 19.29-45.91 18-36.2 22.89-79 47.42-111.1 21.72-28.44 57.29-44.88 93.05-46.3s71.33 11.35 100.19 32.51c33.57 24.61 47.08 63.66 56.33 110.98z"/><path class="cls-1" d="M288.8 79.24l-9.16 3.81a280.54 280.54 0 0155 88.64c2.9 7.52 5.66 15.48 11.5 21 8 7.62 20.48 9.5 27.61 17.94 3.29 3.9 5.33 9.09 9.74 11.67 6 3.48 13.53.74 19.61-2.54s12.65-7.18 19.41-5.77a13.54 13.54 0 00-16.51-3.62l22.72-39.78a47.62 47.62 0 00-28.16 12.63 274.38 274.38 0 00-29.38-138.35c-2.73-5.35-6.14-11-11.84-12.92-7.83-2.56-15.72 3.2-21.95 8.59-15.13 13.09-28.09 30.19-48.59 38.7z"/><path class="cls-2" d="M355.3 38.06c2.4-.73 5.05.65 6.53 2.68a16.35 16.35 0 012.43 7c2.14 12.6 1.92 25.48 1.29 38.24a608.92 608.92 0 01-6.42 63.22c-1.62 10.48-3.54 21-7.69 30.77-1.12 2.64-2.86 5.56-5.72 5.9-3.43.41-5.91-3.07-7.55-6.11-13.43-25-25-51.52-43.83-72.8-4.27-4.83-9.25-10.67-7.55-16.89 1.61-5.85 8.17-8.46 13.54-11.29C320.61 68.15 333 44.9 355.3 38.06z"/><path class="cls-3" d="M99.18 335.11c4 7.05 12.19 10.83 20.23 11.75s16.15-.54 24.18-1.55 16.41-1.51 24 1.21c4.14 1.48 8 3.9 12.37 4.44s9.6-1.71 10-6.24c-14 4.5-28.69-6.09-43.28-4.5-6.57.71-12.95 3.89-19.49 2.94-4.38-.65-8.26-3.09-12.41-4.67s-9.21-2.16-12.68.6c1.52 1.11 3.02 2.22-2.92-3.98zM274.77 275.61l-42.33-14.51 42.33-11.45v-11.2c-2.62 0-69.23 22.91-69.23 22.91l69.23 22.4"/><path d="M163.4 437.5c2.53-2.28 6.86-1.59 9.66 1.53a2.69 2.69 0 003 .76 9.61 9.61 0 002.87-1.72c12.08-10.86-4.21-63.08-31.66-92-39.13-41.23-83-50.34-90.33-61.1-5.46-8 9.76-70-20.16-23-3.39 5.32-3.94 9.17-6.09 11.1s-6 2.07-11.68 4.87c-49.9 24.73 13.38 16.22 20.72 22.51 9.91 8.47 14.29 53 51.1 96.32 18.16 21.36 48.34 38.46 68.87 43a2.61 2.61 0 002.77-1.14 4.9 4.9 0 01.93-1.13z" fill="url(#名称未設定グラデーション_190)"/><path d="M57 285c-5.47-8 9.75-70-20.17-23-3.39 5.32-3.94 9.17-6.09 11.1s-6 2.07-11.68 4.87c-49.23 24.4 11.69 16.45 20.39 22.26a28.1 28.1 0 015.65-7 29.42 29.42 0 0113.16-6.7A9.83 9.83 0 0157 285z" fill="url(#名称未設定グラデーション_223)"/><path d="M132 404.35a2.17 2.17 0 00.31-1.59c-3.22-17.94-2.52-39.56-34.24-17.18-32.21 22.72 17.67 23.75 24.26 23.78 5.96.03 8.5-3.22 9.67-5.01z" fill="url(#名称未設定グラデーション_223-2)"/><path d="M157.83 410.93l.32-6a1 1 0 011-.95l6 .33a1 1 0 001-.95v-.47a1 1 0 00-.94-1l-6-.32a1 1 0 01-.94-1l.32-6a1 1 0 00-1-1.05h-.47a1 1 0 00-1 .94l-.32 6a1 1 0 01-1 .94l-6-.32a1 1 0 00-1 .94v.48a1 1 0 00.95 1.05l6 .32a1 1 0 01.94 1.05l-.32 6a1 1 0 00.94 1h.48a1 1 0 001.04-.99z" fill="url(#名称未設定グラデーション_2916)"/><path class="cls-8" d="M295.75 310.41c1-2.33-1.53-4.66-3.75-4.13s-3.88 2.7-5.35 4.72l-17.35 23.9c-1.32 1.81-2.7 4.35-1.6 6.13a2.81 2.81 0 003.42.89 9.73 9.73 0 003.25-2.45c8.32-8.47 16.63-17.81 21.38-29.06zM304.66 326.86c-3.15 9.16-11.41 19.83-22.18 28.18-1.66 1.28-4.21 2.35-5.26.61-.87-1.46.23-3.46 1.28-4.91l19.6-27c1.23-1.69 2.57-3.47 4.41-4.12s4.54.28 2.15 7.24z"/></g></g></svg>