<svg xmlns="http://www.w3.org/2000/svg" xmlns:xlink="http://www.w3.org/1999/xlink" width="38.83" height="62" viewBox="0 0 38.83 62"><defs><style>.cls-1{fill:#dfac84;}.cls-2{fill:#f0c98b;}.cls-3{fill:url(#名称未設定グラデーション_61);}</style><linearGradient id="名称未設定グラデーション_61" x1="33.76" y1="-11.08" x2="17.8" y2="65.74" gradientUnits="userSpaceOnUse"><stop offset="0.16" stop-color="#f0c98b"/><stop offset="0.83" stop-color="#df8f67"/></linearGradient></defs><g id="レイヤー_2" data-name="レイヤー 2"><g id="レイヤー_1-2" data-name="レイヤー 1"><path class="cls-1" d="M37.42,31c-3.72-16.71-8.06-31-18-31S5.13,14.29,1.42,31c-4,18,0,31,18,31S41.42,49,37.42,31Z"/><path class="cls-2" d="M19.42,0C9.48,0,5.13,14.29,1.42,31-.8,41-.55,49.4,3.16,54.94c4-17.08,15.36-36,25.58-49.19C26.28,2.15,23.27,0,19.42,0Z"/><path class="cls-3" d="M28.74,5.75C18.52,18.92,7.19,37.86,3.16,54.94c3,4.47,8.23,7.06,16.26,7.06,18,0,22-13,18-31C35.14,20.76,32.63,11.44,28.74,5.75Z"/></g></g></svg>