<svg xmlns="http://www.w3.org/2000/svg" width="90.42" height="299.29" viewBox="0 0 90.42 299.29"><defs><style>.cls-1{fill:#696761;}</style></defs><g id="レイヤー_2" data-name="レイヤー 2"><g id="Layer_2" data-name="Layer 2"><path class="cls-1" d="M44.22.11C55-1,64.87,6.41,71.56,14.91,90,38.32,92.41,70.59,89.25,100.21s-11.09,58.87-10.46,88.65c.39,18,3.93,36,3.4,54S76.26,280,62.34,291.51c-7.82,6.45-18.88,10-28.29,6.24s-15-14-16.49-24,.14-20.27.91-30.41C21.09,209,13.4,174.87,7.16,141s-11-69-2.73-102.38C6.87,28.81,10.57,19,17.26,11.4S34,1.15,44.22.11Z"/></g></g></svg>