<svg xmlns="http://www.w3.org/2000/svg" width="104.93" height="327.15" viewBox="0 0 104.93 327.15"><defs><style>.cls-1{fill:#696761;}</style></defs><g id="レイヤー_2" data-name="レイヤー 2"><g id="Layer_2" data-name="Layer 2"><path class="cls-1" d="M51.46.09C61.3-.7,71,3.94,78.09,10.85S89.81,26.74,93.4,35.94c15.1,38.68,12.67,81.79,7.83,123-6.38,54.47-17.51,110.67-50.42,154.54-3.09,4.13-6.46,8.2-10.86,10.88S29.88,328.16,25.18,326c-8.85-4-9.76-16-9-25.65a772.15,772.15,0,0,0-5.5-122.93C3.63,137-3.41,95.84,1.81,55.12c1.75-13.59,5.07-27.48,13.4-38.35S37.91,1.18,51.46.09Z"/></g></g></svg>