<svg xmlns="http://www.w3.org/2000/svg" width="112.71" height="115.43" viewBox="0 0 112.71 115.43"><path d="M112.21,57.68c0,6.07,1.37,12.23-.41,17.71a58.26,58.26,0,0,1-8.11,16c-3.47,4.77-7.36,10-12.13,13.45s-11.7,3-17.37,4.83c-5.48,1.78-10.83,5.76-16.9,5.76s-11-5.23-16.48-7c-5.68-1.84-12.76-.55-17.48-4s-5.48-10.8-8.95-15.57-11.18-7.33-13-13C-.42,70.38.06,63.75.06,57.68s-.1-12.57,1.68-18c1.84-5.68,8-9.25,11.47-14s6-10.4,10.74-13.87,9.56-8,15.23-9.85C44.66.16,51.23,0,57.29,0s12.54.46,18,2.24a60.39,60.39,0,0,1,16.2,8.35c4.77,3.48,10.25,7.49,13.72,12.26s3.76,11.76,5.6,17.43C112.61,45.76,112.21,51.61,112.21,57.68Z" fill="#e4cdb3"/></svg>