<svg xmlns="http://www.w3.org/2000/svg" width="223.87" height="221.4" viewBox="0 0 223.87 221.4"><path d="M216,82.05c-2.53-3.91-4.91-7.6-6.15-11.4-3.75-11.56-7.83-19.9-13.63-27.87-6-8.19-12.13-16.66-21.11-23.2-8.49-6.18-17.8-9.2-27.65-12.39l-1-.33c-1.19-.38-2.38-.78-3.55-1.17C134.11,2.77,125.77,0,115.83,0c-11.23,0-21,2.88-30.9,6.08A69.9,69.9,0,0,1,72.47,8.42c-7,.87-14.24,1.78-19.81,5.84C45.7,19.32,40.56,26.8,35.59,34c-1.41,2-2.74,4-4.12,5.88-2.1,2.88-4.2,5.83-6.21,8.86-1.29.95-2.61,1.89-4,2.85C13.58,57.1,5.61,62.77,2,71.45-1.42,79.71.24,89.14,1.86,98.26a91.44,91.44,0,0,1,1.82,15.25,95.36,95.36,0,0,0,7.67,38.18c1.05,2.51,2,5.09,3,7.58,3.78,9.84,7.69,20,15.55,27.88A103.69,103.69,0,0,0,63.8,209.44c2,.81,3.94,1.67,6,2.55,10.66,4.62,21.69,9.41,33.78,9.41,15.19,0,30-2.66,41.59-7.49,10.11-4.19,20.64-11.68,32.11-22.84a17.18,17.18,0,0,0,2.74-1.6c7.36-5.35,13-13.39,18.54-21.18,1.11-1.57,2.21-3.12,3.29-4.62,5.06-6.95,11.89-17.7,15.7-29.43,2.73-8.41,6.37-21,6.37-33C223.87,94.17,219.88,88,216,82.05ZM175.64,185.61c-1.45,1.45-2.87,2.83-4.29,4.16a65.19,65.19,0,0,1-11.08.66c-5.11,0-10.38,0-15,1.52l-.21.07c-10,3.24-18.58,6-29.28,6h-1.09c-10.3,0-20,0-29.39-3a96.73,96.73,0,0,1-27.52-14l-.87-.63c-8.47-6.16-16.47-12-22.42-20.15A103,103,0,0,0,27,151.44c-5-5.38-10.14-10.94-12.23-17.39-2.87-8.83-4.45-20.49-4.45-32.84,0-8.9,3.07-17.89,6-26.58.6-1.77,1.19-3.5,1.74-5.19a69.45,69.45,0,0,1,6.59-14.07,91,91,0,0,0,11.54-9.21l2.23-2.24c8.48-8.54,16.5-16.6,27.52-21.17a96.27,96.27,0,0,1,37.59-7.1c3.48,0,7-.15,10.46-.3s7-.3,10.31-.3c6.73,0,13.07.6,18.79,3,10.33,4.28,25.2,11.12,35,20.92,5.23,5.23,6.63,13.47,8.12,22.21,1,5.59,1.94,11.38,4,16.44A120.81,120.81,0,0,0,196,89c4.41,8,8.57,15.64,8.57,24.49,0,9.32-4.29,17.79-8.43,26-1.7,3.35-3.46,6.83-4.91,10.33-1.66,4-3,8.25-4.22,12.34C184.26,171.13,181.67,179.59,175.64,185.61ZM6.62,73.37c2.31-5.55,7.07-9.9,12.34-13.88a65.57,65.57,0,0,0-3.76,9c-.54,1.68-1.13,3.4-1.72,5.15-2.82,8.28-6,17.63-6.17,26.78-.17-1-.35-2-.53-3C5.22,88.59,3.76,80.28,6.62,73.37ZM143.21,209.29c-11.05,4.58-25.14,7.11-39.68,7.11-11,0-21.59-4.58-31.79-9-2-.88-4-1.76-6-2.58a98.6,98.6,0,0,1-32.28-21.21C26.32,176.5,22.77,167.26,19,157.48c-1-2.52-2-5.13-3-7.71a91.3,91.3,0,0,1-6.7-25.41A81.66,81.66,0,0,0,11.89,135c2.29,7.07,7.67,12.88,12.87,18.5A96.84,96.84,0,0,1,32.11,162c6.23,8.56,14.8,14.79,23.08,20.82l.87.63a100,100,0,0,0,28.37,14.39c9.5,3.08,19.11,3.18,29.25,3.18h2.15c11.18,0,20.42-3,30.21-6.18l.21-.07c4.12-1.33,9.16-1.35,14-1.37,2.42,0,4.87,0,7.26-.19C158.93,200.81,150.91,206.1,143.21,209.29Zm71.44-76c-3.69,11.36-10.34,21.82-15.27,28.59-1.1,1.51-2.2,3.08-3.32,4.66a148.78,148.78,0,0,1-10.51,13.72c2.73-5.21,4.5-11,6.24-16.64,1.22-4,2.49-8.11,4.06-11.9,1.38-3.32,3-6.56,4.75-10,4.41-8.71,9-17.73,9-28.24,0-10.13-4.67-18.65-9.19-26.9a115.43,115.43,0,0,1-5.5-10.94c-1.88-4.54-2.82-10-3.73-15.36-1.56-9.12-3.16-18.55-9.51-24.9C171.2,25,155.73,17.85,145,13.4c-9.57-4-20.58-3.5-31.22-3-3.38.14-6.88.29-10.25.29A101.27,101.27,0,0,0,64,18.13c-12,5-20.31,13.36-29.16,22.26l-.23.24c1.15-1.61,2.3-3.27,3.42-4.9,4.83-7,9.82-14.28,16.37-19,4.94-3.6,11.49-4.42,18.41-5.29a71.7,71.7,0,0,0,13-2.45C95.86,5.69,105,3,115.83,3,125.28,3,133.4,5.69,142,8.54l3.57,1.18,1,.32c10,3.26,18.7,6.07,26.8,12,8.6,6.26,14.36,14.17,20.46,22.55,5.6,7.7,9.55,15.78,13.2,27,1.36,4.18,4,8.21,6.48,12.11,3.62,5.59,7.36,11.37,7.36,17.53C220.87,112.82,217.32,125.09,214.65,133.31Z" fill="#e4cdb3"/></svg>