<svg xmlns="http://www.w3.org/2000/svg" width="209.03" height="209.8"><path d="M209 108.05c0-11.1-.44-22.71-3.57-32.37-2-6.24-5.77-12.15-9.68-17.61-3-7.67-6.49-15.17-12.15-20.82A27.73 27.73 0 00173.42 31a83.32 83.32 0 00-6.66-5.55 21.82 21.82 0 00-4.91-5.06 31.68 31.68 0 00-9.71-4.57 78.46 78.46 0 00-14.26-6.47A57.7 57.7 0 00122.52 7l-1-.51C115.32 3.28 108.91 0 101.83 0 90.75 0 79.51 3.65 70.49 6.58a102.23 102.23 0 00-28.22 14.49c-6 4.39-10.05 10.82-13.94 17-1.64 2.62-3.33 5.33-5.13 7.8-2.2 3.13-5.39 5.92-8.7 8.86-5.23 4.62-10.64 9.41-12.72 15.81C-.52 77.64-.08 85.91.34 93.9c.16 3 .33 6.19.33 9.15 0 10.11 3.1 19.6 6.1 28.78l.62 1.9c3.51 10.84 6.91 20.47 12.83 28.61a27.91 27.91 0 006.43 6.18c5.27 6.5 12 11.38 18.61 16.1L48.5 187c9.74 7.09 18.06 11.54 27 14.44 2.51.82 5 1.78 7.65 2.79 7.18 2.76 14.6 5.62 22.68 5.62 10.38 0 20.58-3.32 29.58-6.25l1.31-.43a25.15 25.15 0 005.07-2.32 32.1 32.1 0 009.26-2.2c11.85-4.92 22.12-14.25 30.6-22.73 8.19-8.19 18.37-18.37 23.34-30.35 2.87-6.92 1.7-14.62.26-22.15 2.09-4.92 3.75-9.97 3.75-15.37zm-5.58 5a44.21 44.21 0 01-.4-5.55c0-3.3.19-6.61.36-9.8.07-1.3.14-2.59.2-3.87.34 4.66.42 9.46.42 14.17a24.07 24.07 0 01-.55 5.1zM167.88 174l-.29.16a131.65 131.65 0 0011.94-14.67 62.57 62.57 0 018.2-8.61c.7-.65 1.41-1.31 2.11-2a62.59 62.59 0 01-7.62 14.63c-3.46 4.79-8.75 7.57-14.34 10.49zm-27.72 21.92a90.3 90.3 0 01-14.26-.53l3.65-1.18 1.72-.56 3-1a130.27 130.27 0 0016-5.91l-1 1a57.1 57.1 0 01-9.11 8.19zm58.13-69.35a90.67 90.67 0 00-4.29 10.14l-.15.48q-.81 2.51-1.63 4.95a88.14 88.14 0 01-6.56 6.55 66.44 66.44 0 00-8.59 9c-5.74 7.9-11.59 15.49-19.9 21.54-7.19 5.23-15.28 7.82-23.85 10.57l-3 1-1.72.57c-3.76 1.22-7.43 2.42-11.17 3.39-1.37-.07-2.75-.12-4.12-.12-2.11 0-4.21 0-6.3.06-10.2.15-19.84.3-28.45-3.27l-2.2-.91c-10.71-4.42-21.79-9-29.41-16.61-7-7-13.25-17.19-19-31-5.22-12.61-8-24.84-8-35.35a96.71 96.71 0 017.25-35.69c5.93-14.32 12.15-24.61 19-31.46 6.14-6.13 15.39-9.56 24.34-12.88 2.77-1 5.63-2.08 8.32-3.2a89.51 89.51 0 0134.47-6.66c8.86 0 16.45 3.6 24.47 7.41 2.65 1.25 5.39 2.55 8.15 3.7a81.2 81.2 0 0014 3.86c2.93.62 5.8 1.24 8.5 2 .48 1.06 1 2.14 1.43 3.23a59.64 59.64 0 006 11.43 59.32 59.32 0 009 9.09c3.78 3.31 7.39 6.48 9.69 10.31.58 1.52 1.17 3 1.78 4.49.26.63.49 1.26.7 1.9a68.14 68.14 0 011.8 13c0 3.06-.16 6.2-.33 9.4s-.37 6.64-.37 10.08a61.45 61.45 0 001.15 10.76c0 2.38-.11 4.74-.34 7zM126.57 12.25a43.89 43.89 0 004.23 1.64 95.14 95.14 0 0010.91 2.62l1.25.25a114.85 114.85 0 0118.58 11.12l-.6-.13a77.22 77.22 0 01-13.07-3.59c-2.65-1.1-5.33-2.37-7.92-3.6-8.18-3.88-16.63-7.89-26.62-7.89a99.14 99.14 0 00-16.65 1.41 22.7 22.7 0 019.15-2.18h10c3.65-.07 7.26.01 10.74.35zM191 59.92c-1.36-1.29-2.78-2.54-4.19-3.78a54.89 54.89 0 01-8.53-8.6 53.17 53.17 0 01-5.27-10A117.7 117.7 0 01184.33 51c1 1.44 2.14 2.89 3.25 4.38s2.26 3.02 3.42 4.54zM15.5 98.17c-.36-1.38-.74-2.75-1.12-4.1-1.67-5.92-3.25-11.51-1.7-16.29C15.1 70.32 20.24 63.56 25.2 57c1.25-1.64 2.49-3.27 3.66-4.88C35.07 43.6 41.28 35.48 49 29.85c3.22-2.35 7.25-3.29 11.63-3.88-6.68 2.73-13.06 6-18 10.91C35.34 44.2 28.77 55 22.58 70a103.1 103.1 0 00-7.08 28.17zm13.72 65.53c-3.41-4.67-4.4-10.55-5.44-16.77l-.33-1.93c4.65 11.17 9.65 20.07 15.17 27l-.86-.46-2.95-1.54a46.62 46.62 0 01-5.59-6.3zm-19-30.89l-.62-1.91c-2.93-9-5.95-18.22-5.95-27.85 0-3-.17-6.22-.33-9.31C2.93 86 2.5 78 4.64 71.47 6.46 65.84 11.56 61.33 16.48 57a62.08 62.08 0 009.15-9.28c1.86-2.56 3.58-5.32 5.25-8 3.73-6 7.6-12.17 13.16-16.21A99.32 99.32 0 0171.41 9.43C80.24 6.57 91.22 3 101.83 3c4.72 0 9.29 1.72 13.74 3.83H105.83c-7.13 0-13.18 3.4-19 6.68a58.68 58.68 0 01-10.08 4.87 58.48 58.48 0 01-11.76 2c-6.59.68-13.41 1.37-18.89 5.35-8.32 6.06-14.8 14.52-21.25 23.39-1.16 1.58-2.37 3.18-3.6 4.8C16 60.87 10.61 68 7.93 76.24c-2 6.21-.16 12.81 1.64 19.19C10.76 99.65 12 104 12 108.05a89 89 0 004.53 29 74.75 74.75 0 012.33 10.69 80.3 80.3 0 002.27 10.55c-4.75-7.29-7.78-15.9-10.89-25.48zm74.7 66.71c-2.59-1-5.26-2-7.9-2.88a78.59 78.59 0 01-16.24-7.5c4.56 2.23 9.24 4.17 13.68 6l2.19.91c6.35 2.63 13 3.44 19.82 3.65 1.74.15 3.51.24 5.34.24s3.48-.09 5.15-.24h.13c2.06 0 4.14-.06 6.22-.06 3.79 0 7.77.35 11.61.7l3.23.28c-7.28 2.26-14.75 4.18-22.34 4.18-7.13 0-14.11-2.69-20.87-5.28zm67.92-8.22a65.18 65.18 0 018.07-7.41 75 75 0 019.28-5.45c1.21-.64 2.43-1.28 3.64-1.95-6.7 6.38-14.36 12.71-22.78 16.63.62-.6 1.22-1.21 1.81-1.82zm47.51-47.7a60.71 60.71 0 01-9.17 14.67c3.12-6.26 5.3-13 7.43-19.54l.16-.48c.16-.5.36-1 .54-1.52s.44-1.06.62-1.61c.48-1.18 1-2.36 1.55-3.57.52 4.34.4 8.45-1.11 12.05z" fill="#e4cdb3"/></svg>