<svg xmlns="http://www.w3.org/2000/svg" width="180.53" height="181.03" viewBox="0 0 180.53 181.03"><path d="M179.33,103.27a92.81,92.81,0,0,1-1.17-12.34V89.79c0-11.61,0-22.58-4.29-33-4.22-10.15-11.78-17.65-19.09-24.91l-2.12-2.11c-7-7-15.79-14.86-27.63-19.77-1.7-.7-3.4-1.44-5.12-2.19C111,4,101.87,0,91.52,0,78.7,0,66.45,5.08,57.5,8.79,54.68,10,51.71,11,48.57,12.08c-8.55,3-17.4,6-23.64,12.26C19.3,30,16.57,37.82,14.09,45.58c-.09.16-.2.31-.29.47A35.68,35.68,0,0,0,9.62,58.34C9.07,59.65,8.51,61,7.94,62.27,4,71.26,0,80.56,0,90.93,0,102.82,0,116.29,4.44,127c3.05,7.35,10,11.84,16.71,16.18,3.9,2.52,7.57,4.89,10.4,7.72l2.57,2.59c7.19,7.27,14,14.14,23.92,18.27l2.54,1.06c9.65,4,19.62,8.21,30.94,8.21,12.74,0,25-.36,35.39-4.66,7.9-3.27,13.39-10,18.69-16.4,2.35-2.87,4.57-5.57,7-8A80.56,80.56,0,0,1,162,144.4c6.63-4.84,13.49-9.84,16.62-17.39C181.63,119.71,180.46,111.35,179.33,103.27ZM169.25,58.74c2.61,6.31,3.48,13.08,3.77,20.18a80.32,80.32,0,0,0-10.38-29,76.8,76.8,0,0,0-6.45-9.46C161.54,46,166.3,51.63,169.25,58.74ZM130.9,159.16c-11.55,6.68-24.1,8.05-39.38,8.05-16.23,0-28.52-1.29-39.59-7.69-10.57-6.12-18.75-15.07-27.35-29.94-6.86-11.86-10.06-24.14-10.06-38.65,0-3.61-.18-7.31-.35-10.9-.34-7.11-.66-14,.27-20.24l.28-.67c1.38-3.32,2.53-6.93,3.63-10.42l.32-1c5.65-9,16.08-14.64,26.19-20.09,2.55-1.37,5.18-2.78,7.66-4.22l2.87-1.67C66.63,15.15,78.25,8.37,91.52,8.37c11.65,0,21.74,6.21,31.49,12.23,2.21,1.36,4.5,2.77,6.75,4.08,13,7.53,21.82,16.07,28.55,27.7a74.14,74.14,0,0,1,10.57,38.55c0,12.9-3.41,24.29-11.39,38.08S142.35,152.53,130.9,159.16ZM142.82,27.38a97.15,97.15,0,0,0-10.55-7c-2.2-1.27-4.45-2.66-6.64-4l-3.3-2,.78.33A70.92,70.92,0,0,1,142.82,27.38Zm-114.36.5c5.43-5.43,13.73-8.3,21.75-11.08,3.07-1.06,6.24-2.16,9.2-3.39L61,12.77c-2.73,1.5-5.42,3.07-8.09,4.62L50,19.05c-2.42,1.4-4.9,2.74-7.53,4.15-6.6,3.56-13.33,7.19-19,11.83A27.61,27.61,0,0,1,28.46,27.88ZM9.06,125.09C5,115.29,5,102.35,5,90.93,5,84.75,6.68,78.8,8.89,73c.06,2.42.17,4.85.29,7.26.17,3.53.34,7.17.34,10.66,0,15.42,3.41,28.5,10.73,41.15,1.4,2.42,3,5,4.69,7.6l-1.07-.7C17.52,134.88,11.51,131,9.06,125.09ZM125,171.75c-9.53,4-20.8,4.28-33.48,4.28-8.17,0-15.83-2.5-23.23-5.45a127.67,127.67,0,0,0,23.23,1.63c16.09,0,29.37-1.48,41.89-8.72a56.17,56.17,0,0,0,6.38-4.33C135.33,164.5,130.89,169.31,125,171.75Zm49-46.66c-2.59,6.26-8.87,10.84-15,15.27-1.8,1.32-3.64,2.67-5.41,4.07,3.09-4.29,5.75-8.7,8.19-12.91,7.06-12.21,10.73-22.69,11.75-33.88.23,2.12.52,4.24.81,6.32C175.47,111.72,176.49,119.06,174,125.09Z" fill="#e4cdb3"/></svg>