<svg xmlns="http://www.w3.org/2000/svg" width="71" height="62.45" viewBox="0 0 71 62.45"><path d="M59.25,24.87c-3.12-.52-6.74-.92-10.66-1.2,1.72-3.54,3.18-6.87,4.29-9.83C55.81,6,55.92,2,53.25.48s-6.07.56-11.38,7c-2,2.43-4.17,5.37-6.37,8.63-2.2-3.26-4.36-6.2-6.37-8.63C23.82,1,20.42-1.06,17.75.48S15.19,6,18.12,13.84c1.11,3,2.57,6.29,4.29,9.83-3.92.28-7.54.68-10.66,1.2C3.52,26.25,0,28.15,0,31.23s3.52,5,11.75,6.35c3.12.52,6.74.93,10.66,1.2-1.72,3.54-3.18,6.88-4.29,9.83-2.93,7.83-3,11.82-.37,13.36a3.46,3.46,0,0,0,1.77.48c2.39,0,5.4-2.37,9.61-7.48,2-2.44,4.17-5.37,6.37-8.63,2.2,3.26,4.36,6.19,6.37,8.63,4.21,5.11,7.22,7.48,9.61,7.48A3.46,3.46,0,0,0,53.25,62c2.67-1.54,2.56-5.53-.37-13.36-1.11-3-2.57-6.29-4.29-9.83,3.92-.27,7.54-.68,10.66-1.2C67.48,36.21,71,34.31,71,31.23S67.48,26.25,59.25,24.87ZM50,6.06c-.57,3-2.64,8.93-6.87,17.32-1,0-2-.07-3.08-.09-.53-.89-1.07-1.76-1.62-2.62C43.61,12.81,47.73,8.05,50,6.06ZM38.1,32.73l-.88,1.49H33.78l-.88-1.49-.85-1.5.85-1.5c.3-.51.58-1,.88-1.49h3.44c.3.49.58,1,.88,1.49l.85,1.5ZM21,6.06c2.3,2,6.42,6.75,11.57,14.61-.55.86-1.09,1.73-1.62,2.62-1,0-2.07.05-3.08.09C23.61,15,21.54,9.05,21,6.06ZM6.44,31.23c2.87-1,9.05-2.18,18.43-2.72.48.9,1,1.81,1.46,2.72-.5.91-1,1.81-1.46,2.71C15.49,33.41,9.31,32.23,6.44,31.23ZM21,56.4c.57-3,2.64-8.94,6.87-17.33,1,0,2,.08,3.08.1.53.89,1.07,1.76,1.62,2.62C27.39,49.64,23.27,54.41,21,56.4ZM50,56.4c-2.3-2-6.42-6.76-11.57-14.61.55-.86,1.09-1.73,1.62-2.62,1,0,2.07-.06,3.08-.1C47.39,47.46,49.46,53.41,50,56.4Zm-3.9-22.46c-.48-.9-1-1.8-1.46-2.71.5-.91,1-1.82,1.46-2.72,9.38.54,15.56,1.71,18.43,2.72C61.69,32.23,55.51,33.41,46.13,33.94Z" fill="#598d9a"/></svg>