<svg xmlns="http://www.w3.org/2000/svg" xmlns:xlink="http://www.w3.org/1999/xlink" width="583" height="583" viewBox="0 0 583 583"><defs><radialGradient id="a" cx="501.25" cy="591.42" r="785.5" gradientUnits="userSpaceOnUse"><stop offset="0" stop-color="#b19e74"/><stop offset="0.17" stop-color="#b6a57d"/><stop offset="0.46" stop-color="#c5b897"/><stop offset="0.67" stop-color="#d2caae"/><stop offset="0.68" stop-color="#ded6bf"/><stop offset="0.68" stop-color="#efe7d6"/><stop offset="1" stop-color="#f1e3bd"/></radialGradient><linearGradient id="b" x1="170.91" y1="99.71" x2="134.51" y2="223.74" gradientUnits="userSpaceOnUse"><stop offset="0" stop-color="#d1ab54"/><stop offset="0.14" stop-color="#d2af5d"/><stop offset="0.38" stop-color="#d4b977"/><stop offset="0.69" stop-color="#d6c9a0"/><stop offset="1" stop-color="#dadcd1"/></linearGradient><linearGradient id="c" x1="476.75" y1="316.18" x2="369" y2="-13.03" gradientUnits="userSpaceOnUse"><stop offset="0" stop-color="#f2e2b4"/><stop offset="0.33" stop-color="#ead59f"/><stop offset="1" stop-color="#d6b46b"/></linearGradient><linearGradient id="d" x1="390.19" y1="223.52" x2="422.12" y2="524.81" gradientUnits="userSpaceOnUse"><stop offset="0.12" stop-color="#b1ad7d"/><stop offset="0.39" stop-color="#c1bc94"/><stop offset="0.94" stop-color="#ebe3d0"/><stop offset="1" stop-color="#efe7d6"/></linearGradient><linearGradient id="e" x1="136.14" y1="182.85" x2="120.18" y2="506.08" gradientUnits="userSpaceOnUse"><stop offset="0.12" stop-color="#b1ad7d"/><stop offset="0.47" stop-color="#c8c091"/><stop offset="1" stop-color="#f2e2b4"/></linearGradient></defs><path d="M547.18,151.42C503.79,72.39,424.83,15.67,331.85,2.79A295.07,295.07,0,0,0,291.5,0C130.51,0,0,130.51,0,291.5A291.32,291.32,0,0,0,291.5,583c161,0,291.5-130.51,291.5-291.5A290.12,290.12,0,0,0,547.18,151.42Z" fill="url(#a)"/><circle cx="145" cy="188" r="50" fill="url(#b)"/><path d="M289,101a134,134,0,0,0,258.18,50.42C503.79,72.39,424.83,15.67,331.85,2.79A133.6,133.6,0,0,0,289,101Z" fill="url(#c)"/><circle cx="409" cy="401" r="99" fill="url(#d)"/><path d="M225,457A108,108,0,0,0,22.67,404.38,292.56,292.56,0,0,0,164.57,554,108,108,0,0,0,225,457Z" fill="url(#e)"/></svg>