<svg xmlns="http://www.w3.org/2000/svg" xmlns:xlink="http://www.w3.org/1999/xlink" width="583" height="583" viewBox="0 0 583 583"><defs><linearGradient id="a" x1="216.55" y1="36.68" x2="368.18" y2="635.26" gradientUnits="userSpaceOnUse"><stop offset="0" stop-color="#eff4d1"/><stop offset="0.08" stop-color="#f0f1c8"/><stop offset="0.21" stop-color="#f1e8ae"/><stop offset="0.37" stop-color="#f4d985"/><stop offset="0.56" stop-color="#f7c44c"/><stop offset="0.57" stop-color="#f7c44b"/><stop offset="1" stop-color="#f58947"/></linearGradient><linearGradient id="b" x1="416.22" y1="621.23" x2="226" y2="259.42" xlink:href="#a"/><linearGradient id="c" x1="98.61" y1="149.29" x2="517.62" y2="499.12" gradientUnits="userSpaceOnUse"><stop offset="0" stop-color="#f4e6b9"/><stop offset="0.17" stop-color="#f5e7b0"/><stop offset="0.45" stop-color="#f6ea96"/><stop offset="0.57" stop-color="#f7ec8a"/><stop offset="1" stop-color="#f5cb80"/></linearGradient><linearGradient id="d" x1="650.13" y1="154" x2="-199.84" y2="-20.25" gradientUnits="userSpaceOnUse"><stop offset="0" stop-color="#f4d084"/><stop offset="0.22" stop-color="#f5d986"/><stop offset="0.57" stop-color="#f7f18a"/><stop offset="1" stop-color="#f5e2b8"/></linearGradient><linearGradient id="e" x1="-90.43" y1="244.49" x2="654.46" y2="147.39" gradientUnits="userSpaceOnUse"><stop offset="0" stop-color="#f4e097"/><stop offset="0.11" stop-color="#f4e08e"/><stop offset="0.29" stop-color="#f5de74"/><stop offset="0.53" stop-color="#f7dc4b"/><stop offset="0.57" stop-color="#f7dc43"/><stop offset="1" stop-color="#f5a93f"/></linearGradient></defs><path d="M291.5,583A291,291,0,0,0,525.59,465.22l-381.22,78A290.15,290.15,0,0,0,291.5,583Z" fill="url(#a)"/><path d="M144.37,543.18l381.22-78a290.73,290.73,0,0,0,44-86.21L9,363.79A292.06,292.06,0,0,0,144.37,543.18Z" fill="url(#b)"/><path d="M0,291.5a292,292,0,0,0,9,72.29L569.63,379A291.49,291.49,0,0,0,583,291.5c0-9.52-.47-18.92-1.36-28.21L0,288.41C0,289.44,0,290.47,0,291.5Z" fill="url(#c)"/><path d="M291.5,0A291.07,291.07,0,0,0,56.58,118.92L562,182.71C518.89,75.61,414,0,291.5,0Z" fill="url(#d)"/><path d="M56.58,118.92A290.09,290.09,0,0,0,0,288.41l581.6-25.12A289.49,289.49,0,0,0,562,182.71Z" fill="url(#e)"/></svg>