<svg xmlns="http://www.w3.org/2000/svg" width="583" height="583"><defs><linearGradient id="b" x1="207.35" y1="81.34" x2="153.47" y2="264.9" gradientUnits="userSpaceOnUse"><stop offset="0" stop-color="#b1b6b1"/><stop offset=".28" stop-color="#babab4"/><stop offset=".75" stop-color="#d4c6bd"/><stop offset="1" stop-color="#e4cdc2"/></linearGradient><linearGradient id="c" x1="476.75" y1="316.18" x2="369" y2="-13.03" gradientUnits="userSpaceOnUse"><stop offset="0" stop-color="#dcc3b6"/><stop offset=".44" stop-color="#c7b6af"/><stop offset="1" stop-color="#a7a1a3"/></linearGradient><linearGradient id="d" x1="136.14" y1="182.85" x2="120.18" y2="506.08" gradientUnits="userSpaceOnUse"><stop offset=".12" stop-color="#c2c4c2"/><stop offset=".66" stop-color="#d9ccc4"/><stop offset="1" stop-color="#ead1c6"/></linearGradient><linearGradient id="e" x1="817.06" y1="1778.1" x2="841.09" y2="2004.83" gradientTransform="rotate(30 3472.5 310.506)" gradientUnits="userSpaceOnUse"><stop offset=".12" stop-color="#c2c4c2"/><stop offset=".94" stop-color="#d9d7cf"/><stop offset="1" stop-color="#dbd9d0"/></linearGradient><radialGradient id="a" cx="534.73" cy="638.02" r="816.48" gradientUnits="userSpaceOnUse"><stop offset="0" stop-color="#82a1c0"/><stop offset=".12" stop-color="#8ba2be"/><stop offset=".32" stop-color="#a5a6b9"/><stop offset=".57" stop-color="#ceacb2"/><stop offset=".68" stop-color="#e1afae"/><stop offset=".68" stop-color="#e1c0b6"/><stop offset=".68" stop-color="#e1c5b8"/><stop offset="1" stop-color="#e7d7cc"/></radialGradient></defs><path d="M547.18 151.42C503.79 72.39 424.83 15.67 331.85 2.79A295.07 295.07 0 00291.5 0C130.51 0 0 130.51 0 291.5A291.32 291.32 0 00291.5 583c161 0 291.5-130.51 291.5-291.5a290.12 290.12 0 00-35.82-140.08z" fill="url(#a)"/><circle cx="169" cy="212" r="74" fill="url(#b)"/><path d="M289 101a134 134 0 00258.18 50.42C503.79 72.39 424.83 15.67 331.85 2.79A133.6 133.6 0 00289 101z" fill="url(#c)"/><path d="M225 457a108 108 0 00-202.33-52.62A292.56 292.56 0 00164.57 554 108 108 0 00225 457z" fill="url(#d)"/><circle cx="384.5" cy="376.5" r="74.5" fill="url(#e)"/></svg>