<svg xmlns="http://www.w3.org/2000/svg" xmlns:xlink="http://www.w3.org/1999/xlink" width="585.09" height="585.09"><defs><linearGradient id="b" x1="671.32" y1="158.42" x2="286.9" y2="271.49" gradientUnits="userSpaceOnUse"><stop offset="0" stop-color="#91cac2"/><stop offset=".3" stop-color="#a6cfc2"/><stop offset=".91" stop-color="#dadac3"/><stop offset="1" stop-color="#e3dcc3"/></linearGradient><linearGradient id="c" x1="191.95" y1="567.37" x2="406.49" y2="22.98" gradientUnits="userSpaceOnUse"><stop offset="0" stop-color="#8ec6c1"/><stop offset=".3" stop-color="#a3c9bf"/><stop offset=".92" stop-color="#d7d2ba"/><stop offset="1" stop-color="#dfd3b9"/></linearGradient><linearGradient id="a" x1="253.48" y1="591.61" x2="468.03" y2="47.22" gradientUnits="userSpaceOnUse"><stop offset="0" stop-color="#679db2"/><stop offset=".21" stop-color="#7ca6b3"/><stop offset=".65" stop-color="#b0beb6"/><stop offset="1" stop-color="#dfd3b9"/></linearGradient><linearGradient id="d" x1="118.81" y1="538.55" x2="333.35" y2="-5.85" xlink:href="#a"/><linearGradient id="e" x1="-5.3" y1="227.38" x2="248.76" y2="218.07" gradientUnits="userSpaceOnUse"><stop offset="0" stop-color="#eff8e5"/><stop offset=".4" stop-color="#e9ebd0"/><stop offset="1" stop-color="#ddd2aa"/></linearGradient><radialGradient id="f" cx="3559.41" cy="-1504.98" r="920.8" gradientTransform="rotate(-90 2926.785 702.975)" gradientUnits="userSpaceOnUse"><stop offset="0" stop-color="#86a3c7"/><stop offset=".14" stop-color="#8faac6"/><stop offset=".36" stop-color="#a9bec5"/><stop offset=".65" stop-color="#d2dec2"/><stop offset=".67" stop-color="#d6e1c2"/><stop offset=".67" stop-color="#e7ecc6"/><stop offset=".68" stop-color="#fffbcb"/><stop offset="1" stop-color="#f0f9e6"/></radialGradient></defs><path d="M584.32 272.22a291.06 291.06 0 00-60.43-158.65l-313.68 96.5z" fill="url(#b)"/><path d="M584.32 272.22l-374.11-62.15L.62 274.55q-.55 8.93-.57 18a291.26 291.26 0 0065.15 184l485.71-46.83A291.22 291.22 0 00585 292.54c0-6.83-.22-13.6-.68-20.32z" fill="url(#c)"/><path d="M292.54 585c112 0 209.21-62.92 258.37-155.31L65.2 476.56A291.91 291.91 0 00292.54 585z" fill="url(#a)"/><path d="M523.89 113.57A292 292 0 00292.54.05C171.29.05 67.27 73.84 22.93 179l187.28 31.11z" fill="url(#d)"/><path d="M22.93 179A290.77 290.77 0 00.62 274.55l209.59-64.48z" fill="url(#e)"/><circle cx="292.54" cy="292.54" r="292.54" opacity=".3" fill="url(#f)"/></svg>