<svg xmlns="http://www.w3.org/2000/svg" xmlns:xlink="http://www.w3.org/1999/xlink" width="584.99" height="584.99"><defs><linearGradient id="b" x1="671.27" y1="158.37" x2="286.85" y2="271.44" gradientUnits="userSpaceOnUse"><stop offset="0" stop-color="#80c0b7"/><stop offset=".51" stop-color="#94cbc2"/><stop offset="1" stop-color="#acd7ce"/></linearGradient><linearGradient id="c" x1="191.9" y1="567.32" x2="406.45" y2="22.93" gradientUnits="userSpaceOnUse"><stop offset="0" stop-color="#75c3d6"/><stop offset=".66" stop-color="#89c6ca"/><stop offset="1" stop-color="#96c8c3"/></linearGradient><linearGradient id="a" x1="253.43" y1="591.57" x2="467.98" y2="47.17" gradientUnits="userSpaceOnUse"><stop offset="0" stop-color="#6197b1"/><stop offset=".44" stop-color="#76aab8"/><stop offset="1" stop-color="#96c8c3"/></linearGradient><linearGradient id="d" x1="118.76" y1="538.5" x2="333.3" y2="-5.9" xlink:href="#a"/><linearGradient id="e" x1="-5.35" y1="227.33" x2="248.72" y2="218.02" gradientUnits="userSpaceOnUse"><stop offset="0" stop-color="#89d3e6"/><stop offset=".51" stop-color="#91d0d2"/><stop offset="1" stop-color="#9accba"/></linearGradient></defs><circle cx="292.43" cy="293.15" r="291.84" fill="#1b424c"/><path d="M584.27 272.17a291 291 0 00-60.43-158.65L210.16 210z" fill="url(#b)"/><path d="M584.27 272.17L210.16 210 .57 274.5c-.36 6-.57 11.95-.57 18a291.26 291.26 0 0065.15 184l485.71-46.83A291.19 291.19 0 00585 292.49c0-6.83-.27-13.6-.73-20.32z" fill="url(#c)"/><path d="M292.49 585c112 0 209.21-62.92 258.37-155.31L65.15 476.51A291.91 291.91 0 00292.49 585z" fill="url(#a)"/><path d="M523.84 113.52A292 292 0 00292.49 0C171.24 0 67.22 73.79 22.88 178.91L210.16 210z" fill="url(#d)"/><path d="M22.88 178.91A290.77 290.77 0 00.57 274.5L210.16 210z" fill="url(#e)"/></svg>