<svg xmlns="http://www.w3.org/2000/svg" width="583" height="583"><defs><linearGradient id="b" x1="170.91" y1="99.71" x2="134.51" y2="223.74" gradientUnits="userSpaceOnUse"><stop offset="0" stop-color="#85a0a9"/><stop offset=".27" stop-color="#8ba9ae"/><stop offset=".72" stop-color="#9cc3bd"/><stop offset="1" stop-color="#a9d6c8"/></linearGradient><linearGradient id="c" x1="476.75" y1="316.18" x2="369" y2="-13.03" gradientUnits="userSpaceOnUse"><stop offset="0" stop-color="#91cac2"/><stop offset=".5" stop-color="#7eb6bb"/><stop offset="1" stop-color="#679db2"/></linearGradient><linearGradient id="d" x1="390.19" y1="223.52" x2="422.12" y2="524.81" gradientUnits="userSpaceOnUse"><stop offset=".12" stop-color="#ddb386"/><stop offset=".37" stop-color="#e2c49d"/><stop offset=".89" stop-color="#edefd9"/><stop offset="1" stop-color="#f0f9e6"/></linearGradient><linearGradient id="e" x1="136.14" y1="182.85" x2="120.18" y2="506.08" gradientUnits="userSpaceOnUse"><stop offset=".12" stop-color="#ddb386"/><stop offset=".41" stop-color="#dac49d"/><stop offset="1" stop-color="#d3ecd6"/></linearGradient><radialGradient id="a" cx="501.25" cy="591.42" r="785.5" gradientUnits="userSpaceOnUse"><stop offset="0" stop-color="#dda57d"/><stop offset=".12" stop-color="#d4a783"/><stop offset=".33" stop-color="#baac95"/><stop offset=".58" stop-color="#91b4b1"/><stop offset=".67" stop-color="#81b7bc"/><stop offset=".67" stop-color="#92c2c1"/><stop offset=".68" stop-color="#bee0ce"/><stop offset=".68" stop-color="#cce9d2"/><stop offset="1" stop-color="#f0f9e6"/></radialGradient></defs><path d="M547.18 151.42C503.79 72.39 424.83 15.67 331.85 2.79A295.07 295.07 0 00291.5 0C130.51 0 0 130.51 0 291.5A291.32 291.32 0 00291.5 583c161 0 291.5-130.51 291.5-291.5a290.12 290.12 0 00-35.82-140.08z" fill="url(#a)"/><circle cx="145" cy="188" r="50" fill="url(#b)"/><path d="M289 101a134 134 0 00258.18 50.42C503.79 72.39 424.83 15.67 331.85 2.79A133.6 133.6 0 00289 101z" fill="url(#c)"/><circle cx="409" cy="401" r="99" fill="url(#d)"/><path d="M225 457a108 108 0 00-202.33-52.62A292.56 292.56 0 00164.57 554 108 108 0 00225 457z" fill="url(#e)"/></svg>