<svg xmlns="http://www.w3.org/2000/svg" width="31" height="31" viewBox="0 0 31 31"><polygon points="31 14.72 18.39 14.72 29.31 8.42 28.54 7.08 17.62 13.38 23.92 2.46 22.58 1.69 16.27 12.61 16.27 0 14.72 0 14.72 12.61 8.42 1.69 7.08 2.46 13.38 13.38 2.46 7.08 1.69 8.42 12.61 14.72 0 14.72 0 16.27 12.61 16.27 1.69 22.58 2.46 23.92 13.38 17.62 7.08 28.54 8.42 29.31 14.72 18.39 14.72 31 16.27 31 16.27 18.39 22.58 29.31 23.92 28.54 17.62 17.62 28.54 23.92 29.31 22.58 18.39 16.27 31 16.27 31 14.72" fill="#eddcb9"/></svg>