<svg xmlns="http://www.w3.org/2000/svg" xmlns:xlink="http://www.w3.org/1999/xlink" width="141.69" height="196.45"><defs><linearGradient id="b" x1="144.31" y1="209.02" x2="51.54" y2="70.35" gradientUnits="userSpaceOnUse"><stop offset="0" stop-color="#ffefd6"/><stop offset=".12" stop-color="#fbe4cd"/><stop offset=".38" stop-color="#f5d3bf"/><stop offset=".66" stop-color="#f1c9b7"/><stop offset="1" stop-color="#f0c6b4"/></linearGradient><linearGradient id="a" x1="97.52" y1="138.3" x2="109.49" y2="166.23" gradientUnits="userSpaceOnUse"><stop offset="0" stop-color="#fffce3"/><stop offset=".32" stop-color="#fefae0"/><stop offset=".59" stop-color="#fbf4d5"/><stop offset=".84" stop-color="#f5ebc4"/><stop offset="1" stop-color="#f0e2b4"/></linearGradient><linearGradient id="c" x1="87.63" y1="9.26" x2="48.72" y2="153.91" xlink:href="#a"/></defs><g data-name="レイヤー 2"><g data-name="Layer 2"><path d="M89 101.32c3.39 1.4 5.78 4.44 7.91 7.42 7.25 10.11 13.37 21 19.47 31.81 7.3 13 14.67 26.11 18.46 40.5.91 3.44 1.59 7.15.35 10.48s-5.11 5.91-8.4 4.55a9.71 9.71 0 01-2.8-2c-10.28-9.63-18.21-21.44-27.23-32.26-5.87-7.06-12.24-13.72-17.72-21.08s-10.13-15.57-12-24.56a22.44 22.44 0 01-.19-9.85 11.58 11.58 0 015.73-7.74 12.31 12.31 0 018.65-.48c2.83.76 5.42 2.25 7.77 3.21z" fill="url(#b)"/><path d="M75.17 166.08a28.19 28.19 0 00-.17 15.56 1.9 1.9 0 002 1.71 35.49 35.49 0 0022.18-4.89 24 24 0 013.6-2 35.14 35.14 0 014.46-1.15 19.33 19.33 0 0011.16-7.85c1.35-2 2.31-4.21 3.66-6.19 2.43-3.56 6-6.15 9.24-9s6.42-6.08 7.56-10.23a4.06 4.06 0 00-.41-3.71 4.7 4.7 0 00-3-1.21l-11.93-1.84a11.67 11.67 0 00-4.48-.11 11.87 11.87 0 00-3.72 1.88q-13.92 9.18-28.5 17.32a38.79 38.79 0 00-7.55 5 16 16 0 00-4.1 6.71z" fill="url(#a)"/><path d="M20.54 1.57c4.11-2.31 9.32-1.87 13.65 0s8 5 11.52 8.11Q84.5 43.52 122 78.8c4.79 4.5 9.61 9.08 13.21 14.58a38.16 38.16 0 016.11 26.14 31.63 31.63 0 01-14.44 22.31c-5.26 3.17-11.37 4.57-17.14 6.7a69.09 69.09 0 00-19 10.71c-8.26 6.56-15.69 15.36-26.08 17.18-7.81 1.37-15.92-1.69-22-6.73s-10.47-11.89-14.1-18.94C18.16 130.64 13 108.32 8.11 86.24 4.39 69.52.73 52.68.08 35.56-.21 28 .16 20.15 3.52 13.37S13.9 1.14 20.54 1.57z" fill="url(#c)"/></g></g></svg>