<svg xmlns="http://www.w3.org/2000/svg" xmlns:xlink="http://www.w3.org/1999/xlink" width="124.04" height="255.78" viewBox="0 0 124.04 255.78"><defs><style>.cls-1{fill:url(#名称未設定グラデーション_2709);}.cls-2{fill:url(#名称未設定グラデーション_2749);}.cls-3{fill:url(#名称未設定グラデーション_2749-2);}</style><linearGradient id="名称未設定グラデーション_2709" x1="58.1" y1="253.16" x2="53.11" y2="120.48" gradientUnits="userSpaceOnUse"><stop offset="0" stop-color="#ffefd6"/><stop offset="0.12" stop-color="#fbe4cd"/><stop offset="0.38" stop-color="#f5d3bf"/><stop offset="0.66" stop-color="#f1c9b7"/><stop offset="1" stop-color="#f0c6b4"/></linearGradient><linearGradient id="名称未設定グラデーション_2749" x1="62.3" y1="188.26" x2="65.63" y2="218.52" gradientUnits="userSpaceOnUse"><stop offset="0" stop-color="#fffce3"/><stop offset="0.32" stop-color="#fefae0"/><stop offset="0.59" stop-color="#fbf4d5"/><stop offset="0.84" stop-color="#f5ebc4"/><stop offset="1" stop-color="#f0e2b4"/></linearGradient><linearGradient id="名称未設定グラデーション_2749-2" x1="41.07" y1="25" x2="65.67" y2="195.27" xlink:href="#名称未設定グラデーション_2749"/></defs><g id="レイヤー_2" data-name="レイヤー 2"><g id="Layer_2" data-name="Layer 2"><path class="cls-1" d="M63.21,152.27c2.59,2.6,3.62,6.33,4.44,9.91,2.77,12.12,4.21,24.51,5.65,36.86,1.72,14.78,3.45,29.76,1.38,44.49-.49,3.52-1.3,7.21-3.73,9.8s-7,3.47-9.51.95a9.86,9.86,0,0,1-1.8-2.95c-5.76-12.85-8.51-26.81-12.64-40.27-2.69-8.78-6-17.38-8.2-26.3s-3.32-18.27-1.56-27.28a22.59,22.59,0,0,1,3.63-9.16,11.59,11.59,0,0,1,8.28-4.91,12.28,12.28,0,0,1,8.16,2.89C59.64,148.13,61.45,150.5,63.21,152.27Z"/><path class="cls-2" d="M26.35,189.9a184,184,0,0,0-7.07,25.46,8.79,8.79,0,0,0-.05,4.77c.86,2.33,3.47,3.52,5.9,4a22.39,22.39,0,0,0,16.51-3,4.18,4.18,0,0,1,2.18-.9,4.07,4.07,0,0,1,1.45.4A38.24,38.24,0,0,0,57,223a45.15,45.15,0,0,0,15.16-1.08,22.39,22.39,0,0,0,12.48-8.29,3.9,3.9,0,0,1,1.5-1.54c1-.41,2,.08,3,.48,5.41,2.17,11.51,1.16,17.25.12a6.78,6.78,0,0,0,3.59-1.42,4.55,4.55,0,0,0,1.09-4,13.35,13.35,0,0,0-1.56-4c-4.1-7.8-8.41-15.63-14.55-21.94a19.2,19.2,0,0,0-5.17-4,22,22,0,0,0-6.76-1.71,132.06,132.06,0,0,0-36.29.21,36.79,36.79,0,0,0-10.89,2.9C32.51,180.43,27.28,187.31,26.35,189.9Z"/><path class="cls-3" d="M72.61,1.2c-2.93-2.24-7.16-1-10.47.68C45.77,10,33.34,24.66,25.06,40.94S12.29,75.14,8.58,93C2.41,122.81-1.82,153.3.78,183.6c.62,7.16,2,15,7.7,19.44,4.67,3.62,11.18,3.91,16.94,2.6s11.07-4,16.64-6c15.52-5.45,32.46-4.8,48.83-3.29,4.14.38,8.35.82,12.44,0,12.15-2.35,20-15.26,20.63-27.63s-3.31-27.88-6.76-39.77c-7.65-26.35-13.38-37.37-20.49-61.85-4.19-14.45-8-30.84-11-45.61A34.27,34.27,0,0,0,72.61,1.2Z"/></g></g></svg>