<svg xmlns="http://www.w3.org/2000/svg" xmlns:xlink="http://www.w3.org/1999/xlink" width="275.78" height="306.9"><defs><linearGradient id="c" x1="157.91" y1="203.76" x2="159.89" y2="175.03" gradientTransform="rotate(-10.92 152.612 248.49)" gradientUnits="userSpaceOnUse"><stop offset="0" stop-color="#688494"/><stop offset=".16" stop-color="#7595a2"/><stop offset=".39" stop-color="#82a5b0"/><stop offset=".65" stop-color="#8aaeb8"/><stop offset="1" stop-color="#8cb1ba"/></linearGradient><linearGradient id="d" x1="135.52" y1="176.62" x2="143.6" y2="258.81" gradientTransform="rotate(-10.92 152.612 248.49)" gradientUnits="userSpaceOnUse"><stop offset="0" stop-color="#72a5c4"/><stop offset=".26" stop-color="#85baca"/><stop offset=".57" stop-color="#a1d7d2"/><stop offset="1" stop-color="#dff0ee"/></linearGradient><linearGradient id="e" x1="139.22" y1="177.84" x2="145.08" y2="237.58" gradientTransform="rotate(-10.92 152.612 248.49)" gradientUnits="userSpaceOnUse"><stop offset="0" stop-color="#688494"/><stop offset=".53" stop-color="#7a98a8"/><stop offset="1" stop-color="#8eaebd"/></linearGradient><linearGradient id="a" x1="46.48" y1="240.02" x2="13.45" y2="237.82" gradientTransform="rotate(-10.92 152.612 248.49)" gradientUnits="userSpaceOnUse"><stop offset="0" stop-color="#8ec2cf"/><stop offset=".23" stop-color="#a8d1d9"/><stop offset=".54" stop-color="#c5e2e5"/><stop offset=".81" stop-color="#d7ecec"/><stop offset="1" stop-color="#ddf0ee"/></linearGradient><linearGradient id="f" x1="152.51" y1="259.04" x2="237.58" y2="253.97" xlink:href="#a"/><linearGradient id="g" x1="257.65" y1="52.17" x2="243.4" y2="51.22" gradientTransform="rotate(-35.86 490.945 148.937)" gradientUnits="userSpaceOnUse"><stop offset="0" stop-color="#455661"/><stop offset=".29" stop-color="#536b72"/><stop offset=".88" stop-color="#799f9e"/><stop offset="1" stop-color="#81aba8"/></linearGradient><linearGradient id="h" x1="112.15" y1="253.16" x2="107.16" y2="120.48" gradientUnits="userSpaceOnUse"><stop offset="0" stop-color="#ffefd6"/><stop offset=".12" stop-color="#fbe4cd"/><stop offset=".38" stop-color="#f5d3bf"/><stop offset=".66" stop-color="#f1c9b7"/><stop offset="1" stop-color="#f0c6b4"/></linearGradient><linearGradient id="b" x1="116.35" y1="188.26" x2="119.68" y2="218.52" gradientUnits="userSpaceOnUse"><stop offset="0" stop-color="#fffce3"/><stop offset=".32" stop-color="#fefae0"/><stop offset=".59" stop-color="#fbf4d5"/><stop offset=".84" stop-color="#f5ebc4"/><stop offset="1" stop-color="#f0e2b4"/></linearGradient><linearGradient id="i" x1="95.11" y1="25" x2="119.72" y2="195.27" xlink:href="#b"/></defs><g data-name="レイヤー 2"><g data-name="Layer 2"><path d="M212.6 187.54c-17.63-15.53-72.93-24.09-87-10.76 21.46 5.62-37.28 42.92-39.34 44.16s126.34-33.4 126.34-33.4z" fill="url(#c)"/><path d="M265.48 229.16c-.77-4 2.59-8 7.5-8.92a3.21 3.21 0 002.6-2.59 10.81 10.81 0 000-4c-3.66-19-66.92-34.41-113.27-24.14-66.05 14.66-102.22 53.77-117.72 54.69-11.48.69-65.41-52.87-35.84 6.46 3.35 6.72 6.93 9.64 7.58 13s-1.59 7.42-2.2 14.91c-5.38 66.07 24.77-3.71 35.68-7.34 14.72-4.91 62.85 17.95 129.62 7 32.93-5.42 68.88-25.72 86.08-43.9a3.09 3.09 0 00.53-3.52 6 6 0 01-.56-1.65z" fill="url(#d)"/><path d="M162.33 189.54C96.26 204.17 60.09 243.28 44.59 244.2c-11.48.69-65.41-52.87-35.84 6.46 3.35 6.72 6.93 9.64 7.58 13a11.69 11.69 0 01-.34 4.67c64.94-17.79 173.69-39 251.23-44.92a10.2 10.2 0 015.76-3.19 3.21 3.21 0 002.6-2.59 10.81 10.81 0 000-4c-3.64-18.95-66.9-34.36-113.25-24.09z" opacity=".47" fill="url(#e)"/><path d="M44.59 244.2c-11.48.69-65.41-52.88-35.84 6.46 3.35 6.72 6.93 9.64 7.58 13s-1.59 7.42-2.2 14.91c-5.31 65.18 24-1.84 35.22-7.15a33.83 33.83 0 01-3.72-10.08 35.16 35.16 0 011.25-17.54 13.49 13.49 0 01-2.29.4z" fill="url(#a)"/><path d="M213.78 234.5a2.6 2.6 0 00-1.43-1.3c-20.27-7.72-41.9-21.7-38.53 24.4 3.42 46.8 35.06-3.46 39.14-10.17 3.69-6.05 1.92-10.63.82-12.93z" fill="url(#f)"/><circle cx="237.82" cy="211.79" r="11.28" fill="#ededed"/><path d="M237.82 211.79l5.83-7.63a9.62 9.62 0 101.95 2z" fill="url(#g)"/><circle cx="223.73" cy="231.82" r="7.5" fill="#e89299"/><path d="M117.26 152.27c2.59 2.6 3.62 6.33 4.43 9.91 2.77 12.12 4.22 24.51 5.66 36.86 1.72 14.78 3.44 29.76 1.38 44.49-.49 3.52-1.3 7.21-3.74 9.8s-7 3.47-9.5.95a9.47 9.47 0 01-1.8-2.95c-5.77-12.85-8.51-26.81-12.64-40.27-2.7-8.78-6-17.38-8.2-26.3s-3.32-18.27-1.56-27.28a22.59 22.59 0 013.63-9.16 11.57 11.57 0 018.27-4.91 12.3 12.3 0 018.17 2.89c2.33 1.83 4.14 4.2 5.9 5.97z" fill="url(#h)"/><path d="M80.4 189.9a184 184 0 00-7.08 25.46 8.79 8.79 0 000 4.77c.87 2.33 3.47 3.52 5.91 4a22.39 22.39 0 0016.51-3 3 3 0 013.63-.5 38.18 38.18 0 0011.7 2.37 45.21 45.21 0 0015.17-1.08 22.39 22.39 0 0012.48-8.29 4 4 0 011.49-1.54c1-.41 2 .08 3 .48 5.4 2.17 11.51 1.16 17.24.12a6.75 6.75 0 003.59-1.42 4.49 4.49 0 001.09-4 12.84 12.84 0 00-1.56-4c-4.09-7.8-8.4-15.63-14.55-21.94a19 19 0 00-5.16-4 22 22 0 00-6.76-1.71 132.06 132.06 0 00-36.29.21A36.63 36.63 0 0090 178.79c-3.44 1.64-8.67 8.52-9.6 11.11z" fill="url(#b)"/><path d="M126.66 1.2c-2.93-2.24-7.16-1-10.47.68C99.82 10 87.39 24.66 79.1 40.94S66.34 75.14 62.63 93c-6.18 29.78-10.4 60.27-7.8 90.57.61 7.16 2 15 7.7 19.44 4.66 3.62 11.18 3.91 16.93 2.6s11.08-4 16.65-6c15.52-5.45 32.45-4.8 48.83-3.29 4.14.38 8.35.82 12.43 0 12.16-2.35 20-15.26 20.64-27.63s-3.31-27.88-6.76-39.77c-7.65-26.35-13.39-37.37-20.49-61.85-4.2-14.45-8-30.84-11-45.61a34.32 34.32 0 00-13.1-20.26z" fill="url(#i)"/></g></g></svg>