<svg xmlns="http://www.w3.org/2000/svg" xmlns:xlink="http://www.w3.org/1999/xlink" width="391.09" height="414.07"><defs><linearGradient id="名称未設定グラデーション_2966" x1="380.04" y1="156.09" x2="-21.26" y2="297.12" gradientUnits="userSpaceOnUse"><stop offset="0" stop-color="#f2d479"/><stop offset=".99" stop-color="#fbd27e"/></linearGradient><linearGradient id="名称未設定グラデーション_2966-2" x1="388.18" y1="179.25" x2="-13.12" y2="320.28" xlink:href="#名称未設定グラデーション_2966"/><linearGradient id="名称未設定グラデーション_2965" x1="429.38" y1="164.77" x2="-98.41" y2="350.25" gradientUnits="userSpaceOnUse"><stop offset="0" stop-color="#d9b174"/><stop offset=".99" stop-color="#af9057"/></linearGradient><style>.cls-1{fill:#726149}.cls-8{fill:#c6bb8d}</style></defs><g id="レイヤー_2" data-name="レイヤー 2"><g id="Layer_2" data-name="Layer 2"><g id="Bd"><path class="cls-1" d="M164.14 56.47c-3.36 4.33-8.16-7.86-8.56-13.33s2.62-11.2 7.64-13.39c-.31-3.69 2.09-7.21 5.25-9.12s7-2.47 10.66-2.59 7.41.12 11.08-.36a67.16 67.16 0 0011.68-3.13c7.27-2.32 14.82-4.14 22.45-3.86s15.39 2.83 20.77 8.24c1.38 1.39 2.66 3.14 2.55 5.09-.14 2.68-2.79 4.53-5.34 5.37-4.87 1.63-10.15 1.19-15.27.86-8.77-.55-17.62-.7-26.29.71s-17.21 4.43-24.21 9.73a24.42 24.42 0 00-5 4.83c-2.36 3.26-6.91 10.3-7.41 10.95z"/><path d="M208.53.05c-5.79-.5-11.37 2.77-15.26 7.09s-6.44 9.63-9.29 14.7c-3.3 5.89-7 11.54-9.69 17.75s-4.13 13.15-2.61 19.73c2 8.61 9 15.46 17 19.19s17 4.77 25.85 5.16c7.79.33 15.84.16 23-2.89A61 61 0 00247 75.3a20 20 0 005-4.14c2.05-2.67 2.6-6.17 3-9.52 1-8.61 1.52-17.81-2.53-25.48a47.18 47.18 0 00-5.54-7.75l-10.66-12.93a50.41 50.41 0 00-6.21-6.68A39.47 39.47 0 00208.53.05z" fill="#fff3ed"/><path d="M247.67 53c6.65-6.27 5.27-38.8 29.76 17.81 5 11.59 9.33 24 8.05 36.58-1.22 12.07-7.69 23.31-16.77 31.36s-20.6 13-32.5 15.4c-8.94 1.78-18.49 2.06-26.89-1.48s-14.69-10.43-19.32-18.11-7.73-16.18-11.1-24.51c-11.77-29.11-6.9-25.81-7.81-31.67-2.22-14.28 18.86-12 26-13 7.33-1.1 41.13-3.49 50.58-12.38z" fill="#e8e3c8"/><path d="M278.33 84.66c-6.34 12.66-114 50.13-92.16-5.28s107.61-25.54 92.16 5.28z" fill="#f7f5e9"/><path d="M365.92 353.91A84.45 84.45 0 00385 326a82.34 82.34 0 002.07-56.63c-4.15-12.56-11.26-23.9-18.23-35.14-37.26-60.1-69.27-122.64-100.44-186.12-4.43-9-10.74-16.83-21.57-20.55-.13 0 .23 1.22.1 1.26 3.42 2.85 3.81 4.38 6.31 8.08a195.16 195.16 0 0122.07 43.67 17 17 0 011.32 6.43 6.36 6.36 0 01-3.49 5.55c-7.26 5.07-15.47 8.59-23.61 12.08-16.56 7.09-33.5 14.29-51.47 15.65a15.43 15.43 0 01-6.21-.47 7.75 7.75 0 01-4.69-4.9c-10.22-18.83-15.7-39.86-24.59-59.34-4.53-1.68-4.8-4.13-5.92-8.4-2.23-8.47-11.67-.31-14.22 3-10.38 13.59-17.21 26.26-23.12 37.21l-4 7.45c15.34 100.32 65.41 234.53 250.61 259.08z" fill="url(#名称未設定グラデーション_2966)"/><path d="M11 271.18C2.34 290.41-2.55 312 1.37 332.65c1.79 19.14 13.75 35.83 28.93 47.13s33.39 17.81 51.7 22.68c88.09 23.45 185.19 11 264.49-34a91.93 91.93 0 0019.45-14.58c-185.2-24.55-235.27-158.76-250.64-259C92 137.79 70.25 175.46 43.22 217 31.73 234.6 19.55 252 11 271.18z" fill="url(#名称未設定グラデーション_2966-2)"/><path d="M11 271.18C2.34 290.41-2.55 312 1.37 332.65c1.79 19.14 13.75 35.83 28.93 47.13s33.39 17.81 51.7 22.68c88.09 23.45 185.19 11 264.49-34a91.93 91.93 0 0019.45-14.58c-185.2-24.55-235.27-158.76-250.64-259C92 137.79 70.25 175.46 43.22 217 31.73 234.6 19.55 252 11 271.18z" fill="url(#名称未設定グラデーション_2965)"/><path class="cls-1" d="M225.68 50.79A46.13 46.13 0 00235 75a18.6 18.6 0 004.37 4.35 8.41 8.41 0 005.87 1.45 3.1 3.1 0 001.92 1.47c4.31 1.52 9.15-.12 12.94-2.67a19 19 0 004.5-4.06 14.57 14.57 0 002.16-13.62c4.1-1.18 6.64-5.74 6.33-10s-3-8.07-6.37-10.66a15.83 15.83 0 00-3.6-13.62 22.9 22.9 0 00-12.46-7.17c-2.16-.5-4.77-.6-6.49 1.2a15.6 15.6 0 011.16 5c0 2.39-1.33 18.96-19.65 24.12z"/><path class="cls-1" d="M178.25 31.72c-5.43 2.9-9.17 8.13-11.82 13.69a103.39 103.39 0 00-4.63 12.34 29.07 29.07 0 00-1.26 4.74 21.08 21.08 0 001.17 9.59 20.92 20.92 0 004.69 8.3 11.1 11.1 0 008.63 3.5 2.25 2.25 0 00.71 2c3.09 3.84 6.74 7.36 11.21 9.45s9.86 2.57 14.31.44c4.15 4 11.06 4.14 16 1.19s7.95-8.46 8.64-14.11c2.51-1 3.35-4.1 3.57-6.79.72-8.78-1.52-18.2-5.85-24.59-6.4 1.1-16.49-.3-23.77-2.35S185.61 43 181.24 36.86a32 32 0 01-2.99-5.14z"/><path class="cls-8" d="M251.62 24.34a.47.47 0 01-.17 0l-1.88-.67a.5.5 0 01-.3-.64.49.49 0 01.63-.3c.63.22 1.27.44 1.9.68a.49.49 0 01.29.64.51.51 0 01-.47.29zM261.28 37.1a.5.5 0 01-.47-.53v-.79a10.81 10.81 0 00-.12-1.61 10.31 10.31 0 00-.39-1.69.5.5 0 01.33-.63.49.49 0 01.62.33 11 11 0 01.43 1.85 11.27 11.27 0 01.13 1.75v.85a.5.5 0 01-.53.47zm-2.51-8.1a.49.49 0 01-.39-.19 11.61 11.61 0 00-1.81-1.81 12.76 12.76 0 00-1.29-.9.5.5 0 01-.17-.69.49.49 0 01.69-.16 13.3 13.3 0 011.4 1 12.31 12.31 0 012 2 .5.5 0 01-.08.7.51.51 0 01-.35.05zM260.87 44.15a.49.49 0 01-.32-.12A10.42 10.42 0 00259 43a.51.51 0 01-.24-.32.48.48 0 01.08-.4 11.67 11.67 0 00.94-1.66.51.51 0 01.66-.25.52.52 0 01.25.67 12.69 12.69 0 01-.74 1.36 11.27 11.27 0 011.26.92.5.5 0 01-.32.88zM264.64 55.32h-.11a.51.51 0 01-.38-.6 11 11 0 00.29-2.48v-.47a.5.5 0 01.48-.52.49.49 0 01.52.48v.51a11.78 11.78 0 01-.31 2.7.51.51 0 01-.49.38zm-.29-6.12a.49.49 0 01-.47-.34 11.13 11.13 0 00-1.34-2.64.5.5 0 01.83-.56 11.29 11.29 0 011.45 2.88.5.5 0 01-.31.63.41.41 0 01-.16.03zM263.08 61.76a.49.49 0 01-.49-.39 8.34 8.34 0 00-.62-1.78.51.51 0 01.07-.53 10.63 10.63 0 001.06-1.58.49.49 0 01.68-.2.5.5 0 01.2.68 13.6 13.6 0 01-1 1.49 9.65 9.65 0 01.55 1.7.49.49 0 01-.37.6zM254.41 74.05a.5.5 0 010-1 10.07 10.07 0 003.83-1.22.51.51 0 01.68.19.5.5 0 01-.19.68 10.89 10.89 0 01-4.27 1.3zm7.13-4.15a.46.46 0 01-.28-.08.5.5 0 01-.13-.7 9.92 9.92 0 001.52-3.72.51.51 0 01.59-.4.5.5 0 01.4.59 11.07 11.07 0 01-1.69 4.1.48.48 0 01-.41.21zM246.78 74a.48.48 0 01-.46-.31.49.49 0 01.27-.65A3.1 3.1 0 00248 72a.49.49 0 01.65-.14 8.65 8.65 0 001.73.76.5.5 0 11-.3 1 10.69 10.69 0 01-1.56-.65 4.36 4.36 0 01-1.5 1 .63.63 0 01-.24.03zM242.92 74a.51.51 0 01-.17 0 11.52 11.52 0 01-2.19-1.07c-.46-.28-.93-.59-1.37-.92a.5.5 0 01-.1-.7.51.51 0 01.7-.11 14 14 0 001.29.88 11.07 11.07 0 002 1 .5.5 0 01-.16 1zm-6.35-4.57a.52.52 0 01-.37-.16 25.61 25.61 0 01-2.47-3.18.5.5 0 11.84-.55 24.48 24.48 0 002.37 3 .51.51 0 010 .71.55.55 0 01-.37.17zm-4.37-6.54a.51.51 0 01-.45-.28c-.56-1.13-1.08-2.33-1.59-3.67a.5.5 0 01.93-.35c.5 1.3 1 2.47 1.56 3.57a.5.5 0 01-.23.67.46.46 0 01-.22.05zM229.33 55.52a.49.49 0 01-.48-.35c-.2-.63-.4-1.27-.59-1.92a.46.46 0 01.05-.41.49.49 0 01.35-.22l.87-.14a.49.49 0 01.57.41.49.49 0 01-.41.57h-.31l.42 1.36a.5.5 0 01-.32.63zM206.56 93.74a11.25 11.25 0 01-2.26-.23.5.5 0 01-.38-.6.5.5 0 01.59-.38 10.25 10.25 0 003.79.07.49.49 0 01.57.41.48.48 0 01-.41.57 11.08 11.08 0 01-1.9.16zm5.58-1.46a.49.49 0 01-.44-.26.5.5 0 01.2-.68 9.72 9.72 0 001.59-1.09 11.22 11.22 0 001.34-1.33.52.52 0 01.71 0 .51.51 0 01.05.71 12.31 12.31 0 01-1.46 1.37 10.87 10.87 0 01-1.75 1.21.5.5 0 01-.24.07zm-11.34-.42a.47.47 0 01-.31-.11l-.27-.22-.17-.15a2.82 2.82 0 00-.86-.59 3 3 0 00-1.24 0h-.74a.5.5 0 11-.08-1l.49-.05h.19a4 4 0 011.71 0 3.68 3.68 0 011.18.78l.17.15.25.2a.5.5 0 01.08.7.5.5 0 01-.4.29zm-7.59-1.34h-.12a19.36 19.36 0 01-3.85-1.42.5.5 0 01.43-.9 18.38 18.38 0 003.65 1.34.5.5 0 01.37.61.5.5 0 01-.48.37zM186 87.18a.56.56 0 01-.27-.08c-.94-.6-1.87-1.22-2.77-1.84l-.57-.4a.5.5 0 11.58-.82l.56.4c.89.61 1.8 1.23 2.74 1.82a.5.5 0 01.15.69.48.48 0 01-.42.23zm31.39-.79a.52.52 0 01-.21 0 .5.5 0 01-.24-.67A17.42 17.42 0 00218.1 82a.49.49 0 01.59-.39.5.5 0 01.39.59 18.16 18.16 0 01-1.26 3.9.5.5 0 01-.46.29zm-37.71-4.07a.5.5 0 01-.38-.19 6.16 6.16 0 01-1.44-3l-.34-.24a.5.5 0 01-.13-.69.51.51 0 01.7-.13l.52.36a.51.51 0 01.22.36A5.12 5.12 0 00180 81.5a.49.49 0 01-.07.7.47.47 0 01-.28.12zm39.32-3.7a.51.51 0 01-.5-.49v-.46a.51.51 0 01.41-.51 4.53 4.53 0 002.67-1.61.5.5 0 01.76.64 5.63 5.63 0 01-2.84 1.87v.06a.49.49 0 01-.49.5zm-44.38-2.1a.5.5 0 01-.32-.11 33.17 33.17 0 01-2.95-2.79.51.51 0 010-.71.5.5 0 01.71 0 29.91 29.91 0 002.86 2.7.5.5 0 01-.33.88zm48.95-3.76h-.08a.5.5 0 01-.42-.56 9.27 9.27 0 00.1-1.41 13.38 13.38 0 00-.23-2.41.49.49 0 01.4-.58.49.49 0 01.58.4 14.49 14.49 0 01.25 2.59 11.09 11.09 0 01-.11 1.55.5.5 0 01-.53.42zm-54.3-2.13a.5.5 0 01-.42-.23 19.09 19.09 0 01-1.85-3.67.5.5 0 01.94-.35 18 18 0 001.74 3.48.5.5 0 01-.15.69.56.56 0 01-.3.08zm53.22-5.74a.49.49 0 01-.48-.37l-1.05-3.86a.5.5 0 01.35-.61.5.5 0 01.61.35l1.05 3.86a.51.51 0 01-.35.62zm-55.94-1.71a.51.51 0 01-.5-.45c0-.53-.08-1.06-.08-1.58a13.36 13.36 0 01.24-2.55.5.5 0 01.58-.4.51.51 0 01.4.59 13.05 13.05 0 00-.14 3.83.5.5 0 01-.45.55zm53.68-6a.48.48 0 01-.45-.28 4.38 4.38 0 00-1.77-2.1.5.5 0 11.49-.87 5.35 5.35 0 012.19 2.54.52.52 0 01-.25.67.49.49 0 01-.25.08zm-53.26-1.95a.5.5 0 01-.47-.33 9 9 0 00-1-1.86c-.11-.18-.23-.35-.34-.52-.21-.33-.41-.67-.59-1a.51.51 0 01.2-.68.5.5 0 01.68.21c.17.32.36.63.55.94l.33.5a9.59 9.59 0 011.15 2.08.5.5 0 01-.3.64.51.51 0 01-.25.06zm-3.4-7.19a.5.5 0 01-.48-.39 17.11 17.11 0 01-.44-3.86v-.19a.5.5 0 01.5-.49.5.5 0 01.49.51v.21a16.29 16.29 0 00.41 3.63.5.5 0 01-.37.6zm.1-7.93h-.12a.51.51 0 01-.37-.61 16.54 16.54 0 011.49-3.84.5.5 0 11.88.48 15.55 15.55 0 00-1.4 3.6.49.49 0 01-.52.41zm3.78-6.95a.47.47 0 01-.35-.14.49.49 0 010-.7l.1-.11a5.41 5.41 0 00.8-1 5 5 0 00.51-2.17.5.5 0 111 .08 6 6 0 01-.64 2.59 6.84 6.84 0 01-.95 1.16l-.1.11a.51.51 0 01-.41.22zm2.46-7.41a.59.59 0 01-.22-.05.51.51 0 01-.23-.67 8.82 8.82 0 012.72-3.21.51.51 0 01.7.11.5.5 0 01-.12.7 8 8 0 00-2.4 2.84.5.5 0 01-.49.32zm10.18-4.06h-.17a7.7 7.7 0 00-3.7-.39.5.5 0 01-.56-.43.49.49 0 01.43-.56 8.81 8.81 0 014.18.44.5.5 0 01-.18 1z"/></g></g></g></svg>