<svg xmlns="http://www.w3.org/2000/svg" xmlns:xlink="http://www.w3.org/1999/xlink" width="216.8" height="236.27" viewBox="0 0 216.8 236.27"><defs><style>.cls-1{fill:url(#名称未設定グラデーション_623);}.cls-2{fill:#ebd0ca;}.cls-3{fill:#fff3ed;}.cls-4{fill:url(#名称未設定グラデーション_2921);}.cls-5{fill:url(#名称未設定グラデーション_3099);}.cls-6{fill:url(#名称未設定グラデーション_3099-2);}.cls-7{fill:url(#名称未設定グラデーション_2922);}.cls-8{fill:#e0898c;}.cls-9{fill:#fffef8;}</style><linearGradient id="名称未設定グラデーション_623" x1="148.62" y1="74.66" x2="206.51" y2="45.82" gradientUnits="userSpaceOnUse"><stop offset="0" stop-color="#79a6ab"/><stop offset="0.06" stop-color="#7ea8ac"/><stop offset="0.3" stop-color="#8dacae"/><stop offset="0.58" stop-color="#96aeb0"/><stop offset="1" stop-color="#99afb0"/></linearGradient><linearGradient id="名称未設定グラデーション_2921" x1="119.29" y1="145.91" x2="166.18" y2="39.17" gradientUnits="userSpaceOnUse"><stop offset="0" stop-color="#94b7ba"/><stop offset="0.45" stop-color="#a9c5c4"/><stop offset="1" stop-color="#c7d9d3"/></linearGradient><linearGradient id="名称未設定グラデーション_3099" x1="107.91" y1="178.31" x2="108.76" y2="211.92" gradientUnits="userSpaceOnUse"><stop offset="0" stop-color="#1c3d3f"/><stop offset="0.27" stop-color="#1e3f41"/><stop offset="0.39" stop-color="#244848" stop-opacity="0.99"/><stop offset="0.48" stop-color="#2f5754" stop-opacity="0.97"/><stop offset="0.55" stop-color="#3f6b65" stop-opacity="0.95"/><stop offset="0.58" stop-color="#497870" stop-opacity="0.93"/><stop offset="0.68" stop-color="#4c7b74" stop-opacity="0.88"/><stop offset="0.8" stop-color="#55867e" stop-opacity="0.74"/><stop offset="0.91" stop-color="#63968f" stop-opacity="0.51"/><stop offset="1" stop-color="#71a69f" stop-opacity="0.3"/></linearGradient><linearGradient id="名称未設定グラデーション_3099-2" x1="186.41" y1="169.02" x2="186.41" y2="206.26" xlink:href="#名称未設定グラデーション_3099"/><linearGradient id="名称未設定グラデーション_2922" x1="5.12" y1="101.59" x2="83.24" y2="19.05" gradientUnits="userSpaceOnUse"><stop offset="0" stop-color="#8bacb3"/><stop offset="0.94" stop-color="#9fbcb7"/><stop offset="1" stop-color="#a1bdb7"/></linearGradient></defs><g id="レイヤー_2" data-name="レイヤー 2"><g id="Layer_2" data-name="Layer 2"><path class="cls-1" d="M178.2,17.32c4-2.13,8.08-4.74,12.48-5a7.5,7.5,0,0,1,4.42,1.3c2.26,1.37,3,4.27,3.42,6.87a276,276,0,0,1,4.09,39.63c.3,10,0,20.22-3.08,29.75A6,6,0,0,1,197.66,93a4.31,4.31,0,0,1-4.39.07,12.32,12.32,0,0,1-3.46-3c-6.16-6.93-13.93-12.14-21.55-17.41a90.32,90.32,0,0,0-24.58-12c-4.17-1.36-6.41-6.24-5.78-8s2.76-4.33,3.93-5.67c8.23-9.44,13.27-14.1,24.27-22.29A137.8,137.8,0,0,1,178.2,17.32Z"/><path class="cls-2" d="M193.32,94.48a3.42,3.42,0,0,0,4.12-.4,8.41,8.41,0,0,0,2.25-3.79c1.74-5,2.25-10.36,2.56-15.65a222.36,222.36,0,0,0-.06-26.58c-.48-7.58-1.36-15.19-3.67-22.41a13.31,13.31,0,0,0-3.4-6.12,5.61,5.61,0,0,0-6.69-.76c-10.3,5.76-17.89,15.3-24.68,25a80,80,0,0,0-7.36,12.06c-1.42,3-2.4,7-.24,9.52a9.42,9.42,0,0,0,2.26,1.81l13.08,8.5c6.21,4,12.54,8.18,17,14.07A24.75,24.75,0,0,0,193.32,94.48Z"/><path class="cls-3" d="M195.54,89.57c6.64,6.68,9.28,15.75,9.87,24.57.86,12.71-2.07,25.35-3.61,38a175.51,175.51,0,0,0-.65,36.3c.51,5.81,1.27,11.82-.88,17.34a26.86,26.86,0,0,1-6,8.79c-10,10.28-24.87,16.18-40,19.16a141.78,141.78,0,0,1-63.17-2.28c-14.27-3.28-26.27-12.21-34.18-23s-12-23.48-14.15-36.17c-3.21-18.93-2.14-38.7,5.82-56.54A78.75,78.75,0,0,1,92,74.46c17.2-6.55,36.66-7,55.36-5.5,9.53.74,19.13,2,28,5.17S190,84,195.54,89.57Z"/><path class="cls-4" d="M36.08,190.51a14.22,14.22,0,0,0,10.34-2.63A32.25,32.25,0,0,0,53.94,180a92,92,0,0,0,15.31-33.73,26.88,26.88,0,0,0,41.16,3.16c3.58,6.8,11.64,10.58,19.32,10.2s14.86-4.45,20.17-10,8.94-12.51,11.81-19.65c3.15-7.82,5.48-16.05,6-23.35-5.19,20.14,4,43.14,21.59,54.2a15.49,15.49,0,0,0,7,2.72,13.36,13.36,0,0,0,8.29-2.75c6.45-4.46,10.39-12,11.68-19.7s.14-15.71-2-23.25a88.34,88.34,0,0,0-25.74-41.1,112.69,112.69,0,0,0-16.66-12.2c-12.88-7.88-27-14-42-16.4s-30.61-1.15-44.39,5c-20.94,9.41-35.75,29.36-43.58,51S30.47,139.5,29.85,162.45C29.67,169.14,32,186.25,36.08,190.51Z"/><path class="cls-5" d="M106.93,174.9c1.37-.57,3.27-1.11,4.56-.43a5.5,5.5,0,0,1,2.37,3.08A47,47,0,0,1,116.29,188c.4,2.85.76,5.71,1,8.57.36,3.41.48,7.22-2.37,9.82a9.83,9.83,0,0,1-6.8,2.29,9.39,9.39,0,0,1-6.49-2.8,9.65,9.65,0,0,1-2.13-5.36c-.81-6.13.47-12.31,2.36-18.29a15.84,15.84,0,0,1,2.08-4.6A8,8,0,0,1,106.93,174.9Z"/><path class="cls-6" d="M187.76,168.79a15,15,0,0,1,2.08,3.54,39.73,39.73,0,0,1,3.62,17.31,19.7,19.7,0,0,1-.61,4.9,8.34,8.34,0,0,1-1.57,3.15,6.27,6.27,0,0,1-6.94,1.73,8.29,8.29,0,0,1-4.58-5.9,24.65,24.65,0,0,1-.2-7.72l.26-3.28a78.69,78.69,0,0,1,1.29-10.28,9,9,0,0,1,1.11-3,3.54,3.54,0,0,1,2.64-1.69A3.3,3.3,0,0,1,187.76,168.79Z"/><path class="cls-7" d="M51,110.08a41.72,41.72,0,0,1-32.32,10.81,49.05,49.05,0,0,0,16.82-13.82,26.31,26.31,0,0,1-31-.63A26.08,26.08,0,0,0,20,98.34,18.88,18.88,0,0,1,8.72,84.86,22.56,22.56,0,0,0,8,81.51c-1.25-3.34-4.75-5.19-8-6.74a19.51,19.51,0,0,1,19.62,4.17C19,54.9,24.09,30.85,33.28,8.63A18.6,18.6,0,0,1,37.23,2C39.12.24,42-.72,45.83.66c7.1,1.5,13.51,5.25,19.55,9.28a196.15,196.15,0,0,1,36.23,31.2c3.4,3.73,6.76,7.82,7.8,12.75a5.15,5.15,0,0,1-.12,3.11,4.09,4.09,0,0,1-3.1,2,86,86,0,0,0-46.61,45.48,7.76,7.76,0,0,1-2,3.18C55.47,109.33,52.2,109,51,110.08Z"/><path class="cls-2" d="M48.18,8.85c-2.38.46-3.1,3.46-3.28,5.88A240.25,240.25,0,0,0,50.24,85c.62,2.74,1.31,5.54,2.95,7.81s4.47,3.91,7.21,3.34c2.15-.45,3.82-2.11,5.32-3.72C75.44,82,84.32,70.33,96.66,63.22c1.91-1.1,4-2.18,5.08-4.1s1.9-5.54,1-7.63A57,57,0,0,0,98.11,44C88.05,29.93,81.77,25.37,67,15.82c-3.2-2.06-12.25-7.24-16.05-7.57C49.39,8.11,47.52,8.55,48.18,8.85Z"/><path class="cls-8" d="M162.83,216.16a2.22,2.22,0,0,0-1.66-.64,4.86,4.86,0,0,0-2,.52,12.62,12.62,0,0,1-1.75.75,26.52,26.52,0,0,1-3.34.51c-1.12.18-2.27.63-2.29,1.27,0,.48.63.89,1.37,1.16a12.8,12.8,0,0,0,8.06-.34,5,5,0,0,0,2-1.17C163.91,217.49,163.37,216.7,162.83,216.16Z"/><path class="cls-8" d="M110.54,214.57a62.68,62.68,0,0,1-8.51,6.91c-.34.23-.84.44-1.11.13a.78.78,0,0,1-.14-.54,6.19,6.19,0,0,1,.64-2.74c.21-.43.47-1,.22-1.36a1.1,1.1,0,0,0-.61-.41c-1.49-.47-3.09.32-4.31,1.31a2.87,2.87,0,0,1-1.36.77c-.53.07-1.14-.38-1-.89a1,1,0,0,1,.2-.39,15.93,15.93,0,0,1,8.36-6.13c.48-.15,1.13-.2,1.33.26a1,1,0,0,1,0,.65,41.78,41.78,0,0,0-.73,4.57,1,1,0,0,0,0,.42c.22.49,1,.17,1.33-.2l3.33-3.18a3,3,0,0,1,1-.74,1,1,0,0,1,1.15.28C110.68,213.74,110.42,214.35,110.54,214.57Z"/><path class="cls-8" d="M196.9,203.63a25.73,25.73,0,0,1-3.41,4,3.83,3.83,0,0,1-1.56,1,.55.55,0,0,1-.48-.06c-.38-.28-.29-1.11-.07-1.65a2.8,2.8,0,0,0,.35-1.71.81.81,0,0,0-.75-.64,1.64,1.64,0,0,0-.88.34c-1.11.73-2.13,1.7-3.24,2.41a1.5,1.5,0,0,1-.85.31.79.79,0,0,1-.67-.69,1.71,1.71,0,0,1,.69-1.46l2-1.84a14.33,14.33,0,0,1,3.26-2.46,1.68,1.68,0,0,1,1.37-.18,1.49,1.49,0,0,1,.74,1.5c-.11.81-.85,1.43-.63,2.19a.61.61,0,0,0,.73.45,1.59,1.59,0,0,0,.73-.6,15.34,15.34,0,0,1,2.51-2.95c.24-.16.63-.2.69.17a1,1,0,0,1-.05.38A6.6,6.6,0,0,1,196.9,203.63Z"/><circle class="cls-9" cx="115.43" cy="184.53" r="2.1"/><circle class="cls-9" cx="192.31" cy="176.25" r="2.1"/></g></g></svg>