<svg xmlns="http://www.w3.org/2000/svg" xmlns:xlink="http://www.w3.org/1999/xlink" width="298.07" height="236.27"><defs><linearGradient id="名称未設定グラデーション_623" x1="148.62" y1="74.66" x2="206.51" y2="45.82" gradientUnits="userSpaceOnUse"><stop offset="0" stop-color="#79a6ab"/><stop offset=".06" stop-color="#7ea8ac"/><stop offset=".3" stop-color="#8dacae"/><stop offset=".58" stop-color="#96aeb0"/><stop offset="1" stop-color="#99afb0"/></linearGradient><linearGradient id="名称未設定グラデーション_2921" x1="119.29" y1="145.91" x2="166.18" y2="39.17" gradientUnits="userSpaceOnUse"><stop offset="0" stop-color="#94b7ba"/><stop offset=".45" stop-color="#a9c5c4"/><stop offset="1" stop-color="#c7d9d3"/></linearGradient><linearGradient id="名称未設定グラデーション_2922" x1="5.12" y1="101.59" x2="83.24" y2="19.05" gradientUnits="userSpaceOnUse"><stop offset="0" stop-color="#8bacb3"/><stop offset=".94" stop-color="#9fbcb7"/><stop offset="1" stop-color="#a1bdb7"/></linearGradient><linearGradient id="名称未設定グラデーション_2916" x1="98.92" y1="147.34" x2="124.16" y2="147.34" gradientTransform="rotate(23.17 -10.351 169.94)" gradientUnits="userSpaceOnUse"><stop offset="0" stop-color="#688494"/><stop offset=".57" stop-color="#75989e"/><stop offset="1" stop-color="#81aba8"/></linearGradient><linearGradient id="名称未設定グラデーション_2916-2" x1="162.2" y1="228.21" x2="177.52" y2="228.21" gradientTransform="rotate(-25.11 80.948 165.167)" xlink:href="#名称未設定グラデーション_2916"/><linearGradient id="名称未設定グラデーション_2916-3" x1="240.2" y1="54.14" x2="240.2" y2="20.04" gradientTransform="rotate(21.51 160.077 24.903)" xlink:href="#名称未設定グラデーション_2916"/><linearGradient id="名称未設定グラデーション_2916-4" x1="269.43" y1="54.14" x2="269.43" y2="20.04" gradientTransform="rotate(21.51 160.077 24.903)" xlink:href="#名称未設定グラデーション_2916"/><linearGradient id="名称未設定グラデーション_2916-5" x1="298.65" y1="54.14" x2="298.65" y2="20.04" gradientTransform="rotate(21.51 160.077 24.903)" xlink:href="#名称未設定グラデーション_2916"/><style>.cls-2{fill:#ebd0ca}.cls-6{fill:#e0898c}</style></defs><g id="レイヤー_2" data-name="レイヤー 2"><g id="Layer_2" data-name="Layer 2"><path d="M178.2 17.32c4-2.13 8.08-4.74 12.48-5a7.5 7.5 0 014.42 1.3c2.26 1.37 3 4.27 3.42 6.87a276 276 0 014.09 39.63c.3 10 0 20.22-3.08 29.75a6 6 0 01-1.87 3.13 4.31 4.31 0 01-4.39.07 12.32 12.32 0 01-3.46-3c-6.16-6.93-13.93-12.14-21.55-17.41a90.32 90.32 0 00-24.58-12c-4.17-1.36-6.41-6.24-5.78-8s2.76-4.33 3.93-5.67c8.23-9.44 13.27-14.1 24.27-22.29a137.8 137.8 0 0112.1-7.38z" fill="url(#名称未設定グラデーション_623)"/><path class="cls-2" d="M193.32 94.48a3.42 3.42 0 004.12-.4 8.41 8.41 0 002.25-3.79c1.74-5 2.25-10.36 2.56-15.65a222.36 222.36 0 00-.06-26.58c-.48-7.58-1.36-15.19-3.67-22.41a13.31 13.31 0 00-3.4-6.12 5.61 5.61 0 00-6.69-.76c-10.3 5.76-17.89 15.3-24.68 25a80 80 0 00-7.36 12.06c-1.42 3-2.4 7-.24 9.52a9.42 9.42 0 002.26 1.81l13.08 8.5c6.21 4 12.54 8.18 17 14.07a24.75 24.75 0 004.83 4.75z"/><path d="M195.54 89.57c6.64 6.68 9.28 15.75 9.87 24.57.86 12.71-2.07 25.35-3.61 38a175.51 175.51 0 00-.65 36.3c.51 5.81 1.27 11.82-.88 17.34a26.86 26.86 0 01-6 8.79c-10 10.28-24.87 16.18-40 19.16a141.78 141.78 0 01-63.17-2.28c-14.27-3.28-26.27-12.21-34.18-23s-12-23.48-14.15-36.17c-3.21-18.93-2.14-38.7 5.82-56.54A78.75 78.75 0 0192 74.46c17.2-6.55 36.66-7 55.36-5.5 9.53.74 19.13 2 28 5.17S190 84 195.54 89.57z" fill="#fff3ed"/><path d="M36.08 190.51a14.22 14.22 0 0010.34-2.63 32.25 32.25 0 007.52-7.88 92 92 0 0015.31-33.73 26.88 26.88 0 0041.16 3.16c3.58 6.8 11.64 10.58 19.32 10.2s14.86-4.45 20.17-10 8.94-12.51 11.81-19.65c3.15-7.82 5.48-16.05 6-23.35-5.19 20.14 4 43.14 21.59 54.2a15.49 15.49 0 007 2.72 13.36 13.36 0 008.29-2.75c6.45-4.46 10.39-12 11.68-19.7s.14-15.71-2-23.25a88.34 88.34 0 00-25.74-41.1 112.69 112.69 0 00-16.66-12.2c-12.88-7.88-27-14-42-16.4s-30.61-1.15-44.39 5c-20.94 9.41-35.75 29.36-43.58 51s-11.43 35.35-12.05 58.3c-.18 6.69 2.15 23.8 6.23 28.06z" fill="url(#名称未設定グラデーション_2921)"/><path d="M51 110.08a41.72 41.72 0 01-32.32 10.81 49.05 49.05 0 0016.82-13.82 26.31 26.31 0 01-31-.63 26.08 26.08 0 0015.5-8.1A18.88 18.88 0 018.72 84.86 22.56 22.56 0 008 81.51c-1.25-3.34-4.75-5.19-8-6.74a19.51 19.51 0 0119.62 4.17C19 54.9 24.09 30.85 33.28 8.63A18.6 18.6 0 0137.23 2C39.12.24 42-.72 45.83.66c7.1 1.5 13.51 5.25 19.55 9.28a196.15 196.15 0 0136.23 31.2c3.4 3.73 6.76 7.82 7.8 12.75a5.15 5.15 0 01-.12 3.11 4.09 4.09 0 01-3.1 2 86 86 0 00-46.61 45.48 7.76 7.76 0 01-2 3.18c-2.11 1.67-5.38 1.34-6.58 2.42z" fill="url(#名称未設定グラデーション_2922)"/><path class="cls-2" d="M48.18 8.85c-2.38.46-3.1 3.46-3.28 5.88A240.25 240.25 0 0050.24 85c.62 2.74 1.31 5.54 2.95 7.81s4.47 3.91 7.21 3.34c2.15-.45 3.82-2.11 5.32-3.72 9.72-10.43 18.6-22.1 30.94-29.21 1.91-1.1 4-2.18 5.08-4.1s1.9-5.54 1-7.63A57 57 0 0098.11 44C88.05 29.93 81.77 25.37 67 15.82c-3.2-2.06-12.25-7.24-16.05-7.57-1.56-.14-3.43.3-2.77.6z"/><path class="cls-6" d="M153.22 223.77a1.89 1.89 0 001.7.73 3.8 3.8 0 001.84-.93 11.31 11.31 0 011.58-1.23 19 19 0 013.17-1c1.06-.36 2.11-1.11 2-2 0-.67-.74-1.19-1.49-1.48-2.44-1-5.6-.19-7.77 1.28a5 5 0 00-1.78 1.84 2.63 2.63 0 00.75 2.79zM110.54 214.57a62.68 62.68 0 01-8.51 6.91c-.34.23-.84.44-1.11.13a.78.78 0 01-.14-.54 6.19 6.19 0 01.64-2.74c.21-.43.47-1 .22-1.36a1.1 1.1 0 00-.61-.41c-1.49-.47-3.09.32-4.31 1.31a2.87 2.87 0 01-1.36.77c-.53.07-1.14-.38-1-.89a1 1 0 01.2-.39 15.93 15.93 0 018.36-6.13c.48-.15 1.13-.2 1.33.26a1 1 0 010 .65 41.78 41.78 0 00-.73 4.57 1 1 0 000 .42c.22.49 1 .17 1.33-.2l3.33-3.18a3 3 0 011-.74 1 1 0 011.15.28c.35.45.09 1.06.21 1.28zM196.9 203.63a25.73 25.73 0 01-3.41 4 3.83 3.83 0 01-1.56 1 .55.55 0 01-.48-.06c-.38-.28-.29-1.11-.07-1.65a2.8 2.8 0 00.35-1.71.81.81 0 00-.75-.64 1.64 1.64 0 00-.88.34c-1.11.73-2.13 1.7-3.24 2.41a1.5 1.5 0 01-.85.31.79.79 0 01-.67-.69 1.71 1.71 0 01.69-1.46l2-1.84a14.33 14.33 0 013.26-2.46 1.68 1.68 0 011.37-.18 1.49 1.49 0 01.74 1.5c-.11.81-.85 1.43-.63 2.19a.61.61 0 00.73.45 1.59 1.59 0 00.73-.6 15.34 15.34 0 012.51-2.95c.24-.16.63-.2.69.17a1 1 0 01-.05.38 6.6 6.6 0 01-.48 1.49z"/><path d="M122.47 195a33.76 33.76 0 01-23.76 1.46c-1.83-.57-3 2.18-1.18 2.76a36.9 36.9 0 0026.06-1.44c1.76-.78.65-3.57-1.12-2.78z" fill="url(#名称未設定グラデーション_2916)"/><path d="M181.68 186.86a35.33 35.33 0 0013.57-1.86 1.5 1.5 0 00.72-2 1.52 1.52 0 00-2-.72 31.48 31.48 0 01-12 1.6c-1.93-.12-2.2 2.87-.27 3z" fill="url(#名称未設定グラデーション_2916-2)"/><path d="M224.47 81.71c-.68-.52-1.72-1.26-3.15-2.23a23.89 23.89 0 01-3.07-2.36 7.85 7.85 0 01-1.28-1.5 2.85 2.85 0 010-2 4.85 4.85 0 01.95-2.08 9.11 9.11 0 011.31-1.26c.46-.36 1.34-.94 2.65-1.74s2.74-1.74 4.29-2.84a36.33 36.33 0 003.75-3c.94-.89 1.86-1.78 2.75-2.68a7.73 7.73 0 001.79-2.48 17.48 17.48 0 00-2.55-2 23 23 0 00-3.32-1.57 8.21 8.21 0 01-2.81-1.58 1.88 1.88 0 01-.29-2 6.23 6.23 0 011.51-2.31 3 3 0 011.75-1.08c.49 0 2.73.8 6.75 2.45l6.65 2.72a2.26 2.26 0 011.12 1.25 3.62 3.62 0 01.41 1.78 7.25 7.25 0 01-.54 2 4.6 4.6 0 01-1.09 1.77 20.48 20.48 0 01-1.87 1.43q-1.25.87-4.8 3.61c-2.37 1.82-4.13 3.12-5.29 3.88s-2.43 1.65-3.81 2.66-2.41 1.8-3.09 2.39q4.62 3 6.89 4.19a32.59 32.59 0 013.14 1.76 4.63 4.63 0 011.28 1.25 1.65 1.65 0 01-.06 1.65 2.44 2.44 0 01-1.36 1.34 10.53 10.53 0 01-1.75.46 5.84 5.84 0 01-1.51.09 44.69 44.69 0 01-5.35-1.97z" fill="url(#名称未設定グラデーション_2916-3)"/><path d="M251.66 92.42c-.67-.52-1.72-1.26-3.14-2.22a23.44 23.44 0 01-3.08-2.36 8.16 8.16 0 01-1.28-1.51 2.85 2.85 0 010-2 4.85 4.85 0 011-2.08 9.11 9.11 0 011.26-1.25 30.33 30.33 0 012.65-1.73c1.3-.8 2.74-1.74 4.29-2.84a35.2 35.2 0 003.75-3c.94-.89 1.86-1.78 2.75-2.67a7.76 7.76 0 001.79-2.49 18.08 18.08 0 00-2.55-1.95 22.24 22.24 0 00-3.31-1.57 8.34 8.34 0 01-2.79-1.53 1.89 1.89 0 01-.29-2 6.26 6.26 0 011.49-2.38 3 3 0 011.8-1.16q.72 0 6.74 2.45l6.65 2.72a2.34 2.34 0 011.12 1.25 3.66 3.66 0 01.41 1.79 7.07 7.07 0 01-.54 2 4.55 4.55 0 01-1.09 1.76 17.51 17.51 0 01-1.87 1.44q-1.25.87-4.8 3.6c-2.37 1.83-4.13 3.12-5.29 3.89s-2.43 1.65-3.81 2.66-2.41 1.8-3.09 2.38a80.3 80.3 0 006.89 4.19 30.08 30.08 0 013.14 1.77 4.61 4.61 0 011.28 1.24 1.67 1.67 0 01-.06 1.66 2.42 2.42 0 01-1.36 1.33 10.58 10.58 0 01-1.75.47 6.26 6.26 0 01-1.51.08 43.34 43.34 0 01-5.4-1.94z" fill="url(#名称未設定グラデーション_2916-4)"/><path d="M278.85 103.14c-.67-.52-1.72-1.26-3.14-2.22a24.22 24.22 0 01-3.08-2.37 7.85 7.85 0 01-1.28-1.5 2.85 2.85 0 010-2 4.85 4.85 0 01.95-2.05 9.66 9.66 0 011.31-1.26c.46-.36 1.34-.94 2.65-1.74s2.74-1.74 4.29-2.84a35.27 35.27 0 003.75-3c.94-.89 1.86-1.78 2.75-2.68a7.58 7.58 0 001.79-2.48 16.69 16.69 0 00-2.55-2 21.76 21.76 0 00-3.29-1.48 8.16 8.16 0 01-2.82-1.59 1.88 1.88 0 01-.29-2 6.33 6.33 0 011.49-2.38 2.92 2.92 0 011.78-1.11q.72 0 6.74 2.45l6.66 2.72a2.29 2.29 0 011.11 1.25 3.52 3.52 0 01.41 1.78 7 7 0 01-.54 2 4.63 4.63 0 01-1.09 1.76 17.68 17.68 0 01-1.87 1.43q-1.24.87-4.8 3.61c-2.37 1.82-4.13 3.12-5.29 3.88s-2.43 1.65-3.81 2.66-2.41 1.8-3.09 2.39q4.62 3 6.89 4.19a32.59 32.59 0 013.14 1.76 4.77 4.77 0 011.28 1.25 1.63 1.63 0 01-.06 1.65 2.41 2.41 0 01-1.36 1.34 10.53 10.53 0 01-1.75.46 5.82 5.82 0 01-1.51.09 43.34 43.34 0 01-5.37-1.97z" fill="url(#名称未設定グラデーション_2916-5)"/></g></g></svg>