<svg xmlns="http://www.w3.org/2000/svg" width="78.44" height="170.22"><defs><linearGradient id="名称未設定グラデーション_457" x1="53.01" y1="250.28" x2="-20.64" y2="235.26" gradientTransform="rotate(27.1 353.922 192.127)" gradientUnits="userSpaceOnUse"><stop offset="0" stop-color="#ffefd6"/><stop offset=".14" stop-color="#fae1ca"/><stop offset=".36" stop-color="#f4d2be"/><stop offset=".62" stop-color="#f1c9b6"/><stop offset="1" stop-color="#f0c6b4"/></linearGradient><style>.cls-1{fill:#fff4e9}</style></defs><g id="レイヤー_2" data-name="レイヤー 2"><g id="Layer_2" data-name="Layer 2"><path class="cls-1" d="M63.79 1.28a24.7 24.7 0 00-22.45 3.46C31.71 12.1 26.49 23.82 22.93 35.4c-4.26 13.85-6.7 28.19-9.12 42.48q-5.49 32.3-11 64.59L.5 156.29c-.49 2.89-.82 6.21 0 8.91a7 7 0 002.55 3.8c2.36 1.7 5.68 1.51 8.31.26a23 23 0 006.64-5.57 241.07 241.07 0 0050.18-84.56 238.35 238.35 0 007.26-25.82 114.34 114.34 0 003-21.28c.33-11.65-4.95-27.61-14.65-30.75z"/><path class="cls-1" d="M68.18 79.13C51.85 113.2 27.85 146.71.49 165.2a7 7 0 002.56 3.8c2.36 1.7 5.68 1.51 8.31.26a23 23 0 006.64-5.57 241.07 241.07 0 0050.18-84.56z"/><path d="M68.18 79.13a238.35 238.35 0 007.26-25.82 114.34 114.34 0 003-21.28C78.78 20.38 73.5 4.42 63.8 1.28a24.7 24.7 0 00-22.46 3.46C31.71 12.1 26.49 23.82 22.93 35.4c-4.26 13.85-6.7 28.19-9.12 42.48q-5.49 32.3-11 64.59L.5 156.29c-.49 2.89-.82 6.21 0 8.91 27.35-18.49 51.35-52 67.68-86.07z" fill="url(#名称未設定グラデーション_457)"/></g></g></svg>