<svg xmlns="http://www.w3.org/2000/svg" width="64.3" height="177.15"><defs><linearGradient id="名称未設定グラデーション_457" x1="66.63" y1="94.25" x2="-7.02" y2="79.23" gradientUnits="userSpaceOnUse"><stop offset="0" stop-color="#ffefd6"/><stop offset=".14" stop-color="#fae1ca"/><stop offset=".36" stop-color="#f4d2be"/><stop offset=".62" stop-color="#f1c9b6"/><stop offset="1" stop-color="#f0c6b4"/></linearGradient><style>.cls-1{fill:#fff4e9}</style></defs><g id="レイヤー_2" data-name="レイヤー 2"><g id="Layer_2" data-name="Layer 2"><path class="cls-1" d="M61.82 67.41a239.52 239.52 0 00-5.33-26.29 115.06 115.06 0 00-7.06-20.3c-5-10.51-17-22.31-27.06-20.67A24.67 24.67 0 004 13.48C-1.23 24.42-.53 37.23 1.59 49.16c2.53 14.27 6.91 28.14 11.28 42q9.86 31.23 19.73 62.47 2.11 6.67 4.22 13.37c.89 2.79 2.11 5.89 4.07 7.93a7 7 0 004 2.19c2.88.44 5.75-1.25 7.51-3.56s2.61-5.17 3.38-8a241.09 241.09 0 006.04-98.15z"/><path class="cls-1" d="M61.82 67.41c1 37.76-5 78.54-20.93 107.48a7 7 0 004 2.19c2.88.44 5.75-1.25 7.51-3.56s2.61-5.17 3.38-8a241.09 241.09 0 006.04-98.11z"/><path d="M61.82 67.41a239.52 239.52 0 00-5.33-26.29 115.06 115.06 0 00-7.06-20.3c-5-10.51-17-22.31-27.06-20.67A24.67 24.67 0 004 13.48C-1.23 24.42-.53 37.23 1.59 49.16c2.53 14.27 6.91 28.14 11.28 42q9.86 31.23 19.73 62.47 2.11 6.67 4.22 13.37c.89 2.79 2.11 5.89 4.07 7.93C56.79 146 62.84 105.17 61.82 67.41z" fill="url(#名称未設定グラデーション_457)"/></g></g></svg>