<svg xmlns="http://www.w3.org/2000/svg" xmlns:xlink="http://www.w3.org/1999/xlink" width="210.74" height="405.7" viewBox="0 0 210.74 405.7"><defs><style>.cls-1{fill:url(#名称未設定グラデーション_2363);}.cls-2{fill:url(#名称未設定グラデーション_2875);}.cls-3{fill:url(#名称未設定グラデーション_2967);}.cls-4{fill:url(#名称未設定グラデーション_2875-2);}.cls-5{fill:url(#名称未設定グラデーション_2920);}.cls-6{fill:url(#名称未設定グラデーション_2920-2);}.cls-7{fill:url(#名称未設定グラデーション_2919);}.cls-8{fill:url(#名称未設定グラデーション_2875-3);}.cls-9{fill:url(#名称未設定グラデーション_2917);}.cls-10{fill:url(#名称未設定グラデーション_2916);}</style><linearGradient id="名称未設定グラデーション_2363" x1="107.62" y1="297.52" x2="40.44" y2="324.78" gradientUnits="userSpaceOnUse"><stop offset="0" stop-color="#db9c4a"/><stop offset="0.06" stop-color="#e0a44c"/><stop offset="0.25" stop-color="#edbb52"/><stop offset="0.47" stop-color="#f7cc56"/><stop offset="0.7" stop-color="#fdd658"/><stop offset="1" stop-color="#ffd959"/></linearGradient><linearGradient id="名称未設定グラデーション_2875" x1="119.92" y1="308.01" x2="189.75" y2="274.09" gradientUnits="userSpaceOnUse"><stop offset="0" stop-color="#db914d"/><stop offset="0.09" stop-color="#e19e4d"/><stop offset="0.3" stop-color="#eeb84e"/><stop offset="0.52" stop-color="#f8ca4f"/><stop offset="0.75" stop-color="#fdd54f"/><stop offset="1" stop-color="#ffd94f"/></linearGradient><linearGradient id="名称未設定グラデーション_2967" x1="97.51" y1="301.39" x2="77.56" y2="383.19" gradientUnits="userSpaceOnUse"><stop offset="0" stop-color="#db914d"/><stop offset="0.11" stop-color="#e19c4d"/><stop offset="0.48" stop-color="#f1bd4e"/><stop offset="0.79" stop-color="#fbd24f"/><stop offset="1" stop-color="#ffd94f"/></linearGradient><linearGradient id="名称未設定グラデーション_2875-2" x1="125.76" y1="332.43" x2="242.88" y2="338.65" xlink:href="#名称未設定グラデーション_2875"/><linearGradient id="名称未設定グラデーション_2920" x1="100.59" y1="295.62" x2="100.59" y2="403.37" gradientUnits="userSpaceOnUse"><stop offset="0" stop-color="#7ea7b0"/><stop offset="0.57" stop-color="#92b5b9"/><stop offset="1" stop-color="#a5c1c2"/></linearGradient><linearGradient id="名称未設定グラデーション_2920-2" x1="131.79" y1="288.6" x2="131.79" y2="397.88" xlink:href="#名称未設定グラデーション_2920"/><linearGradient id="名称未設定グラデーション_2919" x1="111.14" y1="312.71" x2="126.51" y2="406.34" gradientUnits="userSpaceOnUse"><stop offset="0" stop-color="#688494"/><stop offset="0.12" stop-color="#6f8f99"/><stop offset="0.36" stop-color="#799fa2"/><stop offset="0.63" stop-color="#7fa8a6"/><stop offset="1" stop-color="#81aba8"/></linearGradient><linearGradient id="名称未設定グラデーション_2875-3" x1="94.23" y1="300.37" x2="126.48" y2="300.37" xlink:href="#名称未設定グラデーション_2875"/><linearGradient id="名称未設定グラデーション_2917" x1="99.4" y1="306.84" x2="30.74" y2="52.36" gradientUnits="userSpaceOnUse"><stop offset="0" stop-color="#8bacb3"/><stop offset="0.94" stop-color="#9fbcb7"/><stop offset="1" stop-color="#a1bdb7"/></linearGradient><linearGradient id="名称未設定グラデーション_2916" x1="87.94" y1="310.53" x2="26.96" y2="44.05" gradientUnits="userSpaceOnUse"><stop offset="0" stop-color="#688494"/><stop offset="0.57" stop-color="#75989e"/><stop offset="1" stop-color="#81aba8"/></linearGradient></defs><g id="レイヤー_2" data-name="レイヤー 2"><g id="Layer_2" data-name="Layer 2"><path class="cls-1" d="M104.67,317.74c-6,8.75-12.48,17.28-20.29,24.48S67.31,355.28,57,358c-3.58.93-7.88,1.3-10.53-1.29-1.79-1.75-2.32-4.43-2.36-6.94-.07-3.57.65-7.1,1.07-10.65a64.32,64.32,0,0,0-5.93-35.38c-2.12-4.38-4.83-9.16-3.4-13.82s6.91-7.3,11.86-7.06,9.51,2.65,13.85,5c9.37,5.13,18.76,10.48,29,13.35a56.47,56.47,0,0,1,9,2.81c2.84,1.33,5.45,3.5,6.49,6.46S106.17,317.18,104.67,317.74Z"/><path class="cls-2" d="M113.39,293.41a216.64,216.64,0,0,0,49-48c3.26-4.42,6.67-9.21,11.82-11.12a4.71,4.71,0,0,1,3.64-.13,5.28,5.28,0,0,1,1.93,2.07c3.39,5.55,5,12,7.22,18.07a99.18,99.18,0,0,0,14.79,26.95c3.16,4.1,6.73,8.1,8.26,13,2.4,7.76-1.2,16.83-8,21.22a30.54,30.54,0,0,1-11.38,4,65.59,65.59,0,0,1-29.38-1.61c-10.48-3-20.2-8.69-31-10.46-4-.66-8.27-.81-11.82-2.79A10.58,10.58,0,0,1,113.39,293.41Z"/><path class="cls-3" d="M102.35,309.86c-.53,5.88,1.33,11.67,3,17.34A146.21,146.21,0,0,1,111,356.91c.55,7.69,0,16.19-5.3,21.83a11.49,11.49,0,0,1-7.35,3.84,18.25,18.25,0,0,1-6.61-1.26c-4.92-1.55-10-2.93-15.17-2.33-3.79.45-7.4,2-11.19,2.41-4.83.57-10.33-1.06-12.66-5.33a11.62,11.62,0,0,1-.76-8.27,28.52,28.52,0,0,1,3.5-7.71c6.86-11.47,15.79-21.67,22-33.5a127.79,127.79,0,0,0,8.3-20.7c.7-2.18,1.45-4.5,3.21-6,3.09-2.56,8.13-1.18,10.61,2A14.74,14.74,0,0,1,102.35,309.86Z"/><path class="cls-4" d="M120.48,294.64c2.17-1.7,7.6-.46,10.21.45,9.35,3.26,31.09,13.73,48.39,18.91a60.44,60.44,0,0,1,11.47,4.25,14.59,14.59,0,0,1,5.4,4.6,7.53,7.53,0,0,1,.93,6.82c-1.18,2.86-4.29,4.31-7,5.69-5.44,2.71-10.68,6.22-14.06,11.26-3.27,4.89-4.56,10.82-7.2,16.08s-7.57,10.18-13.44,9.84a13,13,0,0,1-8.51-4.49,33.27,33.27,0,0,1-5.15-8.37A165.56,165.56,0,0,1,130,327.06c-1.31-5.52-2.37-11.2-5-16.22-1.64-3.14-3.86-5.94-5.59-9a7.45,7.45,0,0,1-1.25-4.29C118.35,296,119.66,294.55,120.48,294.64Z"/><path class="cls-5" d="M95.71,310a187,187,0,0,1-4.62,79.83c-.7,2.46-1.45,5-1.2,7.53s1.75,5.15,4.21,5.86a6.35,6.35,0,0,0,5.94-1.81,15.85,15.85,0,0,0,3.35-5.51c3.55-8.59,5.28-17.82,6.43-27.05,2.83-22.7,2.23-46.33-6.09-67.64a10.34,10.34,0,0,0-2.85-4.58c-1.42-1.14-3.71-1.4-5-.09-1,1-1.07,2.52-1.06,3.91A68.1,68.1,0,0,0,95.71,310Z"/><path class="cls-6" d="M118.9,288.6c7.52,10.13,12.33,22,16.79,33.76,7.59,20,14.53,41,12.74,62.37-.26,3.09-.74,6.27-2.37,8.91s-4.66,4.63-7.72,4.18-5.47-3.33-6.35-6.37-.6-6.27-.43-9.44c1.5-28.1-5.7-56-15.41-82.42-.82-2.22-1.66-4.6-1.1-6.9S118.25,288.46,118.9,288.6Z"/><path class="cls-7" d="M113.42,289.21c17.45,27,28.76,58.86,26.57,90.9-.52,7.56-2.18,15.8-8.1,20.54-4.89,3.91-11.56,4.52-17.82,5-3.09.22-6.76.19-8.56-2.34-1.66-2.31-.83-5.5-.07-8.25,4.08-14.86,4-30.5,3.83-45.91-.13-14.07-.31-28.44-5-41.71-1.13-3.21-2.52-6.39-2.79-9.78s.89-7.14,3.79-8.92S112.84,288.31,113.42,289.21Z"/><path class="cls-8" d="M120.63,288.6a18.81,18.81,0,0,1,5.62,8.57,3.28,3.28,0,0,1,.18,1.72,3.39,3.39,0,0,1-1.24,1.67,28.67,28.67,0,0,1-6.07,3.6q-7.11,3.42-14.45,6.4c-2.62,1.07-5.52,2.11-8.23,1.31a2.19,2.19,0,0,1-1.08-.61,2.36,2.36,0,0,1-.39-1.15c-.27-1.8-.49-3.61-.67-5.41a4.88,4.88,0,0,1,.31-2.84A4.55,4.55,0,0,1,96,300.47c7.19-5.35,18.13-5.15,24.14-11.69C120.56,289.05,121,289.33,120.63,288.6Z"/><path class="cls-9" d="M109.49,300.3c12.63-1.43,23.39-10.58,29.79-21.57,11.95-20.5,10.53-46.51,2.76-68.93s-21.22-42.35-33-63A468.15,468.15,0,0,1,63.59,36.72c-2-7.5-3.9-15.14-7.74-21.89S45.84,2.24,38.54.46C28.25-1.86,17.6,4.82,12.08,13.8s-7,19.8-8.14,30.29a689,689,0,0,0,.8,154.27c2.42,20.46,5.81,41,13.81,60s15,31.44,33,41.45c6.55,3.64,20.85,7.29,28.35,7.21C91.31,306.92,99.65,301.42,109.49,300.3Z"/><path class="cls-10" d="M28.09,1.87c6.31-1,11.46,4.9,14.65,10.44,12.45,21.58,16.54,46.79,22,71.1a566.24,566.24,0,0,0,31.39,97.06c4.81,11.29,10,22.43,14,34a182.17,182.17,0,0,1,9.42,44.19c.89,10.45.76,21.51-4.26,30.72-6.59,12.1-21.73,18.84-35.12,15.64-6.66-1.6-12.64-5.31-18-9.6-20-16.11-32-40.48-38.08-65.44s-6.91-50.85-8.36-76.5C13.21,107.19,8.51,60,19.36,15,20.73,9.29,23.63,2.58,28.09,1.87Z"/></g></g></svg>