<svg xmlns="http://www.w3.org/2000/svg" xmlns:xlink="http://www.w3.org/1999/xlink" width="265.12" height="462.66" viewBox="0 0 265.12 462.66"><defs><style>.cls-1{fill:url(#名称未設定グラデーション_2890);}.cls-2{fill:url(#名称未設定グラデーション_2890-2);}.cls-3{fill:url(#名称未設定グラデーション_2890-3);}.cls-4{fill:url(#名称未設定グラデーション_2889);}.cls-5{fill:url(#名称未設定グラデーション_2888);}.cls-6{fill:url(#名称未設定グラデーション_2363);}.cls-7{fill:url(#名称未設定グラデーション_2363-2);}.cls-8{fill:url(#名称未設定グラデーション_2875);}.cls-9{fill:url(#名称未設定グラデーション_2875-2);}.cls-10{fill:url(#名称未設定グラデーション_2499);}.cls-11{fill:url(#名称未設定グラデーション_2499-2);}.cls-12{fill:#f4dd69;}.cls-13{fill:url(#名称未設定グラデーション_2410);}</style><linearGradient id="名称未設定グラデーション_2890" x1="186.23" y1="327.67" x2="122.39" y2="3.44" gradientUnits="userSpaceOnUse"><stop offset="0" stop-color="#89acb3"/><stop offset="0.9" stop-color="#9dbbb6"/><stop offset="1" stop-color="#a0bdb6"/></linearGradient><linearGradient id="名称未設定グラデーション_2890-2" x1="83.7" y1="338.19" x2="83.7" y2="447.05" xlink:href="#名称未設定グラデーション_2890"/><linearGradient id="名称未設定グラデーション_2890-3" x1="118.65" y1="335.31" x2="118.65" y2="460.97" xlink:href="#名称未設定グラデーション_2890"/><linearGradient id="名称未設定グラデーション_2889" x1="99.48" y1="338.44" x2="99.48" y2="462.66" gradientUnits="userSpaceOnUse"><stop offset="0" stop-color="#8bbcbf"/><stop offset="0.4" stop-color="#a0c6c6"/><stop offset="1" stop-color="#c5d9d3"/></linearGradient><linearGradient id="名称未設定グラデーション_2888" x1="115.01" y1="319.52" x2="229.19" y2="30.46" gradientUnits="userSpaceOnUse"><stop offset="0" stop-color="#b7cfd1"/><stop offset="0.47" stop-color="#c6d9d3"/><stop offset="1" stop-color="#c6d9d3" stop-opacity="0.3"/></linearGradient><linearGradient id="名称未設定グラデーション_2363" x1="78.86" y1="343.96" x2="41.52" y2="436.87" gradientUnits="userSpaceOnUse"><stop offset="0" stop-color="#db9c4a"/><stop offset="0.06" stop-color="#e0a44c"/><stop offset="0.25" stop-color="#edbb52"/><stop offset="0.47" stop-color="#f7cc56"/><stop offset="0.7" stop-color="#fdd658"/><stop offset="1" stop-color="#ffd959"/></linearGradient><linearGradient id="名称未設定グラデーション_2363-2" x1="158.28" y1="367.6" x2="143.04" y2="451.84" xlink:href="#名称未設定グラデーション_2363"/><linearGradient id="名称未設定グラデーション_2875" x1="90.84" y1="297.7" x2="41.09" y2="332.93" gradientUnits="userSpaceOnUse"><stop offset="0" stop-color="#db914d"/><stop offset="0.09" stop-color="#e19e4d"/><stop offset="0.3" stop-color="#eeb84e"/><stop offset="0.52" stop-color="#f8ca4f"/><stop offset="0.75" stop-color="#fdd54f"/><stop offset="1" stop-color="#ffd94f"/></linearGradient><linearGradient id="名称未設定グラデーション_2875-2" x1="168.07" y1="324" x2="202.94" y2="382.97" xlink:href="#名称未設定グラデーション_2875"/><linearGradient id="名称未設定グラデーション_2499" x1="72.12" y1="343.63" x2="50.84" y2="315.25" gradientUnits="userSpaceOnUse"><stop offset="0" stop-color="#f2a622"/><stop offset="0.15" stop-color="#f0af33" stop-opacity="0.86"/><stop offset="0.74" stop-color="#eacf72" stop-opacity="0.32"/><stop offset="1" stop-color="#e8dc8b" stop-opacity="0.1"/></linearGradient><linearGradient id="名称未設定グラデーション_2499-2" x1="148.33" y1="349.35" x2="220.6" y2="394.14" xlink:href="#名称未設定グラデーション_2499"/><linearGradient id="名称未設定グラデーション_2410" x1="136.13" y1="371.6" x2="123.71" y2="351.65" gradientUnits="userSpaceOnUse"><stop offset="0" stop-color="#ebc252"/><stop offset="0.46" stop-color="#edc553"/><stop offset="0.85" stop-color="#f2d057"/><stop offset="1" stop-color="#f5d65a"/></linearGradient></defs><g id="レイヤー_2" data-name="レイヤー 2"><g id="Layer_2" data-name="Layer 2"><path class="cls-1" d="M139.26,343.13c22.61,5.74,47.32-.8,66.18-14.53s32.25-34,40.74-55.73,12.36-45,14.95-68.15a652.67,652.67,0,0,0-1.86-159.24C257.32,31,254.65,16,247.61,4.44c-7.14-5.11-17.34-3.82-24.82.77s-12.84,11.85-18,18.94L122.9,136.37c-19.75,27.06-39.54,54.19-56.33,83.17-9.91,17.1-19,35.68-18.9,55.44s11.92,40.76,31.47,45.79C100.25,326.44,119.4,338.09,139.26,343.13Z"/><path class="cls-2" d="M107.24,339.8c-8.85,11.78-34.4,53.94-49.13,83.17-1.12,2.24-5.78,10.44-5.33,12.91.29,1.64,1.77,5.58,2.88,6.83,3.74,4.19,11.47,5,15.94,3.93,2.15-13.5,8.26-26,14.13-38.34q11.79-24.82,22.68-50.07c1.31-3,3.67-8.24,4.59-10.52a38.21,38.21,0,0,0,1.64-6.55C115,338.35,109.46,336.85,107.24,339.8Z"/><path class="cls-3" d="M133.77,340.82c-5.05,33.42-6.54,67.27-7.81,101a30.89,30.89,0,0,1-1.13,8.53,15.87,15.87,0,0,1-16,10.52,6.09,6.09,0,0,1-4.1-1.71c-1.28-1.47-1.23-3.64-1.1-5.59C106,418,109,382.09,118.31,347.6c1.36-5,3.6-10.76,8.62-12.09a4.72,4.72,0,0,1,4.71,1.05,4.93,4.93,0,0,1,1,1.93C133.33,340.72,133.31,343.17,133.77,340.82Z"/><path class="cls-4" d="M114.84,339.81c-5,11.47-11.14,21.36-16.14,32.81-3.7,8.47-19.78,43.67-21.83,67.92-.68,8.09-3.06,12.46,6.26,17.73a34.39,34.39,0,0,0,14,4.32c2.58.21,5.43,0,7.35-1.69,1.75-1.58,2.29-4.07,2.74-6.38,5.56-29.07,9.27-58.47,13-87.84L122.71,347c.41-3.22.15-7.51-3-8.37C117.42,337.94,115.23,339.79,114.84,339.81Z"/><path class="cls-5" d="M244.37,2.67c10.22,39.61,7.28,81.46.75,121.85-9.2,56.83-25.54,112.91-52.93,163.55-8,14.84-17.2,29.44-30.06,40.36s-30,17.83-46.67,15.15c-18.58-3-34-17.74-40.78-35.28S68.8,270.93,74,252.84,88.43,218.12,98.09,202c16.67-27.89,34.85-54.84,53-81.78L226.19,8.86c2.19-3.26,5.68-6.86,8.31-8C236.79-.22,243.41-.85,244.37,2.67Z"/><path class="cls-6" d="M118.07,365.05C94,380.29,76,403.59,53.23,420.75c-1.89,1.42-4.15,2.88-6.45,2.31s-3.6-2.85-4.48-5c-1.27-3.09-2.15-6.33-3.13-9.52a141.61,141.61,0,0,0-18.53-38.32,2.1,2.1,0,0,1-.52-1.42,2,2,0,0,1,1-1.18c13.58-9.37,30.11-13.25,46.26-16.6,13.66-2.83,27.85-5.43,41.45-2.34a21.26,21.26,0,0,1,7.83,3.18,9.89,9.89,0,0,1,4.3,7A7.4,7.4,0,0,1,118.07,365.05Z"/><path class="cls-7" d="M119.34,358.58c-1.74,11.54-.7,23.36,1.76,34.77s6.34,22.44,10.32,33.41q2.6,7.17,5.26,14.32c1,2.69,2.65,5.85,5.52,5.87,1.79,0,3.29-1.29,4.57-2.54a132.82,132.82,0,0,0,10.76-11.74,65.68,65.68,0,0,1,7.42-8.36c5.94-5.18,13.82-7.38,21.34-9.75,1.9-.6,3.94-1.32,5.06-3a6.14,6.14,0,0,0,.51-5.29,16.4,16.4,0,0,0-2.78-4.71c-16.14-21-39.68-34.85-63-47.5-1.61-.88-3.51-1.77-5.19-1C118.56,354.11,118.53,357.49,119.34,358.58Z"/><path class="cls-8" d="M104.51,355.19a174.91,174.91,0,0,1-83.26,16.1c-4.8-.27-9.74-.78-14-3.06S-.34,361.49,0,356.69a19.66,19.66,0,0,1,2-6.37c5.47-12.27,10.4-25.06,11.18-38.46.38-6.63-.26-13.29.15-19.92a15,15,0,0,1,1.75-7,10.9,10.9,0,0,1,7.3-4.65,24,24,0,0,1,8.85.31A59.45,59.45,0,0,1,50.78,288a107.73,107.73,0,0,1,11.7,8.47q23.07,18.42,44.41,38.87a12.19,12.19,0,0,1,2.83,3.5,9.15,9.15,0,0,1,.68,4.18C110.2,348.28,107.63,353.73,104.51,355.19Z"/><path class="cls-9" d="M135.93,361.86a271.64,271.64,0,0,0,40.52,47.52c3.59,3.34,7.33,6.62,11.75,8.73s9.67,2.94,14.26,1.21c5.8-2.18,9.48-7.93,11.66-13.73s3.29-12,6.11-17.52c1.84-3.6,4.36-6.8,6.56-10.18a99.15,99.15,0,0,0,7.28-13.74,34.38,34.38,0,0,0,3.08-9.46,13.25,13.25,0,0,0-2.05-9.53c-2.19-3-5.82-4.49-9.36-5.52-12-3.49-24.74-3-37.11-1.34s-24.34,2.06-36.79,2.82c-3.71.23-9.42.34-13.14.34s-4.59,3.69-4.89,6.58C133.22,353.64,133,357.53,135.93,361.86Z"/><path class="cls-10" d="M104,349.76a206.29,206.29,0,0,0-41.95-6c-7.92-.31-16.52-.39-22.71-5.32-2.64-2.1-4.72-5.37-4.1-8.68A8.09,8.09,0,0,1,40.69,324a15.84,15.84,0,0,1,8.26-.22A30.9,30.9,0,0,1,59,327.66c3,1.83,5.69,4.15,8.59,6.15,10.31,7.1,22.92,9.77,35,12.91.92.24,2,.6,2.31,1.49S103.93,350.22,104,349.76Z"/><path class="cls-11" d="M142.11,355.59c12.95,10.39,26.4,21.05,42.45,25.3,6.57,1.74,14,2.24,19.81-1.24,1.63-1,3.23-2.52,3.16-4.43-.11-2.88-3.67-4.14-6.54-4.44-8.71-.92-17.59.08-26.21-1.49-12.47-2.28-23.31-9.72-33.71-17C139.79,353.35,140.64,355.87,142.11,355.59Z"/><path class="cls-12" d="M139.81,336.62a21.65,21.65,0,0,0-5.75-.91,122,122,0,0,1-22.31-3.55c-2.4-.61-5.26-1.2-7.11.45a6.15,6.15,0,0,0-1.34,1.92c-1.86,3.78-2.33,8.06-2.77,12.25-.47,4.51-.77,9.55,1.34,13.38,3.42-1.49,7.31-2.35,10.9-3.45C123.73,353.37,133.82,346.27,139.81,336.62Z"/><path class="cls-13" d="M109.67,365.9a46.5,46.5,0,0,0,21.47,2.31c3.2-.41,6.67-1.38,8.42-4.09a12.68,12.68,0,0,0,1.51-5.64q.78-7.22,1.55-14.42c.22-2,1-4.61-.12-5.79a7.08,7.08,0,0,0-2.69-1.65c-6,9.65-16.08,16.75-27,20.09-3.59,1.1-7.48,2-10.9,3.45a10.47,10.47,0,0,0,1.48,2.07A15.93,15.93,0,0,0,109.67,365.9Z"/></g></g></svg>