<svg xmlns="http://www.w3.org/2000/svg" xmlns:xlink="http://www.w3.org/1999/xlink" width="78.44" height="170.22" viewBox="0 0 78.44 170.22"><defs><style>.cls-1{fill:#fff4e9;}.cls-2{fill:url(#名称未設定グラデーション_457);}</style><linearGradient id="名称未設定グラデーション_457" x1="53.01" y1="250.28" x2="-20.64" y2="235.26" gradientTransform="matrix(0.89, 0.46, -0.46, 0.89, 127.31, -141.67)" gradientUnits="userSpaceOnUse"><stop offset="0" stop-color="#ffefd6"/><stop offset="0.14" stop-color="#fae1ca"/><stop offset="0.36" stop-color="#f4d2be"/><stop offset="0.62" stop-color="#f1c9b6"/><stop offset="1" stop-color="#f0c6b4"/></linearGradient></defs><g id="レイヤー_2" data-name="レイヤー 2"><g id="Layer_2" data-name="Layer 2"><path class="cls-1" d="M63.79,1.28A24.7,24.7,0,0,0,41.34,4.74C31.71,12.1,26.49,23.82,22.93,35.4c-4.26,13.85-6.7,28.19-9.12,42.48q-5.49,32.3-11,64.59L.5,156.29c-.49,2.89-.82,6.21,0,8.91A7,7,0,0,0,3.05,169c2.36,1.7,5.68,1.51,8.31.26A23,23,0,0,0,18,163.69,241.07,241.07,0,0,0,68.18,79.13a238.35,238.35,0,0,0,7.26-25.82,114.34,114.34,0,0,0,3-21.28C78.77,20.38,73.49,4.42,63.79,1.28Z"/><path class="cls-1" d="M68.18,79.13C51.85,113.2,27.85,146.71.49,165.2A7,7,0,0,0,3.05,169c2.36,1.7,5.68,1.51,8.31.26A23,23,0,0,0,18,163.69,241.07,241.07,0,0,0,68.18,79.13Z"/><path class="cls-2" d="M68.18,79.13a238.35,238.35,0,0,0,7.26-25.82,114.34,114.34,0,0,0,3-21.28c.34-11.65-4.94-27.61-14.64-30.75A24.7,24.7,0,0,0,41.34,4.74C31.71,12.1,26.49,23.82,22.93,35.4c-4.26,13.85-6.7,28.19-9.12,42.48q-5.49,32.3-11,64.59L.5,156.29c-.49,2.89-.82,6.21,0,8.91C27.85,146.71,51.85,113.2,68.18,79.13Z"/></g></g></svg>