<svg xmlns="http://www.w3.org/2000/svg" width="70.63" height="24.91" viewBox="0 0 70.63 24.91"><path d="M43.07,0C26.39.47,15.53,7.91,11.12,8.14h-.29l-.28,0h0C8.08,7.8.07-3.39,0,2.15A23.78,23.78,0,0,0,1.1,8c.53,1.87,1.29,2.78,1.29,3.67s-.76,1.81-1.29,3.68c-.07.25-.14.5-.2.75v0c-.06.22-.12.44-.17.65a1.49,1.49,0,0,0,0,.18l-.12.48c0,.07,0,.15-.05.22l-.09.38c0,.08,0,.15,0,.22s0,.24-.07.35a1.77,1.77,0,0,0,0,.2l-.06.33,0,.19c0,.1,0,.2,0,.29l0,.19,0,.25c0,.07,0,.12,0,.18s0,.16,0,.23a.92.92,0,0,0,0,.16,1.48,1.48,0,0,0,0,.21A.76.76,0,0,0,0,21v.18a.66.66,0,0,0,0,.14v.16s0,.08,0,.12,0,.09,0,.14a.36.36,0,0,0,0,.1s0,.09,0,.13l0,.09,0,.1,0,.08a.36.36,0,0,1,0,.09.21.21,0,0,1,0,.06l0,.08,0,.05a.12.12,0,0,0,.05,0l0,0,.06,0,.06,0,.07,0H1l.09,0h.07l.1,0,.08,0,.1,0,.08,0,.11,0,.09,0,.11-.06.09-.05L2,22.31l.09-.06.12-.08.09-.06L2.48,22,2.57,22l.14-.1.09-.07.14-.12L3,21.59l.15-.12.09-.08.16-.13.09-.07L3.68,21,3.77,21l.17-.16L4,20.74l.19-.17.06-.06.2-.18.06,0,.22-.21,0,0C5.86,19,7,17.88,8,17H8l.23-.21h0l.22-.19,0,0,.2-.18,0,0,.2-.16,0,0L9.12,16l0,0,.18-.13,0,0a.66.66,0,0,1,.17-.12l0,0,.16-.11h0l.16-.1h0l.15-.08h0a.35.35,0,0,1,.14-.06h0l.13,0,.13,0c3.9-.51,14.65,7.32,31.56,8.07.73,2.62,3.2,1.61,5.56-.15,7.4-.76,15.08-3.62,19.42-6.74a.77.77,0,0,0,.31-.86,1.68,1.68,0,0,1-.06-.45,2.15,2.15,0,0,1,2.34-1.89h0a.83.83,0,0,0,.79-.53,2.82,2.82,0,0,0,.19-1C70.63,6.68,55.33-.32,43.07,0Z" fill="#073e51"/></svg>