<svg xmlns="http://www.w3.org/2000/svg" width="70.63" height="24.91"><path d="M43.07 0C26.39.47 15.53 7.91 11.12 8.14H10.55C8.08 7.8.07-3.39 0 2.15A23.78 23.78 0 001.1 8c.53 1.87 1.29 2.78 1.29 3.67s-.76 1.81-1.29 3.68c-.07.25-.14.5-.2.75-.06.22-.12.44-.17.65a1.49 1.49 0 000 .18l-.12.48c0 .07 0 .15-.05.22l-.09.38v.22c0 .07 0 .24-.07.35a1.77 1.77 0 000 .2l-.06.33V20.44a.92.92 0 000 .16 1.48 1.48 0 000 .21A.76.76 0 000 21v.18a.66.66 0 000 .14V21.74a.36.36 0 000 .1v.4a.36.36 0 010 .09.21.21 0 010 .06v.13a.12.12 0 00.05 0H1.72l.11-.06.09-.05.08-.1.09-.06.12-.08.09-.06.18-.11h.09l.14-.1.09-.07.14-.12.06-.12.15-.12.09-.08.16-.13.09-.07.19-.19h.09l.17-.16.06-.1.19-.17.06-.06.2-.18h.06l.22-.21C5.86 19 7 17.88 8 17l.23-.21.22-.19.2-.18.2-.16.27-.26.18-.13a.66.66 0 01.17-.12l.16-.11.16-.1.15-.08a.35.35 0 01.14-.06h.26c3.9-.51 14.65 7.32 31.56 8.07.73 2.62 3.2 1.61 5.56-.15 7.4-.76 15.08-3.62 19.42-6.74a.77.77 0 00.31-.86 1.68 1.68 0 01-.06-.45 2.15 2.15 0 012.34-1.89.83.83 0 00.79-.53 2.82 2.82 0 00.19-1C70.63 6.68 55.33-.32 43.07 0z" fill="#073e51"/></svg>