<svg xmlns="http://www.w3.org/2000/svg" xmlns:xlink="http://www.w3.org/1999/xlink" width="149.12" height="52.58"><defs><linearGradient id="b" x1="70.3" y1="-8.61" x2="74.7" y2="36.24" gradientUnits="userSpaceOnUse"><stop offset="0" stop-color="#72a5c4"/><stop offset=".34" stop-color="#85baca"/><stop offset=".74" stop-color="#a1d7d2"/><stop offset="1" stop-color="#c6e6e2"/></linearGradient><linearGradient id="a" x1="21.71" y1="25.99" x2="3.7" y2="24.79" gradientUnits="userSpaceOnUse"><stop offset="0" stop-color="#8ec2cf"/><stop offset=".23" stop-color="#a8d1d9"/><stop offset=".54" stop-color="#c5e2e5"/><stop offset=".81" stop-color="#d7ecec"/><stop offset="1" stop-color="#ddf0ee"/></linearGradient><linearGradient id="c" x1="111.28" y1="39.7" x2="93.7" y2="38.53" xlink:href="#a"/><linearGradient id="d" x1="595.71" y1="-85.85" x2="586.81" y2="-86.45" gradientTransform="rotate(45 228.36 -597.88)" gradientUnits="userSpaceOnUse"><stop offset="0" stop-color="#688494"/><stop offset=".57" stop-color="#75989e"/><stop offset="1" stop-color="#81aba8"/></linearGradient></defs><g data-name="レイヤー 2"><g data-name="レイヤー 1"><path d="M142.09 31.91c0-2.21 2.21-4 4.94-4a1.76 1.76 0 001.67-1.12 6.09 6.09 0 00.41-2.13c0-10.55-32.3-25.35-58.19-24.64C54 1 30.6 18.25 22.2 17.15 16 16.33-7.38-17.94 2.33 16.9c1.1 4 2.72 5.89 2.72 7.76s-1.62 3.81-2.72 7.76C-7.38 67.26 16 33 22.2 32.17c8.4-1.1 31.8 16.12 68.73 17.13 18.2.5 39.56-6.66 50.65-14.63a1.68 1.68 0 00.65-1.83 3.22 3.22 0 01-.14-.93z" fill="url(#b)"/><path d="M22.2 17.15C16 16.33-7.38-17.94 2.33 16.9c1.1 4 2.72 5.88 2.72 7.76s-1.62 3.81-2.72 7.76c-9.58 34.37 13 1.49 19.61-.19a18.39 18.39 0 01-1-5.79 19.11 19.11 0 012.48-9.27 6.65 6.65 0 01-1.22-.02z" fill="url(#a)"/><path d="M112.45 32.69a1.42 1.42 0 00-.63-.85c-10.06-6.23-20.2-15.95-23.16 9.1-3 25.42 19.14 1.77 22-1.41a6.84 6.84 0 001.79-6.84z" fill="url(#c)"/><path d="M126.84 23.07l-2.76-2.76a.65.65 0 010-.91l2.76-2.75a.66.66 0 000-.92l-.22-.22a.66.66 0 00-.92 0l-2.7 2.75a.64.64 0 01-.92 0l-2.75-2.75a.66.66 0 00-.92 0l-.21.22a.63.63 0 000 .91l2.75 2.76a.65.65 0 010 .91l-2.76 2.76a.66.66 0 000 .92l.22.21a.64.64 0 00.92 0l2.67-2.75a.64.64 0 01.92 0l2.75 2.75a.66.66 0 00.92 0l.22-.22a.65.65 0 00.03-.91z" fill="url(#d)"/></g></g></svg>