<svg xmlns="http://www.w3.org/2000/svg" width="73.63" height="27.91"><path d="M45.36 27.91a3.17 3.17 0 01-2.8-1.65c-10.45-.63-18.56-3.88-24-6.05-2.84-1.14-5.3-2.12-6.36-2l-.2-.52-.44-.81.58 1.38-1 .69-.76.67c-.57.52-1.18 1.12-1.8 1.72-.44.43-.89.87-1.34 1.29l-3.46 2.76-1.26.35H2.11a.85.85 0 01-.23 0h-.15l-.23-.08-.18-.09a1.46 1.46 0 01-.24-.15l-.15-.12a1.84 1.84 0 01-.2-.3l-.11-.12-.14-.18-.11-.19-.07-.16-.06-.14A1 1 0 01.18 24l-.13-.58v-1.31h1.5L0 22l.15-1.31 1.51.11-1.46-.24.08-.44 1.5.15L.31 20l.63-2.74.22-.8A16.14 16.14 0 012 14.14a4.46 4.46 0 00.36-1 4.43 4.43 0 00-.36-.91 16.61 16.61 0 01-.87-2.32A24.57 24.57 0 010 3.63C0 1.78.83 1.06 1.5.78 3.36 0 5.33 1.8 8.65 5a22.51 22.51 0 003.59 3.11h.3c1.22-.06 3.34-.91 6-2C24.37 3.83 33.13.33 44.53 0c10.33-.27 22.22 4.33 26.82 8.8a6.31 6.31 0 012.28 4.38 4.39 4.39 0 01-.28 1.53 2.34 2.34 0 01-2.2 1.51c-.54 0-.84.3-.84.4a2.32 2.32 0 01-.87 2.52c-4.72 3.39-12.6 6.17-19.74 7a8 8 0 01-4.34 1.77zM12.41 15.22c1.76 0 4 .9 7.28 2.2 5.4 2.16 13.56 5.43 24 5.89l1.08.05.23 1.05c.11.37.22.48.24.48s.75.23 3-1.43l.33-.25h.41c6.6-.72 13.89-3.21 18.35-6.21a1.94 1.94 0 010-.34 3.57 3.57 0 013.32-3.37v-.07A3.84 3.84 0 0069.26 11c-4.07-4-15.18-8.26-24.65-8-10.87.3-19.33 3.68-24.92 5.92-3.07 1.23-5.28 2.12-7 2.2h-.38a2.85 2.85 0 01-.44 0c-1.4-.19-2.87-1.55-5.31-3.94A37.52 37.52 0 003 4a25.41 25.41 0 001 5.11A12.76 12.76 0 004.77 11a5.3 5.3 0 01.62 2.18 5.26 5.26 0 01-.62 2.18 13.2 13.2 0 00-.72 1.9L3 22.11H1.5l1.5.09v.12l.09-.06 1 1.15-.82-1.26 1 1.16-.88-1.22 1.89-1.65 1.34-1.29c.61-.6 1.22-1.19 1.78-1.71l.23-.2 1.95-1.52a.76.76 0 01.16-.1l.27-.14.28-.11.29-.1.3-.06a5.68 5.68 0 01.53.01zm-9.77 8.12l.38.74-.33-.77zm.09-.07l.4.76-.35-.8zm.27-.73l.84 1.07L3 22.38zm-.35.69zm0 0l.05-.05zm-.2-.23v.07-.21.06-.06h.15v-.09h-.26v.07h.08zm-.12-.21l-.82.08h.83zm68.82-9.53z" fill="#073e51"/></svg>