<svg xmlns="http://www.w3.org/2000/svg" xmlns:xlink="http://www.w3.org/1999/xlink" width="584.99" height="584.99" viewBox="0 0 584.99 584.99"><defs><style>.cls-1{fill:#1b424c;}.cls-2{fill:url(#名称未設定グラデーション_116);}.cls-3{fill:url(#名称未設定グラデーション_85);}.cls-4{fill:url(#名称未設定グラデーション_2);}.cls-5{fill:url(#名称未設定グラデーション_2-2);}.cls-6{fill:url(#名称未設定グラデーション_113);}</style><linearGradient id="名称未設定グラデーション_116" x1="671.27" y1="158.37" x2="286.85" y2="271.44" gradientUnits="userSpaceOnUse"><stop offset="0" stop-color="#80c0b7"/><stop offset="0.51" stop-color="#94cbc2"/><stop offset="1" stop-color="#acd7ce"/></linearGradient><linearGradient id="名称未設定グラデーション_85" x1="191.9" y1="567.32" x2="406.45" y2="22.93" gradientUnits="userSpaceOnUse"><stop offset="0" stop-color="#75c3d6"/><stop offset="0.66" stop-color="#89c6ca"/><stop offset="1" stop-color="#96c8c3"/></linearGradient><linearGradient id="名称未設定グラデーション_2" x1="253.43" y1="591.57" x2="467.98" y2="47.17" gradientUnits="userSpaceOnUse"><stop offset="0" stop-color="#6197b1"/><stop offset="0.44" stop-color="#76aab8"/><stop offset="1" stop-color="#96c8c3"/></linearGradient><linearGradient id="名称未設定グラデーション_2-2" x1="118.76" y1="538.5" x2="333.3" y2="-5.9" xlink:href="#名称未設定グラデーション_2"/><linearGradient id="名称未設定グラデーション_113" x1="-5.35" y1="227.33" x2="248.72" y2="218.02" gradientUnits="userSpaceOnUse"><stop offset="0" stop-color="#89d3e6"/><stop offset="0.51" stop-color="#91d0d2"/><stop offset="1" stop-color="#9accba"/></linearGradient></defs><g id="レイヤー_2" data-name="レイヤー 2"><g id="Layer_2" data-name="Layer 2"><circle class="cls-1" cx="292.43" cy="293.15" r="291.84"/><path class="cls-2" d="M584.27,272.17a291,291,0,0,0-60.43-158.65L210.16,210Z"/><path class="cls-3" d="M584.27,272.17,210.16,210,.57,274.5c-.36,6-.57,11.95-.57,18a291.26,291.26,0,0,0,65.15,184l485.71-46.83A291.19,291.19,0,0,0,585,292.49C585,285.66,584.73,278.89,584.27,272.17Z"/><path class="cls-4" d="M292.49,585c112,0,209.21-62.92,258.37-155.31L65.15,476.51A291.91,291.91,0,0,0,292.49,585Z"/><path class="cls-5" d="M523.84,113.52A292,292,0,0,0,292.49,0C171.24,0,67.22,73.79,22.88,178.91L210.16,210Z"/><path class="cls-6" d="M22.88,178.91A290.77,290.77,0,0,0,.57,274.5L210.16,210Z"/></g></g></svg>