<svg xmlns="http://www.w3.org/2000/svg" xmlns:xlink="http://www.w3.org/1999/xlink" width="583" height="583" viewBox="0 0 583 583"><defs><style>.cls-1{fill:url(#名称未設定グラデーション_167);}.cls-2{fill:url(#名称未設定グラデーション_167-2);}.cls-3{fill:url(#名称未設定グラデーション_184);}.cls-4{fill:url(#名称未設定グラデーション_212);}.cls-5{fill:url(#名称未設定グラデーション_175);}</style><linearGradient id="名称未設定グラデーション_167" x1="216.55" y1="36.68" x2="368.18" y2="635.26" gradientUnits="userSpaceOnUse"><stop offset="0" stop-color="#eef4cd"/><stop offset="0.07" stop-color="#eff1c4"/><stop offset="0.19" stop-color="#f0e8aa"/><stop offset="0.34" stop-color="#f3d981"/><stop offset="0.52" stop-color="#f6c448"/><stop offset="0.57" stop-color="#f7be36"/><stop offset="1" stop-color="#f57c31"/></linearGradient><linearGradient id="名称未設定グラデーション_167-2" x1="416.22" y1="621.23" x2="226" y2="259.42" xlink:href="#名称未設定グラデーション_167"/><linearGradient id="名称未設定グラデーション_184" x1="98.61" y1="149.29" x2="517.62" y2="499.12" gradientUnits="userSpaceOnUse"><stop offset="0" stop-color="#f4e4b2"/><stop offset="0.16" stop-color="#f5e5a9"/><stop offset="0.41" stop-color="#f6e98f"/><stop offset="0.57" stop-color="#f7eb7d"/><stop offset="1" stop-color="#f5c672"/></linearGradient><linearGradient id="名称未設定グラデーション_212" x1="650.13" y1="154" x2="-199.84" y2="-20.25" gradientUnits="userSpaceOnUse"><stop offset="0" stop-color="#f4cc76"/><stop offset="0.21" stop-color="#f5d578"/><stop offset="0.55" stop-color="#f7ef7c"/><stop offset="0.57" stop-color="#f7f07c"/><stop offset="1" stop-color="#f5e0b0"/></linearGradient><linearGradient id="名称未設定グラデーション_175" x1="-90.43" y1="244.49" x2="654.46" y2="147.39" gradientUnits="userSpaceOnUse"><stop offset="0" stop-color="#f4dd8c"/><stop offset="0.1" stop-color="#f4dd83"/><stop offset="0.27" stop-color="#f5dc69"/><stop offset="0.48" stop-color="#f6da40"/><stop offset="0.57" stop-color="#f7d92d"/><stop offset="1" stop-color="#f5a028"/></linearGradient></defs><g id="レイヤー_2" data-name="レイヤー 2"><g id="レイヤー_1-2" data-name="レイヤー 1"><path class="cls-1" d="M291.5,583A291,291,0,0,0,525.59,465.22l-381.22,78A290.15,290.15,0,0,0,291.5,583Z"/><path class="cls-2" d="M144.37,543.18l381.22-78a290.73,290.73,0,0,0,44-86.21L9,363.79A292.06,292.06,0,0,0,144.37,543.18Z"/><path class="cls-3" d="M0,291.5a292,292,0,0,0,9,72.29L569.63,379A291.49,291.49,0,0,0,583,291.5c0-9.52-.47-18.92-1.36-28.21L0,288.41C0,289.44,0,290.47,0,291.5Z"/><path class="cls-4" d="M291.5,0A291.07,291.07,0,0,0,56.58,118.92L562,182.71C518.89,75.61,414,0,291.5,0Z"/><path class="cls-5" d="M56.58,118.92A290.09,290.09,0,0,0,0,288.41l581.6-25.12A289.49,289.49,0,0,0,562,182.71Z"/></g></g></svg>