<?xml version="1.0" encoding="utf-8"?>
<!-- Generator: Adobe Illustrator 24.0.3, SVG Export Plug-In . SVG Version: 6.00 Build 0)  -->
<svg version="1.1" id="レイヤー_1" xmlns="http://www.w3.org/2000/svg" xmlns:xlink="http://www.w3.org/1999/xlink" x="0px"
	 y="0px" viewBox="0 0 156.2 300" style="enable-background:new 0 0 156.2 300;" xml:space="preserve">
<style type="text/css">
	.st0{fill:#FFF7F1;}
	.st1{fill:#71695D;}
	.st2{fill:#77BFB2;}
	.st3{fill:#405D70;}
	.st4{fill:#978F83;}
	.st5{fill:#83796A;}
	.st6{fill:#FFF4E3;}
	.st7{fill:#E47B7B;}
</style>
<title>tama</title>
<path class="st0" d="M91.8,263.5c-6.6-0.4-9.9,12.8-7.8,21.8s4.1,13.9,7.2,14.1s4.4-11.2,4.8-18.6S98.4,263.9,91.8,263.5z"/>
<path class="st1" d="M91.6,299.4H91c-4.8-0.3-7.1-6.1-9.4-16c-1.8-7.5-0.1-17,3.7-21.6c1.5-2.1,4-3.3,6.6-3.2c1.9,0,3.7,0.9,5,2.3
	c2.8,3.2,2.3,8.9,1.8,14.3c-0.1,1.1-0.2,2.2-0.3,3.2c-1,16.7-3.8,19.1-4.7,19.9C93.2,299,92.4,299.3,91.6,299.4z M91.3,263.6
	c-0.9,0.1-1.7,0.6-2.2,1.4c-2.9,3.4-4.1,11.4-2.7,17.3c0.8,3.3,2.7,10.6,4.4,12c0.9-1.6,2.1-6.6,2.7-16.1c0.1-1.1,0.2-2.3,0.3-3.4
	c0.3-4,0.8-9-0.7-10.6c-0.4-0.4-0.9-0.6-1.5-0.6l0,0C91.6,263.5,91.4,263.5,91.3,263.6L91.3,263.6z"/>
<path class="st0" d="M76.7,263.5c-6.6-0.4-9.9,12.8-7.8,21.8s4.1,13.9,7.2,14.1s4.4-11.2,4.8-18.6S83.3,263.9,76.7,263.5z"/>
<path class="st1" d="M76.5,299.4h-0.6c-4.8-0.3-7.1-6.1-9.4-16c-1.8-7.5-0.2-17,3.7-21.6c1.5-2.1,4-3.3,6.6-3.2l0,0
	c1.9,0,3.7,0.9,5,2.3c2.8,3.2,2.3,8.9,1.8,14.3c-0.1,1.1-0.2,2.2-0.3,3.2c-1,16.7-3.7,19.1-4.7,19.9C78.2,299,77.4,299.4,76.5,299.4
	z M76.3,263.6c-0.9,0.1-1.7,0.6-2.2,1.4c-2.9,3.5-4.1,11.4-2.7,17.3c0.8,3.3,2.7,10.6,4.4,12c0.9-1.6,2.1-6.6,2.7-16.1
	c0.1-1.1,0.2-2.3,0.3-3.4c0.3-4,0.8-9-0.7-10.6c-0.4-0.4-0.9-0.6-1.5-0.6L76.3,263.6L76.3,263.6z"/>
<path class="st2" d="M109.6,119.8c18,30.4,42.4,90.8,42.9,105.4s-6.3,27.8-15,34.2c-8.7,6.4-40.8,19.8-68.1,16.5S16,259.2,9.7,249.6
	s-4.2-25,2.6-36.7s39.5-65.4,44.2-90.4c1.1-9,10.4-17.9,14.9-12.9s-1.4,19.8,8.9,21.2C90.7,132.2,100.6,130,109.6,119.8z"/>
<path class="st1" d="M86.2,278.5c-5.7,0.5-11.5,0.5-17.2-0.2c-28.3-3.5-54.6-17-61.4-27.4c-6.3-9.8-5.3-25.9,2.6-39.3
	c0.5-0.9,1.1-1.9,1.9-3.2c9.3-15.7,37.7-63.6,42-86.3c0.9-7,6.3-14.3,11.8-16.1c2.6-0.9,5.6-0.2,7.4,1.9c2.3,2.6,2.5,6.6,2.7,10.5
	c0.3,6.5,0.8,9.3,4.6,9.8c11.2,1.5,19.5-1.7,27.1-10.2c0.9-1,2.5-1.1,3.5-0.2c0.2,0.2,0.4,0.4,0.5,0.6c18,30.5,42.7,91.3,43.2,106.6
	c0.5,14.4-5.9,28.9-16,36.3C131.8,266.6,109.4,276.6,86.2,278.5z M68.1,110.7c-0.2,0-0.5,0.1-0.7,0.2c-3.3,1-7.7,6.5-8.3,12
	c0,0,0,0.1,0,0.2c-4.4,23.6-33.2,72.1-42.6,88c-0.7,1.2-1.4,2.3-1.9,3.1c-6.9,11.8-8,25.8-2.7,34.1s29.9,21.8,57.8,25.2
	c26.7,3.3,58.3-10.1,66.4-16c7.3-5.4,14.5-17.3,14-32.1c-0.5-12.9-22.5-69.1-40.9-101.4c-8.1,7.9-17.5,10.9-29.1,9.3
	c-8.3-1.1-8.7-8.9-8.9-14.6c-0.1-3-0.3-6.2-1.4-7.4C69.2,110.8,68.7,110.6,68.1,110.7z"/>
<path class="st3" d="M18.4,217.3c-3.5,0.4-6.9,2.3-10.2,4.9C5,231.9,5,242.4,9.7,249.6c6.3,9.6,32.2,22.9,59.6,26.3
	s59.4-10.1,68.1-16.5s15.5-19.6,15-34.2c-0.1-3.4-1.6-9.5-4-17.1c-9.5-3.4-14.8,2.2-16.4,16.7c-1.9,17.2-20.1,28.1-30.9,18.9
	s-22.9-12.3-32.7-2.3S50,265,37,234.1C31.4,220.6,24.9,216.5,18.4,217.3z"/>
<path class="st1" d="M86.2,278.5c-5.7,0.5-11.5,0.5-17.2-0.2c-28.3-3.5-54.6-17-61.4-27.4c-6.3-9.8-5.3-25.9,2.6-39.3
	c0.5-0.9,1.1-1.9,1.9-3.2c9.3-15.7,37.7-63.6,42-86.3c0.9-7,6.3-14.3,11.8-16.1c2.6-0.9,5.6-0.2,7.4,1.9c2.3,2.6,2.5,6.6,2.7,10.5
	c0.3,6.5,0.8,9.3,4.6,9.8c11.2,1.5,19.5-1.7,27.1-10.2c0.9-1,2.5-1.1,3.5-0.2c0.2,0.2,0.4,0.4,0.5,0.6c18,30.5,42.7,91.3,43.2,106.6
	c0.5,14.4-5.9,28.9-16,36.3C131.8,266.6,109.4,276.6,86.2,278.5z M68.1,110.7c-0.2,0-0.5,0.1-0.7,0.2c-3.3,1-7.7,6.5-8.3,12
	c0,0,0,0.1,0,0.2c-4.4,23.6-33.2,72.1-42.6,88c-0.7,1.2-1.4,2.3-1.9,3.1c-6.9,11.8-8,25.8-2.7,34.1s29.9,21.8,57.8,25.2
	c26.7,3.3,58.3-10.1,66.4-16c7.3-5.4,14.5-17.3,14-32.1c-0.5-12.9-22.5-69.1-40.9-101.4c-8.1,7.9-17.5,10.9-29.1,9.3
	c-8.3-1.1-8.7-8.9-8.9-14.6c-0.1-3-0.3-6.2-1.4-7.4C69.2,110.8,68.7,110.6,68.1,110.7z"/>
<path class="st0" d="M82.9,102.4c-7.2,0.3-17.6,1.7-21.3,20.9s2.6,38,23.6,35.6s35.1-17.8,27.6-32S90.2,102.1,82.9,102.4z"/>
<path class="st1" d="M84.4,161.5c-8,0.7-14.6-1.6-19.2-6.6c-6.4-6.9-8.6-18.6-6-32.1c3.8-19.5,14.1-22.5,23.6-22.9
	c8.4-0.3,24.2,10.8,32.2,25.8c3.1,5.7,3.1,12.6,0,18.3c-4.8,9.1-16.1,15.8-29.5,17.3L84.4,161.5z M80.7,105
	c-5.8,0.5-13.5,2.8-16.6,18.8c-2.3,11.7-0.5,22.1,4.8,27.8c3.8,4,9.2,5.7,16.1,4.9c11.6-1.3,21.7-7.1,25.7-14.7
	c2.4-4.3,2.4-9.4,0-13.7c-3.6-6.6-8.5-12.3-14.4-16.9c-5-3.9-10.2-6.4-13.2-6.3l0,0C82.3,104.9,81.5,105,80.7,105z"/>
<path class="st0" d="M106.8,186.8c5.8,1.6,24.5,9.3,21.4,17.6s-26.3,3.9-30.8-2.2S101,185.3,106.8,186.8z"/>
<path class="st1" d="M117.6,211.5c-8.2,0-18.8-3.1-22.3-7.8c-2.7-3.6-2.4-8.8,0.8-13.6c2.5-3.7,7-6.9,11.3-5.7
	c3.8,1,18.6,6.4,22.6,14.1c1.1,2.1,1.3,4.5,0.5,6.8c-0.8,2.2-3.1,5.1-9.2,6C120.1,211.5,118.8,211.5,117.6,211.5z M105.6,189.2
	c-1.6,0-3.8,1.5-5.3,3.8s-2.6,5.5-1,7.8c2.4,3.2,13.6,6.7,21.2,5.6c1.7-0.2,4.6-0.9,5.3-2.8c0.3-0.9,0.2-1.9-0.3-2.7
	c-2.5-4.9-13.8-10.1-19.4-11.6l0,0C106,189.2,105.8,189.2,105.6,189.2L105.6,189.2z"/>
<path class="st2" d="M60.3,132.2c-9.6,2.9-14.2,14.5-15.3,29.9s-3.6,45,10.2,50.8s41.7,6.8,60.1-19s11.3-31.2,6.4-33.8
	c-6.8-3.6-22.7-8.5-35.6-15.3C73.9,138.2,69.2,129.5,60.3,132.2z"/>
<path class="st3" d="M101.1,151.5c-0.1,8.7,4.7,21.2-5.8,18.3c-15.4-4.2-18.5,4-16.3,16.2s-16,6.8-21.7,3.2c-3.6-2.3-8.9-4.4-13-2
	c0.6,11.5,3.1,22.3,10.9,25.6c13.8,5.8,41.7,6.8,60.1-19s11.3-31.2,6.4-33.8C117.6,157.8,109.6,154.9,101.1,151.5z"/>
<path class="st1" d="M73.5,218.8c-6.6,0.1-13.1-1.2-19.2-3.6c-15.1-6.4-13.1-35-11.8-52.1l0.1-1.2c1.3-18,7.2-29.1,17-32.1
	c6.9-2.1,11.7,1.6,17.3,5.8c3.3,2.6,6.8,4.9,10.4,6.9c7.4,3.7,14.9,7,22.7,9.8c4.4,1.6,8.8,3.4,13,5.5c1.6,0.9,5.4,2.9,6.5,7.7
	c1.5,6.5-2.4,16.3-12.1,29.8C104.5,213.5,87.5,218.8,73.5,218.8z M63.5,134.2c-0.8,0-1.7,0.1-2.5,0.4l0,0
	c-9.7,2.9-12.7,16.7-13.5,27.7l-0.1,1.2c-1.1,14.7-3,42.1,8.8,47.1s38.8,7.5,57.1-18.2c10.8-15.1,12.1-22.4,11.3-25.8
	c-0.5-2.2-1.9-3.3-4-4.4c-2.8-1.5-7.2-3.2-12.4-5.2c-7.9-2.9-15.7-6.3-23.2-10.1c-3.9-2.1-7.6-4.6-11.1-7.4
	C69.4,136.1,66.7,134.2,63.5,134.2L63.5,134.2z"/>
<path class="st4" d="M88.7,25c1.1-5.2,18-22,23.3-20.3s8.6,24.6,6.7,29.5s-10.4,5.3-17.3,2.2S87.6,30.2,88.7,25z"/>
<path class="st1" d="M110.2,40.8c-3.5,0-6.9-0.8-10-2.3l-0.7-0.3c-7.3-3.3-14.8-6.8-13.3-13.8l0,0C87.4,19.2,98.5,8,105.5,3.9
	c3-1.7,5.4-2.3,7.2-1.7s3.3,2.2,4.6,5c3.5,7.4,5.5,23,3.6,27.8c-0.9,2.2-2.7,4-5,4.8C114.1,40.5,112.2,40.9,110.2,40.8z M91.2,25.5
	c-0.6,2.9,3.8,5.2,10.5,8.3l0.7,0.3c4.1,1.9,8.8,2.4,11.8,1.2c1-0.3,1.8-1,2.2-2c0.7-1.6,0.6-7.6-0.7-14.3c-1.6-8.3-3.7-11.7-4.5-12
	c-0.8-0.2-4.7,1.4-10.9,7.2C95.1,19.1,91.5,23.9,91.2,25.5L91.2,25.5z"/>
<path class="st4" d="M26.2,95.2c2.3-15.3,7.8-48.1,34.8-60c18-7.9,40.3-9.9,54.9,1.3c9.1,7,18.6,27,20.5,43.2s-3.4,42.8-18.9,50.8
	c-17.4,8.9-71.2,2.5-83.9-7.2C25.3,116.9,23.9,110.5,26.2,95.2z"/>
<path class="st1" d="M90.6,137.2c-22.5,0-49.5-5.1-58.5-11.9c-9.8-7.5-10.5-15.8-8.4-30.4l0,0c2-13.4,7.2-49.2,36.2-61.9
	c9.4-4.2,19.5-6.5,29.7-6.7c10.9-0.1,20.5,2.8,27.7,8.3c9.6,7.4,19.4,27.9,21.5,44.9c2,16.3-3.1,44.5-20.2,53.3
	C112.6,135.8,102.2,137.2,90.6,137.2z M28.7,95.5c-2.2,14.9-0.9,20.2,6.5,25.8c5.6,4.3,21.3,8.4,39,10.1c18.7,1.8,34.9,0.6,42.3-3.1
	c4.5-2.3,10.7-7.7,14.7-20.8c2.8-8.9,3.7-18.2,2.8-27.5c-1.9-15.6-11-35-19.6-41.6C104.8,31.1,86,27,62,37.5
	C35.5,49.1,30.5,82.8,28.7,95.5z"/>
<path class="st0" d="M117.2,55.4c10.1,14.6,20.9,55,1.7,72.6c-15.3,14-69.8,14-75.4-12.8s11.1-71.5,36.3-73.7S109.1,43.7,117.2,55.4
	z"/>
<path class="st1" d="M85.3,139.8c-7.6,0.1-15.1-1-22.3-3.2c-12.4-4-20-11.2-22-20.7C37.1,97.3,43.4,71,55.7,54.5
	c7-9.4,15.2-14.7,23.9-15.5c26.6-2.3,31.4,2.9,39.7,15l0,0c4.9,7.1,10.6,21.1,12.3,36.3c2.4,22.1-4.6,33.7-11,39.5
	C113.6,136.2,99.6,139.8,85.3,139.8z M90.7,43.4c-3,0-6.6,0.2-10.7,0.5c-9.1,0.8-16.1,7.8-20.3,13.5c-11.3,15.2-17.3,40.3-13.8,57.3
	c2,9.7,11.3,14.6,18.7,17c17.6,5.7,43.2,3,52.6-5.6c5.5-5,11.6-15.2,9.4-35.3c-1.6-14.4-6.9-27.5-11.4-34.1l0,0
	C109,48,105.9,43.4,90.7,43.4z"/>
<path class="st4" d="M128.5,76.5c-3.5,7.8-16.8,18.5-16.2,2.9c-8,10.6-9.4,5.5-8-2.2c-7.7,19.8-23.1,41.7-30.1,54.5
	c-9.2,16.9-19,24.5-36.8,26.9c-10.3,1.3-22.4-4.2-27.9-11.8c-4.8-6.8-7.2-18.9-2.2-30.7c3.7-8.7,16-16.7,26.3-15.5
	c0,0,5.7-29.7,17.9-47.8c6.7-9.9,22-21.1,33.9-20.8c13.5,0.4,24.2,1,32.3,11.4S132,68.8,128.5,76.5z"/>
<path class="st5" d="M107.8,56.2c-0.2-0.1-0.7,0.5-1.5,1.9c-6.5,11.4-30.4,40.5-44.1,43.1s-16.6,0.8-26-0.7
	c14.3,5.4,19.4,21.6,13.7,30.7S39,145.4,29.4,143.6c-0.7-0.1-1.6-0.3-2.4-0.4c-0.2-0.5-0.6-1-1-1.4c-5.5-5.7-4.8-15.5,3.3-20.1
	s22.8,7.4,15-6c-3.5-5.9-5.4-5.9-13.9-6.2c-6.8-0.3-9.5,2.8-14.2,7.7S13,130,16.9,136c2,2.8,4.7,5.2,7.7,6.9c-8.2-1.3-17.4-2.2-17,1
	c0.5,1,1.1,2,1.8,2.9c5.5,7.7,17.7,13.2,27.9,11.8c17.8-2.4,27.5-9.9,36.8-26.8c5.2-9.6,15.1-24.1,23-39.1
	C104.1,72.5,108.8,56.8,107.8,56.2z"/>
<path class="st1" d="M34.5,160.9c-11,0-22.4-5.9-27.1-12.7c-5.5-7.8-11-18.6-4-34.2c4.2-9.3,16.4-18.1,30.5-15.9
	c5,0.8,11.9,4.4,16.3,10.8c4,5.9,5.1,13.1,3.3,20.9c-3.5,15-19.6,18.4-25.1,17.2c-4.7-1-11.5-4.5-15.1-10.9c-2.6-4.5-3-9.9-1.3-14.8
	c1.8-5.3,11.6-17,24.6-13.6c5.1,1.3,9.3,5.6,11.9,12c0.3,0.8,0.6,1.7,0.9,2.6c-0.1-3.7-1.2-7.3-3.3-10.4c-3.5-5.2-9.1-8.1-12.9-8.7
	c-11.8-1.8-21.8,5.4-25.2,13.1c-5.9,13.1-1.8,21.8,3.5,29.2c4.7,6.6,18.1,12.4,28.3,10c16.9-4,22.3-9.6,31.6-22.3
	c9-12.3,23.2-37.5,30.6-56.7c0.5-1.3,1.9-1.9,3.2-1.5c1.1,0.4,1.8,1.6,1.6,2.8c-0.3,1.5-0.5,3.1-0.4,4.7c1.5-1.3,2.8-2.8,4-4.5
	c0.8-1.1,2.4-1.3,3.5-0.5c0.7,0.5,1,1.3,1,2.1c-0.2,4,0.7,5.2,1.2,5.4c2.2,0.5,8.1-4.5,10.3-9.4c0.4-1.3,1.8-2,3.1-1.6
	s2,1.8,1.6,3.1c-0.1,0.2-0.1,0.3-0.2,0.5c-2.6,5.8-10.3,13.6-16,12.2c-2.1-0.5-3.8-2.2-4.3-4.4c-2.1,2-4.3,3.2-6.5,2.3
	c-0.4-0.2-0.8-0.4-1.1-0.7c-8,17.9-19.8,38.3-27.6,49.1c-4.9,6.8-9,11.7-14.1,15.5s-11.5,6.6-20.4,8.7
	C38.8,160.7,36.6,160.9,34.5,160.9z M32,112c-8.2,0-14.3,7.8-15.3,10.8c-1.3,3.5-1,7.5,0.9,10.8c2.6,4.7,7.9,7.6,11.9,8.5
	c2,0.4,10.2-0.4,15.4-6.1c0.1-0.2,0.1-0.3,0.2-0.5c1.1-1.8,1.1-8.1-1.3-14.1c-1.1-2.8-3.8-7.8-8.5-9C34.2,112.2,33.1,112,32,112z"/>
<path class="st6" d="M75,36.2c1-7.3-26-20.9-31-15.9S33.9,69.4,41,70s13.7-12.8,18.4-18.3C64,46.5,74,43.6,75,36.2z"/>
<path class="st1" d="M41.5,72.4h-0.7c-1.3-0.1-3.2-0.9-4.4-4c-2.5-6.8-1-22.1-0.4-26.7s2.6-19.5,6.2-23.2c4.3-4.4,15.2,0.2,19.6,2.4
	c2.8,1.4,16.5,8.4,15.6,15.6c-0.8,5.9-5.8,9.2-10.2,12.2c-2.1,1.3-4.1,2.8-5.9,4.6c-1.2,1.3-2.5,3.3-4,5.3
	C52.8,65.2,47.7,72.4,41.5,72.4z M47.4,21.7c-0.6-0.1-1.1,0.1-1.6,0.4c-2.3,2.4-6.2,22.2-5.8,36.8c0.2,6.3,1.1,8.2,1.5,8.7
	c3.7,0,8.3-6.7,11.8-11.6c1.5-2.2,3-4.2,4.3-5.8c2-2.1,4.4-4,6.9-5.5c3.9-2.6,7.6-5.1,8.1-8.7l0,0c0.2-1.4-3.9-6.2-12.8-10.5
	C54,22.6,49.7,21.7,47.4,21.7z"/>
<path class="st1" d="M102,101.9c-2.8-0.1-4.7,6-5,8.4c-0.7,6.6,9.1,6.5,8.6,0C105.3,106.2,104.9,102.1,102,101.9z"/>
<path class="st4" d="M46.3,22c6.7,2.6,17.4,20.2,15,27.9c10.9-7.4,15.5-13.5,12.3-17.4S61.2,22.7,56,20.9
	C46.9,17.7,39.6,19.4,46.3,22z"/>
<path class="st1" d="M61.3,52.3c-1.4,0-2.5-1.2-2.5-2.5c0-0.2,0-0.5,0.1-0.7c1.9-6.2-7.8-22.6-13.5-24.8c-2.4-0.9-5-2.5-4-5.1
	c1.6-4.3,11.7-1.9,15.5-0.6c5.3,1.8,15,7.9,18.7,12.4c1.3,1.5,1.8,3.5,1.5,5.4c-0.7,4.5-5.3,9.5-14.3,15.6
	C62.4,52.2,61.9,52.3,61.3,52.3z M51,22c5.7,4.9,11.7,15.1,12.9,22.9c6.9-5.2,8-8.2,8.2-9.3c0.1-0.6,0-1.1-0.4-1.5
	c-2.8-3.4-11.4-9.1-16.4-10.8C53.9,22.7,52.5,22.3,51,22z"/>
<path class="st7" d="M122.7,118.8c0.8,0.3,1.3,0.7,0.1,2.5s-3.7,5.1-5,5.2s-2.6,0-1.7-2.2s4.9-5.2,4.9-5.2"/>
<path class="st1" d="M115.7,128.9c-2.3-3.2-1.8-5.6-1.1-7c1.9-3.7,7.7-4.9,11.2-4.9v3.3c-3.2-0.1-7.2,1.2-8.2,3.1
	c-0.2,0.3-0.7,1.4,0.8,3.6L115.7,128.9z"/>
<path class="st7" d="M99.8,121.3c-0.4,0.3-0.5,1-0.5,1.9c-1.3,0-2,0.2-2,1.1s0.8,1,2.1,0.9c0,0.8,0,1.5-0.2,2.3l0,0
	c-1.4,0-2.1,0.2-2.1,1.1c0,0.7,0.7,0.9,1.7,0.9c-0.3,1.5-0.2,2.2,0.8,2s1.2-1,1.3-2.2l0.8-0.1c0.5-0.1,1.1-0.1,1.7-0.2
	c-0.3,1.5-0.2,2.2,0.9,2s1.2-1,1.3-2.2c1.5-0.2,2.7-0.4,2.7-1.1c0-0.2,0-0.4-0.1-0.5c-0.3-0.4-1.3-0.3-2.5-0.1c0-0.2,0-0.4,0-0.6
	c0-0.6,0-1.3,0.1-2c1.5-0.2,2.7-0.4,2.7-1.1c0-0.2,0-0.4-0.1-0.5c-0.3-0.4-1.3-0.3-2.5-0.1c0-1.3-0.1-2.2-0.8-2.2
	c-0.2,0-0.4,0.1-0.6,0.2c-0.5,0.4-0.5,1.2-0.5,2.3c-0.7,0.1-1.4,0.2-2.1,0.1h-0.6c0-1.3-0.1-2.2-0.8-2.1
	C100.2,121,99.9,121.1,99.8,121.3z M101.2,125l0.9-0.1c0.6-0.1,1.3-0.1,2-0.2c0,0.7,0,1.5-0.2,2.2c0,0.2-0.1,0.3-0.1,0.4
	c-0.7,0.1-1.4,0.2-2.2,0.2H101V127C101.1,126.3,101.1,125.6,101.2,125L101.2,125z"/>
<path class="st7" d="M99.8,121.3c-0.4,0.3-0.5,1-0.5,1.9c-1.3,0-2,0.2-2,1.1s0.8,1,2.1,0.9c0,0.8,0,1.5-0.2,2.3l0,0
	c-1.4,0-2.1,0.2-2.1,1.1c0,0.7,0.7,0.9,1.7,0.9c-0.3,1.5-0.2,2.2,0.8,2s1.2-1,1.3-2.2l0.8-0.1c0.5-0.1,1.1-0.1,1.7-0.2
	c-0.3,1.5-0.2,2.2,0.9,2s1.2-1,1.3-2.2c1.5-0.2,2.7-0.4,2.7-1.1c0-0.2,0-0.4-0.1-0.5c-0.3-0.4-1.3-0.3-2.5-0.1c0-0.2,0-0.4,0-0.6
	c0-0.6,0-1.3,0.1-2c1.5-0.2,2.7-0.4,2.7-1.1c0-0.2,0-0.4-0.1-0.5c-0.3-0.4-1.3-0.3-2.5-0.1c0-1.3-0.1-2.2-0.8-2.2
	c-0.2,0-0.4,0.1-0.6,0.2c-0.5,0.4-0.5,1.2-0.5,2.3c-0.7,0.1-1.4,0.2-2.1,0.1h-0.6c0-1.3-0.1-2.2-0.8-2.1
	C100.2,121,99.9,121.1,99.8,121.3z M101.2,125l0.9-0.1c0.6-0.1,1.3-0.1,2-0.2c0,0.7,0,1.5-0.2,2.2c0,0.2-0.1,0.3-0.1,0.4
	c-0.7,0.1-1.4,0.2-2.2,0.2H101V127C101.1,126.3,101.1,125.6,101.2,125L101.2,125z"/>
<path class="st7" d="M99.8,121.3c-0.4,0.3-0.5,1-0.5,1.9c-1.3,0-2,0.2-2,1.1s0.8,1,2.1,0.9c0,0.8,0,1.5-0.2,2.3l0,0
	c-1.4,0-2.1,0.2-2.1,1.1c0,0.7,0.7,0.9,1.7,0.9c-0.3,1.5-0.2,2.2,0.8,2s1.2-1,1.3-2.2l0.8-0.1c0.5-0.1,1.1-0.1,1.7-0.2
	c-0.3,1.5-0.2,2.2,0.9,2s1.2-1,1.3-2.2c1.5-0.2,2.7-0.4,2.7-1.1c0-0.2,0-0.4-0.1-0.5c-0.3-0.4-1.3-0.3-2.5-0.1c0-0.2,0-0.4,0-0.6
	c0-0.6,0-1.3,0.1-2c1.5-0.2,2.7-0.4,2.7-1.1c0-0.2,0-0.4-0.1-0.5c-0.3-0.4-1.3-0.3-2.5-0.1c0-1.3-0.1-2.2-0.8-2.2
	c-0.2,0-0.4,0.1-0.6,0.2c-0.5,0.4-0.5,1.2-0.5,2.3c-0.7,0.1-1.4,0.2-2.1,0.1h-0.6c0-1.3-0.1-2.2-0.8-2.1
	C100.2,121,99.9,121.1,99.8,121.3z M101.2,125l0.9-0.1c0.6-0.1,1.3-0.1,2-0.2c0,0.7,0,1.5-0.2,2.2c0,0.2-0.1,0.3-0.1,0.4
	c-0.7,0.1-1.4,0.2-2.2,0.2H101V127C101.1,126.3,101.1,125.6,101.2,125L101.2,125z"/>
</svg>
