<svg xmlns="http://www.w3.org/2000/svg" width="113.86" height="101.52"><defs><linearGradient id="名称未設定グラデーション_4" x1="53.73" y1="-3.9" x2="57.72" y2="113.82" gradientUnits="userSpaceOnUse"><stop offset="0" stop-color="#f4dd8c"/><stop offset=".07" stop-color="#f4dd83"/><stop offset=".18" stop-color="#f5dc69"/><stop offset=".33" stop-color="#f6da40"/><stop offset=".39" stop-color="#f7d92d"/><stop offset="1" stop-color="#f5a028"/></linearGradient><style>.cls-2{fill:#534741}</style></defs><g id="レイヤー_2" data-name="レイヤー 2"><g id="レイヤー_1-2" data-name="レイヤー 1"><path d="M47.43 5.49L1.49 85.06A11 11 0 0011 101.52h91.88a11 11 0 009.51-16.46L66.44 5.49a11 11 0 00-19.01 0z" fill="url(#名称未設定グラデーション_4)"/><path class="cls-2" d="M61.64 23.16h-9.41a3.15 3.15 0 00-3.15 3.39l3.17 42.78a2.66 2.66 0 002.66 2.47H59a2.66 2.66 0 002.66-2.47l3.17-42.78a3.16 3.16 0 00-3.19-3.39zM58.69 81.71h-3.52a2.75 2.75 0 00-2.74 2.75V88a4.51 4.51 0 009 0v-3.54a2.75 2.75 0 00-2.74-2.75z"/></g></g></svg>