<svg xmlns="http://www.w3.org/2000/svg" width="38.83" height="62"><defs><linearGradient id="a" x1="33.76" y1="-11.08" x2="17.8" y2="65.74" gradientUnits="userSpaceOnUse"><stop offset=".16" stop-color="#f0c98b"/><stop offset=".83" stop-color="#df8f67"/></linearGradient></defs><g data-name="レイヤー 2"><g data-name="レイヤー 1"><path d="M37.42 31c-3.72-16.71-8.06-31-18-31s-14.29 14.29-18 31c-4 18 0 31 18 31s22-13 18-31z" fill="#dfac84"/><path d="M19.42 0c-9.94 0-14.29 14.29-18 31C-.8 41-.55 49.4 3.16 54.94c4-17.08 15.36-36 25.58-49.19C26.28 2.15 23.27 0 19.42 0z" fill="#f0c98b"/><path d="M28.74 5.75C18.52 18.92 7.19 37.86 3.16 54.94c3 4.47 8.23 7.06 16.26 7.06 18 0 22-13 18-31-2.28-10.24-4.79-19.56-8.68-25.25z" fill="url(#a)"/></g></g></svg>