<svg xmlns="http://www.w3.org/2000/svg" width="72.36" height="47.56" viewBox="0 0 72.36 47.56"><path d="M29.91,30.53C30,19.71,35.05,2,44.77.37s16.87,2.05,14.35,10.9-15.88,17.66-22,19.29S29.91,30.53,29.91,30.53Z" fill="#ffce3f"/><path d="M32.14,30.26c6.67-4.4,32.53-16.21,38-8.69s-.05,16.28-9.51,18.77-22.92,2.07-26.84-3.87S32.14,30.26,32.14,30.26Z" fill="#ffce3f"/><path d="M32.69,31.1c3,2.78,12,7.6,8,12-6.94,7.64-25.79,4.19-27.42-1.61S16,31.29,23.54,29.94,32.69,31.1,32.69,31.1Z" fill="#ffce3f"/><path d="M31.82,30.17c-3.15-5.2-14.48-9.29-19.3-10.6S-4.75,16.78,1.93,28.11s24.69,10.6,27.66,7.25S31.82,30.17,31.82,30.17Z" fill="#ffce3f"/><path d="M28.53,30.24C20.79,25.77,8.07,17.38,10.35,6.3S26.59.88,31.2,8.37,33.84,23.15,32,28,28.53,30.24,28.53,30.24Z" fill="#ffce3f"/><ellipse cx="31.43" cy="30.53" rx="6.67" ry="4" fill="#ed9a2d"/></svg>