<svg xmlns="http://www.w3.org/2000/svg" width="72.36" height="47.56"><path d="M29.91 30.53C30 19.71 35.05 2 44.77.37s16.87 2.05 14.35 10.9-15.88 17.66-22 19.29-7.21-.03-7.21-.03z" fill="#ffce3f"/><path d="M32.14 30.26c6.67-4.4 32.53-16.21 38-8.69s-.05 16.28-9.51 18.77-22.92 2.07-26.84-3.87-1.65-6.21-1.65-6.21z" fill="#ffce3f"/><path d="M32.69 31.1c3 2.78 12 7.6 8 12-6.94 7.64-25.79 4.19-27.42-1.61S16 31.29 23.54 29.94s9.15 1.16 9.15 1.16z" fill="#ffce3f"/><path d="M31.82 30.17c-3.15-5.2-14.48-9.29-19.3-10.6s-17.27-2.79-10.59 8.54 24.69 10.6 27.66 7.25 2.23-5.19 2.23-5.19z" fill="#ffce3f"/><path d="M28.53 30.24C20.79 25.77 8.07 17.38 10.35 6.3S26.59.88 31.2 8.37 33.84 23.15 32 28s-3.47 2.24-3.47 2.24z" fill="#ffce3f"/><ellipse cx="31.43" cy="30.53" rx="6.67" ry="4" fill="#ed9a2d"/></svg>