<svg xmlns="http://www.w3.org/2000/svg" xmlns:xlink="http://www.w3.org/1999/xlink" width="375" height="564.9"><defs><linearGradient id="a" x1="138.28" y1="274.37" x2="138.28" gradientUnits="userSpaceOnUse"><stop offset="0" stop-color="#302e25"/><stop offset=".11" stop-color="#2a2922"/><stop offset=".4" stop-color="#22211d"/><stop offset=".84" stop-color="#1f1f1b"/></linearGradient><linearGradient id="b" x1="295.93" y1="499.33" x2="295.93" y2="274.93" xlink:href="#a"/><linearGradient id="c" x1="73.5" y1="564.9" x2="73.5" y2="427.9" xlink:href="#a"/></defs><path d="M131 269.9c56.61-9.78 120-7.92 141-53 11.4-24.48-1.56-73.16-6.35-100.84C257.09 66.51 219.06 43 172 24.9 144.37 14.26 115.2-4.57 82.88 1 51.85 6.38 22.81 27 0 49.09v203.54c34.28 23.12 81.38 25.85 131 17.27z" fill="url(#a)"/><path d="M286 303.9c-28.7 13.55-47 21.9-65 49-10.06 15.17.83 55.07 5 72 10.16 41.22 49.53 45.81 97 58.76 17.52 4.78 35.18 11.27 52 15.67v-223.2c-31.35-6.59-63 15.51-89 27.77z" fill="url(#b)"/><path d="M147 533.9c0-24.63-30.12-46.06-50-63-22.69-19.33-50.5-43-87-43-3.37 0-6.7.11-10 .31V564.9h129.58c9.87-8.53 17.42-17.81 17.42-31z" fill="url(#c)"/></svg>