<svg xmlns="http://www.w3.org/2000/svg" width="26.46" height="25.32" viewBox="0 0 26.46 25.32"><path d="M20.4,25.32a1.59,1.59,0,0,1-.76-.19l-6.12-3.21a.6.6,0,0,0-.58,0L6.82,25.13A1.6,1.6,0,0,1,5.1,25a1.64,1.64,0,0,1-.65-1.59l1.17-6.81a.61.61,0,0,0-.18-.56L.49,11.23A1.66,1.66,0,0,1,.08,9.55,1.63,1.63,0,0,1,1.4,8.44l6.83-1a.63.63,0,0,0,.48-.35L11.77.91a1.63,1.63,0,0,1,2.92,0L17.75,7.1a.63.63,0,0,0,.48.35l6.83,1a1.63,1.63,0,0,1,1.32,1.11A1.66,1.66,0,0,1,26,11.23L21,16.05a.61.61,0,0,0-.18.56L22,23.42A1.64,1.64,0,0,1,21.36,25,1.62,1.62,0,0,1,20.4,25.32Zm-7.17-4.47A1.59,1.59,0,0,1,14,21l6.11,3.21a.63.63,0,0,0,.67-.05.61.61,0,0,0,.25-.62l-1.17-6.8a1.66,1.66,0,0,1,.47-1.45l4.95-4.82a.63.63,0,0,0-.35-1.08l-6.84-1a1.65,1.65,0,0,1-1.23-.89L13.8,1.35a.66.66,0,0,0-1.14,0L9.61,7.55a1.65,1.65,0,0,1-1.23.89l-6.84,1a.63.63,0,0,0-.35,1.08l4.95,4.82a1.66,1.66,0,0,1,.47,1.45l-1.17,6.8a.61.61,0,0,0,.25.62.63.63,0,0,0,.67.05L12.47,21A1.59,1.59,0,0,1,13.23,20.85Z" fill="#edcb64"/></svg>