<svg xmlns="http://www.w3.org/2000/svg" width="26.46" height="25.32"><path d="M20.4 25.32a1.59 1.59 0 01-.76-.19l-6.12-3.21a.6.6 0 00-.58 0l-6.12 3.21A1.6 1.6 0 015.1 25a1.64 1.64 0 01-.65-1.59l1.17-6.81a.61.61 0 00-.18-.56L.49 11.23a1.66 1.66 0 01-.41-1.68A1.63 1.63 0 011.4 8.44l6.83-1a.63.63 0 00.48-.35L11.77.91a1.63 1.63 0 012.92 0l3.06 6.19a.63.63 0 00.48.35l6.83 1a1.63 1.63 0 011.32 1.11 1.66 1.66 0 01-.38 1.67l-5 4.82a.61.61 0 00-.18.56L22 23.42a1.64 1.64 0 01-.64 1.58 1.62 1.62 0 01-.96.32zm-7.17-4.47A1.59 1.59 0 0114 21l6.11 3.21a.63.63 0 00.67-.05.61.61 0 00.25-.62l-1.17-6.8a1.66 1.66 0 01.47-1.45l4.95-4.82a.63.63 0 00-.35-1.08l-6.84-1a1.65 1.65 0 01-1.23-.89L13.8 1.35a.66.66 0 00-1.14 0l-3.05 6.2a1.65 1.65 0 01-1.23.89l-6.84 1a.63.63 0 00-.35 1.08l4.95 4.82a1.66 1.66 0 01.47 1.45l-1.17 6.8a.61.61 0 00.25.62.63.63 0 00.67.05L12.47 21a1.59 1.59 0 01.76-.15z" fill="#edcb64"/></svg>