<svg xmlns="http://www.w3.org/2000/svg" width="1017" height="419" viewBox="0 0 1017 419"><defs><style>.cls-1{fill:#f2fae6;}</style></defs><g id="レイヤー_2" data-name="レイヤー 2"><g id="レイヤー_1-2" data-name="レイヤー 1"><path class="cls-1" d="M1017,141A105,105,0,0,0,938.77,39.45a50.5,50.5,0,1,0-98,24.39A104.82,104.82,0,0,0,809,120.61a82.49,82.49,0,0,0-128.12-16.12,46,46,0,1,0-59.29,67.67,103,103,0,0,0-49.26,28.91,61,61,0,0,0-109.24-15.65A100.31,100.31,0,0,0,387.54,150c.3-3.3.46-6.63.46-10a110,110,0,0,0-220-1.18A118.53,118.53,0,0,0,0,246H0V419H1017V150h-.39C1016.86,147,1017,144,1017,141Z"/></g></g></svg>